<svg xmlns="http://www.w3.org/2000/svg" xmlns:xlink="http://www.w3.org/1999/xlink" xmlns:inkscape="http://www.inkscape.org/namespaces/inkscape" version="1.1" width="147.12" height="96.96" viewBox="0 0 147.12 96.96">
<defs>
<clipPath id="clip_1">
<path transform="matrix(.24,0,0,.24,0,0)" d="M0 0H612.49996V403.35365H0Z" clip-rule="evenodd"/>
</clipPath>
<clipPath id="clip_2">
<path transform="matrix(.24,0,0,.24,0,0)" d="M0 0H612.49996V400.3658H0Z" clip-rule="evenodd"/>
</clipPath>
<clipPath id="clip_3">
<path transform="matrix(.24,0,0,.24,1.68,2.3999999)" d="M0 0H605V389H0Z" clip-rule="evenodd"/>
</clipPath>
<clipPath id="clip_4">
<path transform="matrix(.24,0,0,.24,0,0)" d="M5.9756095 5.9756095H597.5609V382.439H5.9756095Z" clip-rule="evenodd"/>
</clipPath>
<path id="font_5_73" d="M.23095703 .43554688V0H.09423828V.43554688H.017089844V.5283203H.09423828V.5834961C.09423828 .63134768 .106933597 .6668294 .13232422 .6899414 .15771485 .7130534 .19628906 .7246094 .24804688 .7246094 .27376304 .7246094 .30273438 .7220052 .33496095 .7167969V.62841799C.3216146 .63134768 .30826823 .6328125 .29492188 .6328125 .27148438 .6328125 .2549642 .6281738 .24536133 .6188965 .23575847 .60961917 .23095703 .5932617 .23095703 .5698242V.5283203H.33496095V.43554688H.23095703Z"/>
<path id="font_5_86" d="M.5151367 .15444947C.5151367 .10329183 .49422203 .0631307 .45239259 .033966066 .41056315 .004811605 .3527018-.009765625 .2788086-.009765625 .20621746-.009765625 .15063477 .0017445883 .11206055 .024765015 .07348633 .047785444 .047851564 .083618167 .03515625 .13226319L.15576172 .15039063C.16259766 .12515259 .17439778 .107284549 .19116211 .0967865 .20792644 .08629862 .23714192 .08105469 .2788086 .08105469 .31722007 .08105469 .34521485 .08594767 .36279298 .09573364 .3803711 .105519618 .38916017 .1208547 .38916017 .14173889 .38916017 .15867615 .38208009 .17211406 .36791993 .18205261 .35375978 .19199117 .3297526 .2003835 .29589845 .20722962 .21842449 .22253926 .16617839 .23679097 .13916016 .24998474 .11214193 .2631785 .091552738 .2802836 .07739258 .30130006 .06323242 .3223165 .056152345 .34813944 .056152345 .37876893 .056152345 .42926536 .07560221 .4686025 .11450195 .4967804 .15340169 .52496847 .2084961 .5390625 .27978517 .5390625 .3426107 .5390625 .3931478 .52685549 .43139649 .5024414 .46964518 .47802735 .4934896 .44270835 .5029297 .39648438L.38134767 .38378907C.3774414 .40527345 .36783854 .42130534 .35253907 .43188478 .3372396 .4424642 .31298829 .4477539 .27978517 .4477539 .24723308 .4477539 .22281902 .44359336 .20654297 .43527223 .19026692 .42695109 .1821289 .41300456 .1821289 .39343263 .1821289 .37812297 .18839519 .36598716 .20092774 .35702516 .21346028 .34806315 .23453777 .34065248 .26416017 .3347931 .3055013 .32631938 .34220378 .31760154 .37426759 .30863954 .4063314 .29967753 .43204753 .28900657 .45141603 .2766266 .47078453 .2642466 .48624674 .24836223 .49780274 .22897339 .5093587 .20958455 .5151367 .18474324 .5151367 .15444947Z"/>
<path id="font_5_80" d="M.38085938 0V.2967224C.38085938 .38959757 .35416667 .43603517 .30078126 .43603517 .27311198 .43603517 .25056968 .42185975 .2331543 .3935089 .21573894 .36515809 .20703125 .3284963 .20703125 .28352357V0H.06982422V.41015626C.06982422 .43847657 .06941732 .46166993 .068603519 .47973634 .06778971 .49780274 .06689453 .5139974 .06591797 .5283203H.19677735C.1977539 .52216598 .19905599 .50572207 .2006836 .47898866 .2023112 .45225526 .203125 .4338684 .203125 .42382813H.20507813C.2220052 .46419273 .24308269 .4934896 .26831056 .51171877 .29353843 .52994796 .32373048 .5390625 .35888673 .5390625 .43961589 .5390625 .48860679 .50065109 .5058594 .42382813H.50878909C.5266927 .46484376 .54817709 .49430339 .5732422 .51220706 .5983073 .53011068 .6302083 .5390625 .6689453 .5390625 .7203776 .5390625 .75960287 .5215505 .7866211 .4865265 .81363937 .45150248 .82714846 .40124513 .82714846 .3357544V0H.69091799V.2967224C.69091799 .38959757 .6642253 .43603517 .61083987 .43603517 .58414718 .43603517 .56225588 .42308045 .545166 .39717103 .5280762 .3712616 .51871749 .335495 .51708987 .28987123V0H.38085938Z"/>
<path id="font_5_66" d="M-.009765625-.12207031V-.083984378H.5649414V-.12207031H-.009765625Z"/>
<path id="font_5_69" d="M.5698242 .26611329C.5698242 .1788737 .55232748 .111083988 .517334 .06274414 .48234049 .014404297 .43229167-.009765625 .3671875-.009765625 .3297526-.009765625 .29736329-.0016276041 .27001954 .0146484379 .24267578 .030924479 .22167969 .05436198 .20703125 .08496094H.20605469C.20605469 .07356771 .20532227 .057942708 .20385742 .038085939 .20239258 .018229166 .20084636 .005533854 .19921875 0H.06591797C.06852213 .030273438 .06982422 .07047526 .06982422 .12060547V.7246094H.20703125V.52246096L.20507813 .43652345H.20703125C.23795574 .50423178 .29427085 .53808596 .37597657 .53808596 .43847657 .53808596 .48640953 .5144043 .5197754 .46704103 .5531413 .41967774 .5698242 .3527018 .5698242 .26611329M.4267578 .26611329C.4267578 .32600913 .41796876 .37044273 .40039063 .39941407 .3828125 .4283854 .3556315 .4428711 .31884767 .4428711 .28173829 .4428711 .25349937 .42732749 .23413086 .39624024 .21476238 .36515299 .20507813 .3203125 .20507813 .26171876 .20507813 .20572917 .21459961 .16210938 .23364258 .13085938 .25268556 .099609378 .28076173 .083984378 .3178711 .083984378 .39046226 .083984378 .4267578 .14469402 .4267578 .26611329Z"/>
<path id="font_5_88" d="M.19921875 .5283203V.2319336C.19921875 .13916016 .23046875 .09277344 .29296876 .09277344 .32617188 .09277344 .35294596 .10701498 .37329103 .13549805 .39363609 .16398113 .4038086 .20052083 .4038086 .24511719V.5283203H.5410156V.11816406C.5410156 .07324219 .5423177 .033854169 .5449219 0H.4140625C.41015626 .046875 .40820313 .08186849 .40820313 .10498047H.40576173C.38753257 .064941409 .3643392 .035807294 .33618165 .017578125 .30802409-.0006510417 .2745768-.009765625 .23583985-.009765625 .17985027-.009765625 .13688152 .007405599 .106933597 .041748048 .07698568 .07609049 .06201172 .12646485 .06201172 .1928711V.5283203H.19921875Z"/>
<path id="font_5_87" d="M.20507813-.0087890629C.16471355-.0087890629 .1336263 .0021972657 .111816409 .024169922 .09000651 .046142579 .07910156 .079427089 .07910156 .12402344V.43554688H.012207031V.5283203H.0859375L.12890625 .65234377H.21484375V.5283203H.3149414V.43554688H.21484375V.16113281C.21484375 .13541667 .21972656 .11645508 .22949219 .10424805 .23925781 .092041019 .25439454 .0859375 .27490235 .0859375 .28564454 .0859375 .300944 .08821615 .32080079 .09277344V.0078125C.28694663-.0032552083 .24837239-.0087890629 .20507813-.0087890629Z"/>
<path id="font_5_82" d="M.57177737 .26464845C.57177737 .17903646 .54801437 .11189779 .5004883 .06323242 .45296226 .014567058 .38720704-.009765625 .30322267-.009765625 .22086589-.009765625 .15625 .0146484379 .109375 .06347656 .0625 .11230469 .0390625 .17936199 .0390625 .26464845 .0390625 .34960938 .0625 .41642253 .109375 .4650879 .15625 .51375326 .22184246 .53808596 .30615235 .53808596 .39241538 .53808596 .45825196 .5145671 .5036621 .4675293 .54907229 .42049156 .57177737 .3528646 .57177737 .26464845M.42822267 .26464845C.42822267 .32747398 .41796876 .37304688 .39746095 .4013672 .37695313 .4296875 .34716798 .44384767 .30810548 .44384767 .22477214 .44384767 .18310547 .3841146 .18310547 .26464845 .18310547 .20572917 .193278 .16088867 .21362305 .13012696 .2339681 .099365238 .26334635 .083984378 .3017578 .083984378 .38606773 .083984378 .42822267 .14420574 .42822267 .26464845Z"/>
<path id="font_5_81" d="M.41210938 0V.2967224C.41210938 .38959757 .38069663 .43603517 .3178711 .43603517 .28466798 .43603517 .2578939 .42177836 .23754883 .39326478 .21720378 .3647512 .20703125 .32817079 .20703125 .28352357V0H.06982422V.41015626C.06982422 .43847657 .06941732 .46166993 .068603519 .47973634 .06778971 .49780274 .06689453 .5139974 .06591797 .5283203H.19677735C.1977539 .52216598 .19905599 .50572207 .2006836 .47898866 .2023112 .45225526 .203125 .4338684 .203125 .42382813H.20507813C.22363281 .46419273 .24690755 .4934896 .27490235 .51171877 .30289714 .52994796 .33626304 .5390625 .375 .5390625 .4309896 .5390625 .47395835 .5217946 .50390627 .4872589 .5338542 .45272319 .5488281 .40222169 .5488281 .3357544V0H.41210938Z"/>
<path id="font_6_73" d="M.17626953 .46435548V0H.088378909V.46435548H.014160156V.5283203H.088378909V.5878906C.088378909 .6360677 .098958339 .67073568 .12011719 .69189456 .14127605 .7130534 .17366536 .7236328 .21728516 .7236328 .24169922 .7236328 .26236979 .7216797 .27929688 .71777346V.6508789C.26464845 .6534831 .2516276 .65478518 .24023438 .65478518 .21777344 .65478518 .20149739 .64908859 .19140625 .6376953 .18131511 .62630209 .17626953 .60563156 .17626953 .5756836V.5283203H.27929688V.46435548H.17626953Z"/>
<path id="font_6_30" d="M.18798828 .1015625V.025222779C.18798828-.009353638 .18489583-.038223268 .17871094-.06138611 .17252605-.08454895 .16292317-.10673014 .14990235-.12792969H.08984375C.12044271-.08365885 .13574219-.041015626 .13574219 0H.09277344V.1015625H.18798828M.09277344 .4267578V.5283203H.18798828V.4267578H.09277344Z"/>
<path id="font_5_76" d="M.06982422 .62353518V.7246094H.20703125V.62353518H.06982422M.06982422 0V.5283203H.20703125V0H.06982422Z"/>
<path id="font_5_22" d="M.52001956 .19042969C.52001956 .12597656 .4988607 .076171878 .45654298 .041015626 .41422526 .005859375 .3540039-.01171875 .2758789-.01171875 .20198567-.01171875 .14322917 .005330404 .099609378 .03942871 .055989583 .073527019 .030436198 .12271118 .022949219 .1869812L.16259766 .19921875C.17138672 .1328125 .20898438 .099609378 .27539063 .099609378 .30826823 .099609378 .33382163 .1077474 .35205079 .12402344 .37027995 .14029949 .37939454 .16520183 .37939454 .19873047 .37939454 .22932942 .3683268 .25276695 .3461914 .26904298 .324056 .285319 .29117839 .29345704 .2475586 .29345704H.19970703V.40429688H.2446289C.28401695 .40429688 .3136393 .41237388 .3334961 .42852784 .35335288 .4446818 .36328126 .46777345 .36328126 .49780274 .36328126 .5262044 .35538737 .54848226 .3395996 .56463626 .32381187 .5807902 .30078126 .5888672 .2705078 .5888672 .2421875 .5888672 .21931966 .5810547 .2019043 .5654297 .18448894 .5498047 .17447917 .52766928 .171875 .49902345L.03466797 .50878909C.041829427 .5680339 .06640625 .6144206 .10839844 .6479492 .15039063 .68147787 .20524089 .6982422 .27294923 .6982422 .3448893 .6982422 .40112306 .6820221 .4416504 .6495819 .48217774 .6171519 .5024414 .57225039 .5024414 .5148773 .5024414 .47184754 .48982749 .43647767 .4645996 .4087677 .43937174 .38105775 .40299479 .36264039 .35546876 .35351563V.3515625C.40820313 .3453776 .44881187 .3280436 .47729493 .29956056 .505778 .27107749 .52001956 .23470052 .52001956 .19042969Z"/>
<path id="font_5_21" d="M.03466797 0V.095214847C.052571615 .13460286 .07804362 .17301433 .111083988 .21044922 .14412435 .24788411 .18570964 .28694663 .23583985 .32763673 .28401695 .36669923 .3177897 .39892579 .3371582 .4243164 .3565267 .44970704 .36621095 .47460938 .36621095 .49902345 .36621095 .55891928 .33610026 .5888672 .2758789 .5888672 .24658203 .5888672 .22420247 .5809733 .20874024 .56518557 .193278 .54939779 .18326824 .5257161 .17871094 .49414063L.040527345 .5019531C.048339845 .5657552 .07218424 .6144206 .11206055 .6479492 .15193685 .68147787 .20621746 .6982422 .27490235 .6982422 .3491211 .6982422 .40608726 .6813151 .44580079 .64746096 .4855143 .61360678 .5053711 .56608077 .5053711 .5048828 .5053711 .47265626 .49902345 .44352214 .48632813 .41748048 .4736328 .3914388 .45735679 .36743165 .4375 .34545899 .41764323 .32348634 .3955892 .30289714 .3713379 .2836914 .34708659 .2644857 .32356773 .24576824 .30078126 .22753906 .27799479 .20930989 .25724284 .19091797 .23852539 .17236328 .21980794 .1538086 .20589192 .13395183 .19677735 .11279297H.5161133V0H.03466797Z"/>
<path id="font_6_71" d="M.4008789 .08496094C.38460288 .05110677 .3630371 .026855469 .33618165 .012207031 .30932618-.0024414063 .27604167-.009765625 .23632813-.009765625 .16959636-.009765625 .120524089 .0126953129 .08911133 .057617189 .057698568 .10253906 .041992189 .17057292 .041992189 .26171876 .041992189 .44596354 .106770839 .53808596 .23632813 .53808596 .2763672 .53808596 .30973307 .5307617 .33642579 .5161133 .3631185 .50146487 .38460288 .4781901 .4008789 .44628907H.40185548L.4008789 .5053711V.7246094H.48876954V.10888672C.48876954 .0538737 .4897461 .017578125 .49169923 0H.40771485C.40673829 .0052083337 .40568034 .017252604 .40454103 .036132814 .4034017 .05501302 .40283204 .07128906 .40283204 .08496094H.4008789M.13427735 .26464845C.13427735 .1907552 .14404297 .13785808 .16357422 .10595703 .18310547 .07405599 .21484375 .05810547 .25878907 .05810547 .30859376 .05810547 .34472657 .07535807 .3671875 .10986328 .38964845 .14436849 .4008789 .19791667 .4008789 .2705078 .4008789 .34049479 .38964845 .3917643 .3671875 .4243164 .34472657 .4568685 .30891929 .47314454 .25976563 .47314454 .2154948 .47314454 .18351238 .4567871 .16381836 .42407228 .14412435 .39135743 .13427735 .33821617 .13427735 .26464845Z"/>
<path id="font_6_72" d="M.13476563 .24609375C.13476563 .18539429 .14729817 .13855998 .17236328 .10559082 .19742839 .072631839 .23404949 .056152345 .28222657 .056152345 .3203125 .056152345 .35083009 .06384786 .3737793 .07923889 .39672853 .09462992 .41227214 .114115398 .42041017 .13769531L.4975586 .11564636C.46598307 .032038373 .39420573-.009765625 .28222657-.009765625 .20410156-.009765625 .14461263 .013509114 .103759769 .060058595 .0629069 .10660807 .04248047 .17578125 .04248047 .26757813 .04248047 .35481773 .0629069 .42171226 .103759769 .46826173 .14461263 .5148112 .20296224 .53808596 .2788086 .53808596 .43408204 .53808596 .51171877 .44465638 .51171877 .25779725V.24609375H.13476563M.42089845 .31347657C.41601563 .36896769 .40185548 .40944926 .37841798 .43492127 .35498048 .46040345 .32128907 .47314454 .27734376 .47314454 .23470052 .47314454 .20092774 .4589437 .17602539 .430542 .15112305 .40215049 .13769531 .36312867 .13574219 .31347657H.42089845Z"/>
<path id="font_6_69" d="M.51416018 .26660157C.51416018 .08235677 .4493815-.009765625 .31982423-.009765625 .27978517-.009765625 .24650066-.0025227864 .2199707 .011962891 .19344075 .026448569 .171875 .049804689 .15527344 .08203125H.15429688C.15429688 .0719401 .15364583 .056559247 .15234375 .035888673 .15104167 .015218099 .15006511 .0032552083 .14941406 0H.064453128C.06640625 .017578125 .06738281 .0538737 .06738281 .10888672V.7246094H.15527344V.5180664C.15527344 .49690757 .15462239 .47200523 .15332031 .44335938H.15527344C.17154949 .47721354 .19311524 .50146487 .2199707 .5161133 .24682617 .5307617 .2801107 .53808596 .31982423 .53808596 .386556 .53808596 .43562828 .515625 .46704103 .47070313 .49845378 .42578126 .51416018 .3577474 .51416018 .26660157M.421875 .26367188C.421875 .3375651 .41210938 .39046226 .39257813 .42236329 .37304688 .4542643 .3413086 .47021485 .29736329 .47021485 .24788411 .47021485 .21183269 .45328776 .18920899 .4194336 .16658528 .38557945 .15527344 .3318685 .15527344 .25830079 .15527344 .18896485 .16634114 .13777669 .18847656 .10473633 .21061199 .07169596 .24658203 .05517578 .29638673 .05517578 .34065757 .05517578 .37263999 .0715332 .39233399 .10424805 .41202799 .13696289 .421875 .19010417 .421875 .26367188Z"/>
<path id="font_6_82" d="M.51416018 .26464845C.51416018 .17220052 .4938151 .10335287 .453125 .05810547 .4124349 .012858073 .35335288-.009765625 .2758789-.009765625 .19873047-.009765625 .14046224 .013753255 .10107422 .060791017 .0616862 .10782877 .041992189 .17578125 .041992189 .26464845 .041992189 .4469401 .12093099 .53808596 .2788086 .53808596 .35953776 .53808596 .4189453 .51586917 .45703126 .47143556 .4951172 .42700196 .51416018 .3580729 .51416018 .26464845M.421875 .26464845C.421875 .3375651 .41105143 .3905436 .3894043 .42358399 .36775718 .45662437 .33138023 .47314454 .28027345 .47314454 .22884114 .47314454 .19165039 .45629884 .16870117 .42260743 .14575196 .38891603 .13427735 .33626304 .13427735 .26464845 .13427735 .19498699 .14558919 .1426595 .16821289 .107666019 .1908366 .07267252 .22639974 .05517578 .27490235 .05517578 .32763673 .05517578 .36531578 .07210287 .38793946 .10595703 .41056315 .1398112 .421875 .19270833 .421875 .26464845Z"/>
<path id="font_6_88" d="M.15332031 .5283203V.19335938C.15332031 .15852864 .15673828 .13151042 .16357422 .11230469 .17041016 .09309896 .18131511 .07926432 .19628906 .07080078 .21126302 .06233724 .23323567 .05810547 .26220704 .05810547 .30452476 .05810547 .33789063 .07259115 .3623047 .1015625 .38671876 .13053386 .39892579 .17073567 .39892579 .22216797V.5283203H.4868164V.11279297C.4868164 .05126953 .48779298 .013671875 .4897461 0H.40673829C.40641276 .0016276041 .40608726 .0060221354 .40576173 .013183594 .4054362 .020345053 .4050293 .028564454 .40454103 .037841798 .40405274 .04711914 .40348307 .06461588 .40283204 .09033203H.4013672C.3811849 .0538737 .35782878 .028076172 .33129884 .012939453 .3047689-.0021972657 .2718099-.009765625 .23242188-.009765625 .17447917-.009765625 .13208008 .004638672 .10522461 .033447267 .07836914 .06225586 .064941409 .10986328 .064941409 .17626953V.5283203H.15332031Z"/>
<path id="font_6_81" d="M.40283204 0V.33496095C.40283204 .36979167 .39941407 .3968099 .39257813 .41601563 .3857422 .43522135 .37483726 .449056 .35986329 .45751954 .3448893 .46598307 .32291667 .47021485 .2939453 .47021485 .2516276 .47021485 .21826172 .45572917 .19384766 .4267578 .1694336 .39778648 .15722656 .35758464 .15722656 .30615235V0H.06933594V.41552735C.06933594 .47705079 .068359378 .51464846 .06640625 .5283203H.14941406C.14973958 .5266927 .15006511 .52229818 .15039063 .5151367 .15071614 .5079753 .15112305 .49975587 .15161133 .49047853 .15209961 .48120118 .15266927 .46370445 .15332031 .43798829H.15478516C.17496746 .47444663 .19832357 .50024417 .22485352 .51538088 .25138346 .5305176 .28434245 .53808596 .32373048 .53808596 .3816732 .53808596 .42407228 .52368167 .45092774 .49487306 .4777832 .46606446 .49121095 .41845704 .49121095 .35205079V0H.40283204Z"/>
<path id="font_6_70" d="M.13427735 .26660157C.13427735 .19628906 .14534505 .14420574 .16748047 .11035156 .18961589 .0764974 .22298177 .059570314 .26757813 .059570314 .29882813 .059570314 .32495118 .06803385 .34594728 .08496094 .36694337 .10188802 .3798828 .12792969 .38476563 .16308594L.4736328 .15722656C.46679688 .10644531 .44514976 .06591797 .4086914 .03564453 .37223307 .0053710939 .32600913-.009765625 .27001954-.009765625 .1961263-.009765625 .13972982 .013590495 .10083008 .060302736 .06193034 .10701498 .04248047 .1751302 .04248047 .26464845 .04248047 .35351563 .06201172 .42130534 .10107422 .46801759 .14013672 .5147298 .1961263 .53808596 .26904298 .53808596 .32307945 .53808596 .36791993 .5241292 .40356446 .49621583 .43920899 .4683024 .46158854 .42984519 .47070313 .38084413L.3803711 .37402345C.3758138 .40316773 .3642578 .4263204 .34570313 .44348146 .32714845 .46065269 .30078126 .46923829 .26660157 .46923829 .22005208 .46923829 .18636067 .45377604 .16552735 .42285157 .14469402 .3919271 .13427735 .33984376 .13427735 .26660157Z"/>
<path id="font_6_66" d="M-.015136719-.19921875V-.13574219H.5673828V-.19921875H-.015136719Z"/>
<path id="font_6_87" d="M.2705078 .00390625C.24153646-.00390625 .21191406-.0078125 .18164063-.0078125 .111328128-.0078125 .076171878 .0320638 .076171878 .111816409V.46435548H.015136719V.5283203H.079589847L.10546875 .6464844H.1640625V.5283203H.26171876V.46435548H.1640625V.13085938C.1640625 .10546875 .16821289 .087646488 .17651367 .07739258 .18481446 .06713867 .19921875 .06201172 .21972656 .06201172 .23144531 .06201172 .24837239 .06429037 .2705078 .068847659V.00390625Z"/>
<path id="font_6_76" d="M.06689453 .640625V.7246094H.15478516V.640625H.06689453M.06689453 0V.5283203H.15478516V0H.06689453Z"/>
<path id="font_6_80" d="M.375 0V.33496095C.375 .38606773 .3680013 .42138673 .3540039 .44091798 .3400065 .46044923 .31477867 .47021485 .2783203 .47021485 .24088542 .47021485 .21126302 .45589195 .18945313 .4272461 .16764324 .39860026 .15673828 .3582357 .15673828 .30615235V0H.06933594V.41552735C.06933594 .47705079 .068359378 .51464846 .06640625 .5283203H.14941406C.14973958 .5266927 .15006511 .52229818 .15039063 .5151367 .15071614 .5079753 .15112305 .49975587 .15161133 .49047853 .15209961 .48120118 .15266927 .46370445 .15332031 .43798829H.15478516C.17366536 .4754232 .1953125 .50146487 .21972656 .5161133 .24414063 .5307617 .27392579 .53808596 .30908204 .53808596 .3491211 .53808596 .38077799 .53011068 .40405274 .51416018 .42732749 .49820964 .44352214 .472819 .45263673 .43798829H.45410157C.47233073 .47347007 .49438478 .49902345 .5202637 .51464846 .5461426 .53027346 .57747396 .53808596 .6142578 .53808596 .66764327 .53808596 .7064616 .5236003 .7307129 .4946289 .7549642 .46565757 .76708987 .4181315 .76708987 .35205079V0H.6801758V.33496095C.6801758 .38606773 .67317709 .42138673 .6591797 .44091798 .6451823 .46044923 .6199544 .47021485 .5834961 .47021485 .54508468 .47021485 .5152181 .4559733 .49389649 .42749024 .47257487 .39900718 .46191407 .3585612 .46191407 .30615235V0H.375Z"/>
<path id="font_6_91" d="M.39111329 0 .24902344 .21679688 .10595703 0H.011230469L.19921875 .27148438 .020019532 .5283203H.1171875L.24902344 .3227539 .3798828 .5283203H.47802735L.29882813 .27246095 .4892578 0H.39111329Z"/>
<path id="font_6_78" d="M.3984375 0 .21972656 .24121094 .15527344 .18798828V0H.06738281V.7246094H.15527344V.27197267L.38720704 .5283203H.49023438L.2758789 .30126954 .50146487 0H.3984375Z"/>
<path id="font_6_83" d="M.51416018 .2668457C.51416018 .08243815 .4493815-.009765625 .31982423-.009765625 .23844402-.009765625 .18375652 .020858765 .15576172 .082107547H.15332031C.15462239 .07950338 .15527344 .051778158 .15527344-.0010681152V-.20800781H.06738281V.42033387C.06738281 .47473655 .06640625 .510732 .064453128 .5283203H.14941406C.14973958 .5270284 .15022786 .5224101 .1508789 .51446536 .15152996 .50653079 .15226238 .4942983 .15307617 .47776795 .15388997 .46124778 .15429688 .4499105 .15429688 .4437561H.15625C.171875 .4763387 .19254558 .50020346 .21826172 .51535037 .24397786 .5305074 .27783204 .53808596 .31982423 .53808596 .38492839 .53808596 .43359376 .5162557 .4658203 .4725952 .49804688 .42893473 .51416018 .36035157 .51416018 .2668457M.421875 .26489259C.421875 .33855186 .41194663 .39118449 .39208985 .42279054 .37223307 .45440675 .34065757 .47021485 .29736329 .47021485 .26253257 .47021485 .23527019 .46288047 .21557617 .44821168 .19588216 .43355308 .1809082 .4106598 .1706543 .37953187 .16040039 .34840394 .15527344 .3079122 .15527344 .25805665 .15527344 .18863933 .16634114 .13747151 .18847656 .10455322 .21061199 .071634929 .24658203 .05517578 .29638673 .05517578 .3400065 .05517578 .37182618 .07122294 .3918457 .10331726 .41186524 .13542176 .421875 .1892802 .421875 .26489259Z"/>
<path id="font_6_85" d="M.06933594 0V.40527345C.06933594 .4423828 .068359378 .48339845 .06640625 .5283203H.14941406C.15201824 .46842448 .15332031 .43245445 .15332031 .42041017H.15527344C.16927083 .46565757 .18538411 .49658204 .20361328 .5131836 .22184246 .52978518 .2475586 .53808596 .28076173 .53808596 .29248048 .53808596 .30436198 .5364583 .31640626 .5332031V.45263673C.3046875 .45589195 .2890625 .45751954 .26953126 .45751954 .23307292 .45751954 .20524089 .44181315 .18603516 .4104004 .16682942 .37898765 .15722656 .33398438 .15722656 .27539063V0H.06933594Z"/>
<path id="font_6_86" d="M.4638672 .14613343C.4638672 .09628805 .44506837 .057840986 .4074707 .030792237 .36987306 .003753662 .31722007-.009765625 .24951172-.009765625 .18375652-.009765625 .13305664 .0010579428 .09741211 .022705079 .061767579 .044352216 .03857422 .078125 .027832032 .12402344L.10546875 .13916016C.11295573 .110839847 .12841797 .09008789 .15185547 .0769043 .17529297 .0637207 .20784505 .057128908 .24951172 .057128908 .29410807 .057128908 .32674156 .063975017 .3474121 .07766724 .36808268 .09136963 .37841798 .11191305 .37841798 .13929749 .37841798 .16015117 .3712565 .1770935 .3569336 .19012451 .3426107 .20315552 .3194987 .21390789 .28759767 .22238159L.22460938 .23899842C.17415364 .25202943 .13826497 .26481629 .11694336 .277359 .09562174 .28990174 .078938808 .30513 .06689453 .32304383 .05485026 .3409678 .048828126 .36296083 .048828126 .38902284 .048828126 .43725077 .06599935 .47398887 .1003418 .49923707 .13468425 .5244853 .18473308 .5371094 .25048829 .5371094 .3087565 .5371094 .35506187 .52685549 .3894043 .50634768 .42374674 .48583985 .44547526 .45296226 .45458985 .40771485L.37548829 .39794923C.37060548 .42138673 .35750328 .43937174 .33618165 .4519043 .31486003 .46443687 .28629557 .47070313 .25048829 .47070313 .21077474 .47070313 .18147786 .4646708 .16259766 .4526062 .14371746 .4405416 .13427735 .4222819 .13427735 .39782716 .13427735 .38284303 .1381836 .37046305 .1459961 .36068727 .1538086 .35091148 .16536458 .3426005 .18066406 .3357544 .19596355 .32891847 .22819011 .31947328 .27734376 .30741883 .32389323 .2956899 .35742188 .28485618 .3779297 .2749176 .3984375 .26497904 .41463218 .25398255 .42651368 .2419281 .43839518 .22987366 .44759117 .21594239 .45410157 .20013428 .46061198 .18433635 .4638672 .16633606 .4638672 .14613343Z"/>
<path id="font_6_68" d="M.20214844-.009765625C.14908855-.009765625 .10921224 .004231771 .08251953 .032226564 .055826826 .060221357 .04248047 .09863281 .04248047 .14746094 .04248047 .20214844 .060465497 .24414063 .09643555 .2734375 .1324056 .30273438 .19042969 .31835938 .2705078 .3203125L.38916017 .32226563V.35107423C.38916017 .39404298 .38004557 .4248047 .3618164 .44335938 .34358726 .46191407 .3149414 .4711914 .2758789 .4711914 .23649089 .4711914 .20784505 .46455384 .1899414 .4512787 .17203777 .4380137 .16129558 .41681925 .15771485 .3876953L.06591797 .39596559C.08089193 .4907125 .15152996 .53808596 .27783204 .53808596 .34423829 .53808596 .39420573 .52286788 .42773438 .49243165 .46126304 .46199546 .47802735 .41796876 .47802735 .36035157V.1328125C.47802735 .106770839 .4814453 .0871582 .48828126 .07397461 .4951172 .060791017 .508138 .05419922 .52734377 .05419922 .5358073 .05419922 .54541018 .055338544 .55615237 .057617189V.0029296876C.5340169-.0022786458 .51139327-.0048828127 .48828126-.0048828127 .45572917-.0048828127 .43204753 .0036621094 .41723634 .020751954 .40242515 .037841798 .39404298 .06461588 .39208985 .10107422H.38916017C.36669923 .060709638 .34057618 .032145185 .31079103 .015380859 .28100587-.0013834635 .24479167-.009765625 .20214844-.009765625M.22216797 .056152345C.25439454 .056152345 .28304038 .06347656 .30810548 .078125 .33317057 .09277344 .35294596 .11287435 .36743165 .13842774 .38191734 .16398113 .38916017 .19026692 .38916017 .21728516V.2607422L.29296876 .25878907C.2516276 .25813804 .22029622 .25390626 .19897461 .24609375 .177653 .23828125 .16129558 .22623699 .14990235 .20996094 .13850911 .19368489 .1328125 .17236328 .1328125 .1459961 .1328125 .11735026 .14054363 .095214847 .15600586 .079589847 .1714681 .063964847 .19352214 .056152345 .22216797 .056152345Z"/>
</defs>
<g>
<g clip-path="url(#clip_1)">
<path transform="matrix(.7170731,0,0,.7170731,0,0)" d="M0 0H205V135H0Z" fill="#ffffff"/>
</g>
<g clip-path="url(#clip_2)">
<g opacity=".2471">
<g clip-path="url(#clip_3)">
<path transform="matrix(.7170731,0,0,.7170731,1.7926827,2.5097559)" stroke-width="1" stroke-linecap="butt" stroke-miterlimit="4" stroke-linejoin="miter" fill="none" stroke="#000000" d="M1 1H201V129H1Z"/>
</g>
</g>
<path transform="matrix(.7170731,0,0,.7170731,.35853655,.35853655)" stroke-width="1" stroke-linecap="butt" stroke-miterlimit="4" stroke-linejoin="miter" fill="none" stroke="#000000" d="M1 1H201V129H1Z"/>
<path transform="matrix(.7170731,0,0,.7170731,0,0)" d="M1 1H201V129H1Z" fill="#ffcccc"/>
<path transform="matrix(.7170731,0,0,.7170731,0,0)" stroke-width="1" stroke-linecap="butt" stroke-miterlimit="4" stroke-linejoin="miter" fill="none" stroke="#000000" d="M1.5 1.5H200.5V128.5H1.5Z"/>
</g>
<g clip-path="url(#clip_4)">
<path transform="matrix(.7170731,0,0,.7170731,0,0)" d="M2 2H200V20H2Z" fill="#e4e4e4"/>
<path transform="matrix(.7170731,0,0,.7170731,0,0)" d="M2 38H73V56H2Z" fill="#ffffff"/>
<path transform="matrix(.7170731,0,0,.7170731,0,0)" d="M73 38H200V56H73Z" fill="#ffffff"/>
<path transform="matrix(.7170731,0,0,.7170731,0,0)" d="M2 74H73V92H2Z" fill="#ffffff"/>
<path transform="matrix(.7170731,0,0,.7170731,0,0)" d="M73 74H200V92H73Z" fill="#ffffff"/>
<path transform="matrix(.7170731,0,0,.7170731,0,0)" d="M2 110H73V128H2Z" fill="#ffffff"/>
<path transform="matrix(.7170731,0,0,.7170731,0,0)" d="M73 110H200V128H73Z" fill="#ffffff"/>
<use data-text="f" xlink:href="#font_5_73" transform="matrix(8.604877,0,0,-8.604877,2.8682924,10.756096)"/>
<use data-text="s" xlink:href="#font_5_86" transform="matrix(8.604877,0,0,-8.604877,5.7337167,10.756096)"/>
<use data-text="m" xlink:href="#font_5_80" transform="matrix(8.604877,0,0,-8.604877,10.518029,10.756096)"/>
<use data-text="_" xlink:href="#font_5_66" transform="matrix(8.604877,0,0,-8.604877,18.167765,10.756096)"/>
<use data-text="b" xlink:href="#font_5_69" transform="matrix(8.604877,0,0,-8.604877,22.952078,10.756096)"/>
<use data-text="u" xlink:href="#font_5_88" transform="matrix(8.604877,0,0,-8.604877,28.209658,10.756096)"/>
<use data-text="t" xlink:href="#font_5_87" transform="matrix(8.604877,0,0,-8.604877,33.46724,10.756096)"/>
<use data-text="t" xlink:href="#font_5_87" transform="matrix(8.604877,0,0,-8.604877,36.33266,10.756096)"/>
<use data-text="o" xlink:href="#font_5_82" transform="matrix(8.604877,0,0,-8.604877,39.198087,10.756096)"/>
<use data-text="n" xlink:href="#font_5_81" transform="matrix(8.604877,0,0,-8.604877,44.455667,10.756096)"/>
<use data-text="_" xlink:href="#font_5_66" transform="matrix(8.604877,0,0,-8.604877,49.713247,10.756096)"/>
<use data-text="t" xlink:href="#font_5_87" transform="matrix(8.604877,0,0,-8.604877,54.497556,10.756096)"/>
<use data-text="f" xlink:href="#font_5_73" transform="matrix(8.604877,0,0,-8.604877,2.8682924,23.663413)"/>
<use data-text="s" xlink:href="#font_5_86" transform="matrix(8.604877,0,0,-8.604877,5.7337167,23.663413)"/>
<use data-text="m" xlink:href="#font_5_80" transform="matrix(8.604877,0,0,-8.604877,10.518029,23.663413)"/>
<use data-text="_" xlink:href="#font_5_66" transform="matrix(8.604877,0,0,-8.604877,18.167765,23.663413)"/>
<use data-text="t" xlink:href="#font_5_87" transform="matrix(8.604877,0,0,-8.604877,22.952078,23.663413)"/>
<use data-text="f" xlink:href="#font_6_73" transform="matrix(8.604877,0,0,-8.604877,53.78048,23.663413)"/>
<use data-text=";" xlink:href="#font_6_30" transform="matrix(8.604877,0,0,-8.604877,56.172636,23.663413)"/>
<use data-text="u" xlink:href="#font_5_88" transform="matrix(8.604877,0,0,-8.604877,2.8682924,36.57073)"/>
<use data-text="i" xlink:href="#font_5_76" transform="matrix(8.604877,0,0,-8.604877,8.125872,36.57073)"/>
<use data-text="n" xlink:href="#font_5_81" transform="matrix(8.604877,0,0,-8.604877,10.518028,36.57073)"/>
<use data-text="t" xlink:href="#font_5_87" transform="matrix(8.604877,0,0,-8.604877,15.775608,36.57073)"/>
<use data-text="3" xlink:href="#font_5_22" transform="matrix(8.604877,0,0,-8.604877,18.641032,36.57073)"/>
<use data-text="2" xlink:href="#font_5_21" transform="matrix(8.604877,0,0,-8.604877,23.425343,36.57073)"/>
<use data-text="_" xlink:href="#font_5_66" transform="matrix(8.604877,0,0,-8.604877,28.209656,36.57073)"/>
<use data-text="t" xlink:href="#font_5_87" transform="matrix(8.604877,0,0,-8.604877,32.99397,36.57073)"/>
<use data-text="d" xlink:href="#font_6_71" transform="matrix(8.604877,0,0,-8.604877,53.78048,36.57073)"/>
<use data-text="e" xlink:href="#font_6_72" transform="matrix(8.604877,0,0,-8.604877,58.564794,36.57073)"/>
<use data-text="b" xlink:href="#font_6_69" transform="matrix(8.604877,0,0,-8.604877,63.349103,36.57073)"/>
<use data-text="o" xlink:href="#font_6_82" transform="matrix(8.604877,0,0,-8.604877,68.13341,36.57073)"/>
<use data-text="u" xlink:href="#font_6_88" transform="matrix(8.604877,0,0,-8.604877,72.91772,36.57073)"/>
<use data-text="n" xlink:href="#font_6_81" transform="matrix(8.604877,0,0,-8.604877,77.70203,36.57073)"/>
<use data-text="c" xlink:href="#font_6_70" transform="matrix(8.604877,0,0,-8.604877,82.486339,36.57073)"/>
<use data-text="e" xlink:href="#font_6_72" transform="matrix(8.604877,0,0,-8.604877,86.78878,36.57073)"/>
<use data-text="_" xlink:href="#font_6_66" transform="matrix(8.604877,0,0,-8.604877,91.57309,36.57073)"/>
<use data-text="t" xlink:href="#font_6_87" transform="matrix(8.604877,0,0,-8.604877,96.3574,36.57073)"/>
<use data-text="i" xlink:href="#font_6_76" transform="matrix(8.604877,0,0,-8.604877,98.74955,36.57073)"/>
<use data-text="m" xlink:href="#font_6_80" transform="matrix(8.604877,0,0,-8.604877,100.659839,36.57073)"/>
<use data-text="e" xlink:href="#font_6_72" transform="matrix(8.604877,0,0,-8.604877,107.8277,36.57073)"/>
<use data-text=";" xlink:href="#font_6_30" transform="matrix(8.604877,0,0,-8.604877,112.61201,36.57073)"/>
<use data-text="u" xlink:href="#font_5_88" transform="matrix(8.604877,0,0,-8.604877,2.8682924,49.478044)"/>
<use data-text="i" xlink:href="#font_5_76" transform="matrix(8.604877,0,0,-8.604877,8.125872,49.478044)"/>
<use data-text="n" xlink:href="#font_5_81" transform="matrix(8.604877,0,0,-8.604877,10.518028,49.478044)"/>
<use data-text="t" xlink:href="#font_5_87" transform="matrix(8.604877,0,0,-8.604877,15.775608,49.478044)"/>
<use data-text="3" xlink:href="#font_5_22" transform="matrix(8.604877,0,0,-8.604877,18.641032,49.478044)"/>
<use data-text="2" xlink:href="#font_5_21" transform="matrix(8.604877,0,0,-8.604877,23.425343,49.478044)"/>
<use data-text="_" xlink:href="#font_5_66" transform="matrix(8.604877,0,0,-8.604877,28.209656,49.478044)"/>
<use data-text="t" xlink:href="#font_5_87" transform="matrix(8.604877,0,0,-8.604877,32.99397,49.478044)"/>
<use data-text="n" xlink:href="#font_6_81" transform="matrix(8.604877,0,0,-8.604877,53.78048,49.478044)"/>
<use data-text="e" xlink:href="#font_6_72" transform="matrix(8.604877,0,0,-8.604877,58.564794,49.478044)"/>
<use data-text="x" xlink:href="#font_6_91" transform="matrix(8.604877,0,0,-8.604877,63.349103,49.478044)"/>
<use data-text="t" xlink:href="#font_6_87" transform="matrix(8.604877,0,0,-8.604877,67.651538,49.478044)"/>
<use data-text="_" xlink:href="#font_6_66" transform="matrix(8.604877,0,0,-8.604877,70.04369,49.478044)"/>
<use data-text="t" xlink:href="#font_6_87" transform="matrix(8.604877,0,0,-8.604877,74.828,49.478044)"/>
<use data-text="i" xlink:href="#font_6_76" transform="matrix(8.604877,0,0,-8.604877,77.22016,49.478044)"/>
<use data-text="m" xlink:href="#font_6_80" transform="matrix(8.604877,0,0,-8.604877,79.13044,49.478044)"/>
<use data-text="e" xlink:href="#font_6_72" transform="matrix(8.604877,0,0,-8.604877,86.29831,49.478044)"/>
<use data-text="o" xlink:href="#font_6_82" transform="matrix(8.604877,0,0,-8.604877,91.08262,49.478044)"/>
<use data-text="u" xlink:href="#font_6_88" transform="matrix(8.604877,0,0,-8.604877,95.86693,49.478044)"/>
<use data-text="t" xlink:href="#font_6_87" transform="matrix(8.604877,0,0,-8.604877,100.65124,49.478044)"/>
<use data-text=";" xlink:href="#font_6_30" transform="matrix(8.604877,0,0,-8.604877,103.04339,49.478044)"/>
<use data-text="u" xlink:href="#font_5_88" transform="matrix(8.604877,0,0,-8.604877,2.8682924,62.385358)"/>
<use data-text="i" xlink:href="#font_5_76" transform="matrix(8.604877,0,0,-8.604877,8.125872,62.385358)"/>
<use data-text="n" xlink:href="#font_5_81" transform="matrix(8.604877,0,0,-8.604877,10.518028,62.385358)"/>
<use data-text="t" xlink:href="#font_5_87" transform="matrix(8.604877,0,0,-8.604877,15.775608,62.385358)"/>
<use data-text="3" xlink:href="#font_5_22" transform="matrix(8.604877,0,0,-8.604877,18.641032,62.385358)"/>
<use data-text="2" xlink:href="#font_5_21" transform="matrix(8.604877,0,0,-8.604877,23.425343,62.385358)"/>
<use data-text="_" xlink:href="#font_5_66" transform="matrix(8.604877,0,0,-8.604877,28.209656,62.385358)"/>
<use data-text="t" xlink:href="#font_5_87" transform="matrix(8.604877,0,0,-8.604877,32.99397,62.385358)"/>
<use data-text="t" xlink:href="#font_6_87" transform="matrix(8.604877,0,0,-8.604877,53.78048,62.385358)"/>
<use data-text="i" xlink:href="#font_6_76" transform="matrix(8.604877,0,0,-8.604877,56.172636,62.385358)"/>
<use data-text="c" xlink:href="#font_6_70" transform="matrix(8.604877,0,0,-8.604877,58.08292,62.385358)"/>
<use data-text="k" xlink:href="#font_6_78" transform="matrix(8.604877,0,0,-8.604877,62.385358,62.385358)"/>
<use data-text="_" xlink:href="#font_6_66" transform="matrix(8.604877,0,0,-8.604877,66.6878,62.385358)"/>
<use data-text="p" xlink:href="#font_6_83" transform="matrix(8.604877,0,0,-8.604877,71.47211,62.385358)"/>
<use data-text="r" xlink:href="#font_6_85" transform="matrix(8.604877,0,0,-8.604877,76.25642,62.385358)"/>
<use data-text="e" xlink:href="#font_6_72" transform="matrix(8.604877,0,0,-8.604877,79.12184,62.385358)"/>
<use data-text="s" xlink:href="#font_6_86" transform="matrix(8.604877,0,0,-8.604877,83.90615,62.385358)"/>
<use data-text="s" xlink:href="#font_6_86" transform="matrix(8.604877,0,0,-8.604877,88.20859,62.385358)"/>
<use data-text="e" xlink:href="#font_6_72" transform="matrix(8.604877,0,0,-8.604877,92.511028,62.385358)"/>
<use data-text="d" xlink:href="#font_6_71" transform="matrix(8.604877,0,0,-8.604877,97.295337,62.385358)"/>
<use data-text=";" xlink:href="#font_6_30" transform="matrix(8.604877,0,0,-8.604877,102.07964,62.385358)"/>
<use data-text="u" xlink:href="#font_5_88" transform="matrix(8.604877,0,0,-8.604877,2.8682924,75.29267)"/>
<use data-text="i" xlink:href="#font_5_76" transform="matrix(8.604877,0,0,-8.604877,8.125872,75.29267)"/>
<use data-text="n" xlink:href="#font_5_81" transform="matrix(8.604877,0,0,-8.604877,10.518028,75.29267)"/>
<use data-text="t" xlink:href="#font_5_87" transform="matrix(8.604877,0,0,-8.604877,15.775608,75.29267)"/>
<use data-text="3" xlink:href="#font_5_22" transform="matrix(8.604877,0,0,-8.604877,18.641032,75.29267)"/>
<use data-text="2" xlink:href="#font_5_21" transform="matrix(8.604877,0,0,-8.604877,23.425343,75.29267)"/>
<use data-text="_" xlink:href="#font_5_66" transform="matrix(8.604877,0,0,-8.604877,28.209656,75.29267)"/>
<use data-text="t" xlink:href="#font_5_87" transform="matrix(8.604877,0,0,-8.604877,32.99397,75.29267)"/>
<use data-text="d" xlink:href="#font_6_71" transform="matrix(8.604877,0,0,-8.604877,53.78048,75.29267)"/>
<use data-text="u" xlink:href="#font_6_88" transform="matrix(8.604877,0,0,-8.604877,58.564794,75.29267)"/>
<use data-text="r" xlink:href="#font_6_85" transform="matrix(8.604877,0,0,-8.604877,63.349103,75.29267)"/>
<use data-text="a" xlink:href="#font_6_68" transform="matrix(8.604877,0,0,-8.604877,66.21452,75.29267)"/>
<use data-text="t" xlink:href="#font_6_87" transform="matrix(8.604877,0,0,-8.604877,70.99883,75.29267)"/>
<use data-text="i" xlink:href="#font_6_76" transform="matrix(8.604877,0,0,-8.604877,73.39099,75.29267)"/>
<use data-text="o" xlink:href="#font_6_82" transform="matrix(8.604877,0,0,-8.604877,75.30128,75.29267)"/>
<use data-text="n" xlink:href="#font_6_81" transform="matrix(8.604877,0,0,-8.604877,80.08559,75.29267)"/>
<use data-text=";" xlink:href="#font_6_30" transform="matrix(8.604877,0,0,-8.604877,84.869899,75.29267)"/>
<use data-text="u" xlink:href="#font_5_88" transform="matrix(8.604877,0,0,-8.604877,2.8682924,88.19999)"/>
<use data-text="i" xlink:href="#font_5_76" transform="matrix(8.604877,0,0,-8.604877,8.125872,88.19999)"/>
<use data-text="n" xlink:href="#font_5_81" transform="matrix(8.604877,0,0,-8.604877,10.518028,88.19999)"/>
<use data-text="t" xlink:href="#font_5_87" transform="matrix(8.604877,0,0,-8.604877,15.775608,88.19999)"/>
<use data-text="3" xlink:href="#font_5_22" transform="matrix(8.604877,0,0,-8.604877,18.641032,88.19999)"/>
<use data-text="2" xlink:href="#font_5_21" transform="matrix(8.604877,0,0,-8.604877,23.425343,88.19999)"/>
<use data-text="_" xlink:href="#font_5_66" transform="matrix(8.604877,0,0,-8.604877,28.209656,88.19999)"/>
<use data-text="t" xlink:href="#font_5_87" transform="matrix(8.604877,0,0,-8.604877,32.99397,88.19999)"/>
<use data-text="b" xlink:href="#font_6_69" transform="matrix(8.604877,0,0,-8.604877,53.78048,88.19999)"/>
<use data-text="u" xlink:href="#font_6_88" transform="matrix(8.604877,0,0,-8.604877,58.564794,88.19999)"/>
<use data-text="t" xlink:href="#font_6_87" transform="matrix(8.604877,0,0,-8.604877,63.349103,88.19999)"/>
<use data-text="t" xlink:href="#font_6_87" transform="matrix(8.604877,0,0,-8.604877,65.74126,88.19999)"/>
<use data-text="o" xlink:href="#font_6_82" transform="matrix(8.604877,0,0,-8.604877,68.13341,88.19999)"/>
<use data-text="n" xlink:href="#font_6_81" transform="matrix(8.604877,0,0,-8.604877,72.91772,88.19999)"/>
<use data-text="_" xlink:href="#font_6_66" transform="matrix(8.604877,0,0,-8.604877,77.70203,88.19999)"/>
<use data-text="i" xlink:href="#font_6_76" transform="matrix(8.604877,0,0,-8.604877,82.486339,88.19999)"/>
<use data-text="d" xlink:href="#font_6_71" transform="matrix(8.604877,0,0,-8.604877,84.39662,88.19999)"/>
<use data-text=";" xlink:href="#font_6_30" transform="matrix(8.604877,0,0,-8.604877,89.18093,88.19999)"/>
</g>
</g>
</svg>
