<svg xmlns="http://www.w3.org/2000/svg" xmlns:xlink="http://www.w3.org/1999/xlink" xmlns:inkscape="http://www.inkscape.org/namespaces/inkscape" version="1.1" width="288.96" height="106.079998" viewBox="0 0 288.96 106.079998">
<defs>
<clipPath id="clip_1">
<path transform="matrix(.24,0,0,.24,0,0)" d="M0 0H1202.9785V441.01564H0Z" clip-rule="evenodd"/>
</clipPath>
<clipPath id="clip_2">
<path transform="matrix(.24,0,0,.24,0,0)" d="M78.125 28.125H1125V412.5H78.125Z" clip-rule="evenodd"/>
</clipPath>
<path id="font_3_73" d="M.01171875 .5185547H.087890628V.55770877C.087890628 .60143026 .0925293 .63405868 .10180664 .6555939 .111083988 .6771291 .12817383 .69466659 .15307617 .7082062 .17797852 .7217458 .20947266 .7285156 .2475586 .7285156 .2866211 .7285156 .32486979 .72265627 .3623047 .7109375L.34375 .6152344C.3219401 .6204427 .300944 .6230469 .28076173 .6230469 .26090495 .6230469 .2466634 .61838278 .23803711 .60905459 .22941081 .5997365 .22509766 .5818329 .22509766 .5553436V.5185547H.32763673V.41015626H.22509766V0H.087890628V.41015626H.01171875V.5185547Z"/>
<path id="font_3_86" d="M.0234375 .14746094 .16113281 .16894531C.16699219 .14241536 .1788737 .122273769 .19677735 .10852051 .21468099 .09476725 .2397461 .087890628 .27197267 .087890628 .30745445 .087890628 .33414714 .09439087 .35205079 .10739136 .36409507 .116495769 .3701172 .12868755 .3701172 .14396668 .3701172 .15437317 .36686198 .1629893 .36035157 .16981507 .35351563 .17631531 .33821617 .18232727 .31445313 .18785095 .20377605 .21222432 .1336263 .23449199 .104003909 .25465394 .06298828 .2826284 .04248047 .32149253 .04248047 .37124635 .04248047 .41612754 .060221357 .45385234 .095703128 .48442079 .13118489 .5149892 .18619792 .53027346 .2607422 .53027346 .33170573 .53027346 .3844401 .5187581 .4189453 .49572755 .45345054 .47269694 .47721354 .4386393 .49023438 .3935547L.36083985 .36914063C.355306 .3893229 .34480796 .40478517 .3293457 .41552735 .31388346 .42626954 .29182945 .43164063 .2631836 .43164063 .22705078 .43164063 .20117188 .42660014 .18554688 .41651917 .1751302 .40937806 .16992188 .40011598 .16992188 .3887329 .16992188 .37898765 .17447917 .37070213 .18359375 .36387635 .19596355 .35477195 .23868816 .3419291 .31176759 .3253479 .38484703 .3087667 .4358724 .28842674 .46484376 .264328 .4934896 .2398936 .5078125 .20585633 .5078125 .16221619 .5078125 .11465963 .48795573 .073781337 .4482422 .0395813 .40852867 .005381266 .34977214-.01171875 .27197267-.01171875 .20133464-.01171875 .14542644 .0025583904 .10424805 .03111267 .063069667 .059677125 .036132814 .09845988 .0234375 .14746094Z"/>
<path id="font_3_80" d="M.061523439 .5185547H.18798828V.4477539C.23323567 .5027669 .28710938 .53027346 .34960938 .53027346 .3828125 .53027346 .4116211 .523407 .43603517 .5096741 .46044923 .49594117 .48046876 .47517396 .49609376 .44737245 .5188802 .47517396 .54345706 .49594117 .5698242 .5096741 .5961914 .523407 .62434896 .53027346 .6542969 .53027346 .6923828 .53027346 .7246094 .5225423 .75097659 .5070801 .77734377 .49161784 .7970378 .46891276 .8100586 .43896485 .8194987 .41682945 .82421877 .38102214 .82421877 .33154298V0H.6870117V.29605104C.6870117 .34742228 .6822917 .38058473 .67285159 .39553834 .66015627 .41504923 .640625 .4248047 .6142578 .4248047 .59505209 .4248047 .57698568 .4189504 .5600586 .40724183 .54313156 .39554344 .5309245 .37839256 .5234375 .35578919 .5159505 .333196 .51220706 .29751078 .51220706 .24873352V0H.375V.28385926C.375 .33425395 .3725586 .36676536 .36767579 .38139344 .36279298 .3960317 .3552246 .40692649 .3449707 .41407777 .3347168 .42122904 .32080079 .4248047 .30322267 .4248047 .2820638 .4248047 .26302085 .41911317 .24609375 .4077301 .22916667 .3963572 .21704102 .37993876 .2097168 .35847474 .20239258 .3370107 .19873047 .30140687 .19873047 .2516632V0H.061523439V.5185547Z"/>
<path id="font_3_66" d="M-.009277344-.19824219V-.10839844H.56103518V-.19824219H-.009277344Z"/>
<path id="font_3_88" d="M.41308595 0V.07763672C.39420573 .04996745 .36938478 .028157553 .33862306 .012207031 .30786134-.0037434896 .27539063-.01171875 .24121094-.01171875 .2063802-.01171875 .1751302-.0040690104 .14746094 .011230469 .119791667 .026529948 .09977213 .048014326 .087402347 .075683597 .075032558 .10335287 .068847659 .14160156 .068847659 .19042969V.5185547H.20605469V.28082276C.20605469 .20806885 .20857747 .16349285 .21362305 .14709473 .21866863 .13069661 .22786458 .1177063 .24121094 .10812378 .25455729 .09854126 .27148438 .09375 .2919922 .09375 .3154297 .09375 .33642579 .10016378 .35498048 .11299133 .37353517 .1258189 .38623048 .14173381 .3930664 .16073609 .39990235 .17973836 .4033203 .2262624 .4033203 .30030824V.5185547H.54052737V0H.41308595Z"/>
<path id="font_3_79" d="M.071777347 0V.7158203H.20898438V0H.071777347Z"/>
<path id="font_3_87" d="M.3095703 .5185547V.4091797H.21582031V.200531C.21582031 .15827434 .2167155 .13365174 .21850586 .12666321 .22029622 .11968485 .22436524 .11391703 .23071289 .10935974 .23706055 .10481262 .24479167 .10253906 .25390626 .10253906 .26660157 .10253906 .2849935 .106933597 .30908204 .115722659L.32080079 .008880615C.28889976-.004852295 .25276695-.01171875 .21240235-.01171875 .18766277-.01171875 .16536458-.0075683596 .14550781 .0007324219 .12565105 .009033203 .111083988 .01977539 .10180664 .032958986 .0925293 .046142579 .08610026 .063964847 .08251953 .08642578 .079589847 .102376308 .078125 .13460286 .078125 .18310547V.4091797H.015136719V.5185547H.078125V.6220703L.21582031 .703125V.5185547H.3095703Z"/>
<path id="font_3_85" d="M.203125 0H.06591797V.5185547H.19335938V.44482423C.21516927 .47965495 .2347819 .5026042 .25219728 .5136719 .26961265 .52473959 .28938804 .53027346 .31152345 .53027346 .34277345 .53027346 .37288413 .52164718 .40185548 .50439456L.359375 .38476563C.33626304 .3997396 .31477867 .40722657 .29492188 .40722657 .27571617 .40722657 .2594401 .40193687 .24609375 .39135743 .23274739 .38077799 .22224935 .36165367 .21459961 .33398438 .20694988 .3063151 .203125 .24837239 .203125 .16015625V0Z"/>
<path id="font_3_68" d="M.1743164 .35839845 .049804689 .38085938C.063802089 .4316508 .087890628 .46924845 .12207031 .49365235 .15625 .5180664 .20703125 .53027346 .27441407 .53027346 .33561198 .53027346 .3811849 .5230306 .4111328 .5085449 .44108073 .49405924 .4621582 .47566734 .47436524 .45336915 .48657228 .43107096 .49267579 .39013673 .49267579 .3305664L.49121095 .17041016C.49121095 .12483724 .4934082 .09122721 .49780274 .06958008 .50219729 .04793294 .5104167 .024739584 .52246096 0H.38671876C.38313804 .009114583 .3787435 .022623698 .37353517 .040527345 .3712565 .048665365 .3696289 .054036458 .36865235 .056640626 .34521485 .033854169 .32014976 .016764323 .29345704 .0053710939 .2667643-.0060221354 .23828125-.01171875 .20800781-.01171875 .15462239-.01171875 .11254883 .0027058919 .08178711 .031555177 .05102539 .06040446 .03564453 .09687296 .03564453 .1409607 .03564453 .1701355 .04264323 .19614665 .056640626 .21899414 .07063802 .2418518 .09025065 .25935874 .115478519 .2715149 .14070638 .28367106 .17708333 .2942861 .22460938 .30336 .28873698 .3153534 .33317057 .3265381 .35791017 .33691407V.35073854C.35791017 .37740074 .35139976 .39640809 .3383789 .40776063 .32535807 .41912333 .30078126 .4248047 .26464845 .4248047 .24023438 .4248047 .2211914 .41989137 .20751953 .4100647 .19384766 .4002482 .18277996 .38302613 .1743164 .35839845M.35791017 .24707031C.34033204 .24128215 .3125 .23436482 .27441407 .22631836 .23632813 .21828206 .21142578 .21040344 .19970703 .2026825 .18180339 .19013977 .17285156 .17421977 .17285156 .15492249 .17285156 .13594055 .18001302 .119532268 .19433594 .10569763 .20865886 .09187317 .22688802 .08496094 .24902344 .08496094 .27376304 .08496094 .29736329 .09300232 .31982423 .10908508 .33642579 .121302288 .34733073 .13626099 .35253907 .15396118 .35611979 .16553752 .35791017 .18756612 .35791017 .220047V.24707031Z"/>
<path id="font_3_82" d="M.040039064 .26660157C.040039064 .31217448 .05126953 .35628257 .07373047 .39892579 .096191409 .441569 .12801107 .4741211 .16918946 .49658204 .21036785 .51904299 .25634767 .53027346 .3071289 .53027346 .38557945 .53027346 .44986979 .50480148 .5 .45385743 .5501302 .40291343 .5751953 .33854167 .5751953 .2607422 .5751953 .18229167 .54988607 .11726888 .49926759 .06567383 .44864909 .014078776 .38492839-.01171875 .30810548-.01171875 .26057945-.01171875 .21525066-.0009765625 .17211914 .020507813 .12898763 .041992189 .096191409 .07348633 .07373047 .114990238 .05126953 .15649414 .040039064 .20703125 .040039064 .26660157M.18066406 .25927735C.18066406 .20800781 .1928711 .16874187 .21728516 .14147949 .24169922 .114217128 .2718099 .10058594 .3076172 .10058594 .34342448 .10058594 .37345378 .114217128 .39770509 .14147949 .4219564 .16874187 .43408204 .20833333 .43408204 .2602539 .43408204 .3108724 .4219564 .34981285 .39770509 .3770752 .37345378 .40433757 .34342448 .41796876 .3076172 .41796876 .2718099 .41796876 .24169922 .40433757 .21728516 .3770752 .1928711 .34981285 .18066406 .31054688 .18066406 .25927735Z"/>
<path id="font_3_81" d="M.54345706 0H.40625V.26434327C.40625 .32027183 .4033203 .3564453 .39746095 .37286378 .39160157 .38928224 .38208009 .40204368 .36889649 .41114808 .3557129 .42025248 .33984376 .4248047 .32128907 .4248047 .29752604 .4248047 .27620445 .41829936 .25732423 .4052887 .23844402 .3922882 .22550456 .37505595 .21850586 .35359193 .21150716 .33213807 .20800781 .2924703 .20800781 .23458863V0H.07080078V.5185547H.19824219V.4423828C.24348958 .50097659 .30045573 .53027346 .36914063 .53027346 .39941407 .53027346 .42708335 .524821 .45214845 .513916 .47721354 .50301107 .49617515 .48909507 .5090332 .47216798 .5218913 .45524089 .5308431 .43603517 .5358887 .41455079 .54093429 .3930664 .54345706 .3623047 .54345706 .32226563V0Z"/>
<path id="font_3_71" d="M.5473633 0H.41992188V.076171878C.39876304 .04654948 .3737793 .024495444 .3449707 .010009766 .3161621-.0044759118 .28710938-.01171875 .2578125-.01171875 .19824219-.01171875 .1472168 .012288411 .10473633 .060302736 .06225586 .108317058 .041015626 .17529297 .041015626 .26123048 .041015626 .3491211 .0616862 .41593424 .103027347 .46166993 .14436849 .5074056 .19661458 .53027346 .25976563 .53027346 .31770835 .53027346 .36783854 .5061849 .41015626 .4580078V.7158203H.5473633V0M.18115235 .2702484C.18115235 .21499126 .18880208 .17501323 .20410156 .15031433 .22623699 .1145579 .25716148 .09667969 .296875 .09667969 .32845054 .09667969 .355306 .110087078 .3774414 .13690186 .3995768 .16371663 .41064454 .20377605 .41064454 .25708009 .41064454 .316569 .39990235 .35939536 .37841798 .38555909 .3569336 .4117228 .3294271 .4248047 .29589845 .4248047 .26334635 .4248047 .23608399 .4118856 .21411133 .38604737 .19213867 .36020915 .18115235 .3216095 .18115235 .2702484Z"/>
<clipPath id="clip_4">
<path transform="matrix(.24,0,0,.24,0,0)" d="M87.74841 87.10104H170.87557V123.46918H87.74841Z" clip-rule="evenodd"/>
</clipPath>
<clipPath id="clip_5">
<path transform="matrix(.24,0,0,.24,0,0)" d="M78.125 28.125H1125V412.5H78.125Z" clip-rule="evenodd"/>
</clipPath>
<clipPath id="clip_6">
<path transform="matrix(.24,0,0,.24,0,0)" d="M248.80724 87.10104H266.99134V123.46918H248.80724Z" clip-rule="evenodd"/>
</clipPath>
<path id="font_7_73" d="M.08691406 0V.4501953H.009277344V.5185547H.08691406V.5736084C.08691406 .6083577 .09000651 .6341756 .096191409 .651062 .104654949 .6737874 .11954752 .69221499 .14086914 .7063446 .16219075 .72047427 .1920573 .72753909 .23046875 .72753909 .25520835 .72753909 .2825521 .7246094 .3125 .71875L.2993164 .64208987C.28108726 .64534506 .26383464 .64697268 .2475586 .64697268 .22086589 .64697268 .20198567 .6412964 .19091797 .62994387 .17985027 .6185913 .1743164 .5973511 .1743164 .56622317V.5185547H.27539063V.4501953H.1743164V0H.08691406Z"/>
<path id="font_7_30" d="M.08886719 .41796876V.5185547H.18896485V.41796876H.08886719M.08886719 0V.10058594H.18896485V.000289917C.18896485-.036575319 .18245442-.066340129 .1694336-.08900452 .15641277-.11167908 .13574219-.12921143 .107421878-.14160156L.08300781-.103515628C.1015625-.0954183 .115234378-.08351135 .12402344-.0677948 .1328125-.052078248 .13769531-.02947998 .13867188 0H.08886719Z"/>
<clipPath id="clip_8">
<path transform="matrix(.24,0,0,.24,0,0)" d="M78.125 28.125H1125V412.5H78.125Z" clip-rule="evenodd"/>
</clipPath>
<clipPath id="clip_9">
<path transform="matrix(.24,0,0,.24,0,0)" d="M87.74841 133.86008H207.24367V172.8259H87.74841Z" clip-rule="evenodd"/>
</clipPath>
<path id="font_3_76" d="M.071777347 .5888672V.7158203H.20898438V.5888672H.071777347M.071777347 0V.5185547H.20898438V0H.071777347Z"/>
<path id="font_3_22" d="M.037597658 .1899414 .17041016 .20605469C.17464192 .17220052 .18603516 .14632161 .20458985 .12841797 .22314453 .11051432 .24560547 .1015625 .27197267 .1015625 .30029298 .1015625 .32413737 .11230469 .34350587 .13378906 .36287437 .15527344 .3725586 .1842448 .3725586 .22070313 .3725586 .25520835 .36328126 .2825521 .34472657 .30273438 .32617188 .32291667 .3035482 .3330078 .27685548 .3330078 .25927735 .3330078 .23828125 .32958985 .21386719 .3227539L.2290039 .43359376C.26611329 .4326172 .2944336 .4406484 .31396485 .45768739 .3334961 .47473655 .34326173 .49738059 .34326173 .5256195 .34326173 .54963687 .33610026 .5687866 .32177735 .58306887 .30745445 .5973511 .28841148 .6044922 .26464845 .6044922 .24121094 .6044922 .2211914 .5963542 .20458985 .5800781 .18798828 .56380209 .17789714 .54003909 .1743164 .50878909L.047851564 .53027346C.056640626 .5739034 .0699056 .6087596 .087646488 .6348419 .10538737 .66092428 .13012696 .681427 .16186524 .6963501 .19360352 .7112834 .22916667 .71875 .2685547 .71875 .3359375 .71875 .38997398 .6972351 .43066407 .6542053 .46419273 .61898806 .48095704 .57921347 .48095704 .5348816 .48095704 .4719645 .4466146 .42175804 .3779297 .38426209 .4189453 .37547303 .45174156 .35577903 .47631837 .32518006 .5008952 .2945811 .5131836 .2576345 .5131836 .21434021 .5131836 .15152486 .49023438 .09798177 .44433595 .053710939 .3984375 .0094401049 .3413086-.0126953129 .27294923-.0126953129 .20817058-.0126953129 .15445964 .0059865319 .111816409 .04335022 .06917318 .080713909 .044433595 .12957764 .037597658 .1899414Z"/>
<path id="font_3_21" d="M.5058594 .12792969V0H.024902344C.030110678 .048136396 .045735677 .09375 .071777347 .13684082 .09781901 .17994182 .1492513 .2371114 .22607422 .3083496 .2879232 .36591593 .32584635 .40494285 .33984376 .4254303 .35872398 .45373027 .36816407 .4817047 .36816407 .50935366 .36816407 .53993228 .35994468 .5634308 .34350587 .57984927 .32706706 .5962779 .30436198 .6044922 .27539063 .6044922 .2467448 .6044922 .22395833 .5958252 .20703125 .5784912 .19010417 .5611674 .18033855 .5323995 .17773438 .4921875L.041015626 .5059204C.049153646 .5817668 .07470703 .63619998 .11767578 .66922 .16064453 .70224 .21435547 .71875 .2788086 .71875 .34944663 .71875 .4049479 .6997223 .4453125 .66166689 .4856771 .62361147 .5058594 .5762889 .5058594 .5196991 .5058594 .4874929 .50008139 .4568329 .4885254 .42771913 .4769694 .3986155 .45865885 .36812846 .43359376 .33625794 .4169922 .31510926 .38704429 .2846934 .34375 .24501038 .30045573 .20533753 .2730306 .17899578 .2614746 .1659851 .24991863 .15297444 .24055989 .1402893 .23339844 .12792969H.5058594Z"/>
<clipPath id="clip_10">
<path transform="matrix(.24,0,0,.24,0,0)" d="M78.125 28.125H1125V412.5H78.125Z" clip-rule="evenodd"/>
</clipPath>
<clipPath id="clip_11">
<path transform="matrix(.24,0,0,.24,0,0)" d="M248.80724 133.86008H433.2456V172.8259H248.80724Z" clip-rule="evenodd"/>
</clipPath>
<path id="font_7_71" d="M.40234376 0V.06542969C.36946617 .0139973959 .3211263-.01171875 .25732423-.01171875 .21598308-.01171875 .17797852-.00032552085 .14331055 .022460938 .10864258 .045247396 .08178711 .077067058 .06274414 .11791992 .043701173 .15877278 .034179689 .20572917 .034179689 .25878907 .034179689 .31054688 .04280599 .35750328 .060058595 .3996582 .077311199 .44181315 .1031901 .4741211 .13769531 .49658204 .17220052 .51904299 .21077474 .53027346 .25341798 .53027346 .28466798 .53027346 .3125 .52368167 .33691407 .51049807 .36132813 .49731446 .3811849 .48014323 .39648438 .45898438V.7158203H.48388673V0H.40234376M.12451172 .2590332C.12451172 .1928711 .13850911 .14341228 .1665039 .11065674 .1944987 .07790121 .22753906 .061523439 .265625 .061523439 .30403648 .061523439 .33666993 .077168788 .3635254 .10845947 .39038087 .13976033 .4038086 .18752034 .4038086 .2517395 .4038086 .32243858 .39013673 .3743286 .36279298 .40740968 .33544923 .44049073 .3017578 .45703126 .26171876 .45703126 .22265625 .45703126 .19002278 .4411367 .16381836 .40934754 .13761394 .37756858 .12451172 .32746379 .12451172 .2590332Z"/>
<path id="font_7_76" d="M.06640625 .6142578V.7158203H.15429688V.6142578H.06640625M.06640625 0V.5185547H.15429688V0H.06640625Z"/>
<path id="font_7_86" d="M.030761719 .15527344 .11767578 .16894531C.122558597 .13426717 .1361491 .107691448 .15844727 .08921814 .18074544 .070755008 .21191406 .061523439 .25195313 .061523439 .29231773 .061523439 .32226563 .06967672 .34179688 .08598328 .36132813 .10230001 .37109376 .12143453 .37109376 .14338684 .37109376 .16309102 .36246745 .17859395 .34521485 .18989563 .33317057 .1976471 .30322267 .20749919 .2553711 .2194519 .19091797 .23573812 .14624024 .24982707 .12133789 .26171876 .09643555 .27361045 .077555339 .29006449 .064697269 .31108094 .05183919 .33209739 .045410158 .35531108 .045410158 .38072206 .045410158 .40385438 .05069987 .4252777 .061279298 .44499208 .07185873 .46470643 .08626302 .4810791 .10449219 .4941101 .11816406 .5042114 .13680013 .5127614 .16040039 .51976016 .18400066 .526769 .20930989 .53027346 .23632813 .53027346 .27701823 .53027346 .31274415 .52437338 .34350587 .51257327 .37426759 .50078329 .39697267 .48480735 .4116211 .4646454 .42626954 .44449363 .4363607 .4175415 .44189454 .38378907L.35595704 .3720703C.35205079 .39876304 .34073893 .41959635 .32202149 .4345703 .30330406 .44954429 .27685548 .45703126 .24267578 .45703126 .2023112 .45703126 .17350261 .45038859 .15625 .43710328 .13899739 .42382813 .1303711 .40827943 .1303711 .39045716 .1303711 .37912498 .13395183 .3689219 .14111328 .35984803 .14827474 .35045878 .1595052 .34268699 .17480469 .3365326 .18359375 .33328758 .20947266 .32583619 .2524414 .31417848 .31461589 .29758708 .35799156 .28400675 .38256837 .2734375 .40714518 .26286827 .42643229 .24749756 .4404297 .22732544 .4544271 .2071635 .46142579 .18212383 .46142579 .15220642 .46142579 .12292989 .45288087 .09536234 .43579103 .069503787 .41870118 .043655397 .39404298 .02365621 .3618164 .009506226 .32958985-.0046437585 .2931315-.01171875 .2524414-.01171875 .1850586-.01171875 .13370769 .002319336 .09838867 .030395508 .063069667 .05847168 .040527345 .100097659 .030761719 .15527344Z"/>
<path id="font_7_87" d="M.2578125 .07763672 .2705078 0C.24576824-.0045572917 .22363281-.0068359377 .20410156-.0068359377 .17220052-.0068359377 .14746094-.0017903646 .12988281 .008300781 .11230469 .018391928 .0999349 .031656904 .09277344 .048095704 .08561198 .06453451 .08203125 .099121097 .08203125 .15185547V.4501953H.017578125V.5185547H.08203125V.6473236L.1694336 .7001953V.5185547H.2578125V.4501953H.1694336V.14697266C.1694336 .121907558 .17097982 .10579427 .17407227 .09863281 .17716472 .09147135 .18221028 .08577474 .18920899 .08154297 .19620769 .077311199 .20621746 .07519531 .21923828 .07519531 .2290039 .07519531 .24186199 .07600912 .2578125 .07763672Z"/>
<path id="font_7_68" d="M.40429688 .06402588C.37174479 .03633626 .34041343 .016789755 .31030274 .0053863527 .28019206-.0060170495 .24788411-.01171875 .2133789-.01171875 .15641277-.01171875 .11263021 .0022074383 .08203125 .030059815 .051432294 .05791219 .036132814 .09350077 .036132814 .13682556 .036132814 .16222637 .04191081 .18542989 .053466798 .20643616 .06502279 .22745259 .08015951 .24431356 .09887695 .25701905 .1175944 .26972453 .13867188 .2793325 .16210938 .2858429 .17936199 .29041038 .20540364 .29480998 .24023438 .29904176 .3111979 .30744425 .363444 .3174642 .39697267 .32910157 .3972982 .34109498 .39746095 .3487142 .39746095 .35195924 .39746095 .38763429 .38916017 .4127655 .3725586 .4273529 .35009767 .44713847 .31673179 .45703126 .27246095 .45703126 .2311198 .45703126 .20060222 .44978843 .1809082 .43530274 .16121419 .42081706 .14664714 .39518229 .13720703 .35839845L.05126953 .3701172C.05908203 .40701295 .0719401 .43680827 .08984375 .45950318 .1077474 .4821981 .1336263 .4996643 .16748047 .51190188 .20133464 .5241496 .24055989 .53027346 .28515626 .53027346 .3294271 .53027346 .36539714 .5250651 .3930664 .51464846 .4207357 .50423178 .44108073 .49112956 .45410157 .4753418 .4671224 .45955406 .47623698 .43961589 .4814453 .41552735 .484375 .40055339 .48583985 .37353517 .48583985 .33447267V.21728516C.48583985 .13557942 .48771159 .08390299 .49145509 .06225586 .49519859 .040608724 .5026042 .019856772 .5136719 0H.421875C.4127604 .018249512 .40690104 .039591474 .40429688 .06402588M.39697267 .2607422C.36507163 .24760945 .31722007 .2364502 .25341798 .2272644 .21728516 .22203572 .19173177 .21615093 .17675781 .20960999 .16178386 .20307923 .15022786 .19351705 .14208985 .18092346 .13395183 .16834004 .12988281 .15436809 .12988281 .13900757 .12988281 .115478519 .13875325 .09586588 .15649414 .08016968 .17423503 .06448364 .20019531 .056640626 .234375 .056640626 .26822917 .056640626 .29833985 .064081829 .32470704 .07896423 .35107423 .09384664 .37044273 .11420695 .3828125 .14004517 .3922526 .16000366 .39697267 .18944295 .39697267 .22836304V.2607422Z"/>
<path id="font_7_81" d="M.06591797 0V.5185547H.14501953V.4453125C.18310547 .5019531 .23811849 .53027346 .3100586 .53027346 .3413086 .53027346 .3700358 .5246582 .39624024 .51342776 .42244468 .50219729 .44205729 .48746745 .45507813 .46923829 .46809898 .45100913 .47721354 .42936198 .48242188 .40429688 .4856771 .38802085 .4873047 .35953776 .4873047 .31884767V0H.39941407V.31576539C.39941407 .35161338 .3959961 .37841798 .38916017 .3961792 .38232423 .41394044 .37019859 .42811585 .3527832 .43870545 .33536784 .44929505 .3149414 .45458985 .2915039 .45458985 .254069 .45458985 .22176107 .44269309 .19458008 .41889955 .1673991 .39511619 .1538086 .34998576 .1538086 .2835083V0H.06591797Z"/>
<path id="font_7_70" d="M.40429688 .19042969 .49072267 .17919922C.48128257 .11947632 .45711265 .07272339 .4182129 .03894043 .37931315 .005167643 .33154298-.01171875 .27490235-.01171875 .2039388-.01171875 .14689128 .011474609 .103759769 .057861329 .060628255 .10424805 .0390625 .17073567 .0390625 .25732423 .0390625 .3133138 .048339845 .3623047 .06689453 .40429688 .08544922 .44628907 .11368815 .4777832 .15161133 .4987793 .1895345 .5197754 .23079427 .53027346 .27539063 .53027346 .33170573 .53027346 .37776695 .51598617 .41357423 .4874115 .4493815 .45884706 .47233073 .4182841 .48242188 .36572267L.39697267 .35253907C.38883464 .38720704 .37443034 .4132894 .35375978 .43078614 .3330892 .44828288 .30810548 .45703126 .2788086 .45703126 .23453777 .45703126 .1985677 .4412384 .17089844 .4096527 .14322917 .37807719 .12939453 .32811485 .12939453 .25976563 .12939453 .19043987 .14274089 .1400655 .1694336 .10864258 .1961263 .07722982 .23095703 .061523439 .27392579 .061523439 .308431 .061523439 .3372396 .07206217 .36035157 .09313965 .38346354 .114217128 .39811198 .14664714 .40429688 .19042969Z"/>
<path id="font_7_72" d="M.42089845 .16699219 .51171877 .15576172C.49739585 .10270182 .47086589 .061523439 .4321289 .032226564 .39339195 .0029296876 .34391276-.01171875 .2836914-.01171875 .20784505-.01171875 .14770508 .01163737 .103271488 .05834961 .05883789 .10506185 .036621095 .17057292 .036621095 .2548828 .036621095 .3421224 .05908203 .40983073 .104003909 .4580078 .14892578 .5061849 .20719402 .53027346 .2788086 .53027346 .34814454 .53027346 .40478517 .5067088 .44873048 .45957948 .49267579 .41246034 .51464846 .34616599 .51464846 .2606964 .51464846 .25549827 .51448568 .247701 .51416018 .23730469H.1274414C.13069661 .1805013 .14680989 .13700359 .17578125 .10681152 .20475261 .07661947 .24088542 .061523439 .2841797 .061523439 .31640626 .061523439 .34391276 .0699056 .36669923 .08666992 .3894857 .10344442 .4075521 .1302185 .42089845 .16699219M.13232422 .31054688H.421875C.41796876 .3534546 .40690104 .38563539 .38867188 .40708924 .3606771 .4403839 .3243815 .45703126 .27978517 .45703126 .23942058 .45703126 .20548503 .44374085 .17797852 .41716004 .150472 .3905894 .1352539 .35505168 .13232422 .31054688Z"/>
<path id="font_7_66" d="M-.015136719-.19921875V-.13574219H.5673828V-.19921875H-.015136719Z"/>
<path id="font_7_80" d="M.06591797 0V.5185547H.14453125V.44628907C.1608073 .47153727 .18245442 .4918467 .20947266 .5072174 .23649089 .5225881 .2672526 .53027346 .3017578 .53027346 .34016929 .53027346 .37166343 .52233889 .39624024 .5064697 .42081706 .49061076 .43815104 .46843467 .4482422 .4399414 .4892578 .5001628 .54264327 .53027346 .60839846 .53027346 .65983077 .53027346 .69938156 .5160319 .7270508 .48754884 .75472006 .45906578 .7685547 .4152018 .7685547 .35595704V0H.68115237V.3270111C.68115237 .36220805 .678304 .38754273 .6726074 .40301515 .6669108 .4184977 .6565755 .43096415 .64160159 .44041444 .6266276 .44986473 .6090495 .45458985 .5888672 .45458985 .5524089 .45458985 .52213546 .44244895 .49804688 .4181671 .47395835 .39389549 .46191407 .3550364 .46191407 .30158998V0H.37402345V.33728028C.37402345 .37638346 .36686198 .40571086 .35253907 .42526246 .33821617 .44481407 .31477867 .45458985 .28222657 .45458985 .25748698 .45458985 .23461914 .44806925 .21362305 .43502809 .19262696 .42199708 .17740886 .40293376 .16796875 .37783814 .15852864 .3527527 .1538086 .31658427 .1538086 .2693329V0H.06591797Z"/>
<clipPath id="clip_12">
<path transform="matrix(.24,0,0,.24,0,0)" d="M78.125 28.125H1125V412.5H78.125Z" clip-rule="evenodd"/>
</clipPath>
<clipPath id="clip_13">
<path transform="matrix(.24,0,0,.24,0,0)" d="M87.74841 183.2168H152.69149V222.18265H87.74841Z" clip-rule="evenodd"/>
</clipPath>
<path id="font_3_69" d="M.06591797 0V.7158203H.203125V.4580078C.2454427 .5061849 .2955729 .53027346 .35351563 .53027346 .41666667 .53027346 .46891276 .5074056 .5102539 .46166993 .55159506 .41593424 .5722656 .3502604 .5722656 .26464845 .5722656 .17610677 .5511882 .107910159 .5090332 .060058595 .46687828 .012207031 .4156901-.01171875 .35546876-.01171875 .32584635-.01171875 .29663087-.004313151 .26782228 .010498047 .23901367 .025309245 .2141927 .04720052 .19335938 .076171878V0H.06591797M.20214844 .2702484C.20214844 .21661885 .21061199 .17696636 .22753906 .1512909 .2513021 .11488342 .2828776 .09667969 .32226563 .09667969 .35253907 .09667969 .37833659 .10959879 .3996582 .13543701 .42097984 .16127523 .43164063 .20198567 .43164063 .25756837 .43164063 .31673179 .42089845 .35939536 .39941407 .38555909 .3779297 .4117228 .3504232 .4248047 .31689454 .4248047 .28401695 .4248047 .2566732 .41204325 .23486328 .3865204 .21305339 .3610077 .20214844 .32225038 .20214844 .2702484Z"/>
<clipPath id="clip_14">
<path transform="matrix(.24,0,0,.24,0,0)" d="M78.125 28.125H1125V412.5H78.125Z" clip-rule="evenodd"/>
</clipPath>
<clipPath id="clip_15">
<path transform="matrix(.24,0,0,.24,0,0)" d="M248.80724 183.2168H339.72755V222.18265H248.80724Z" clip-rule="evenodd"/>
</clipPath>
<path id="font_7_88" d="M.40576173 0V.076171878C.36539714 .017578125 .31054688-.01171875 .24121094-.01171875 .21061199-.01171875 .18204753-.005859375 .15551758 .005859375 .12898763 .017578125 .10929362 .03230794 .09643555 .050048829 .08357748 .06778971 .07454427 .08951823 .06933594 .115234378 .06575521 .13248699 .063964847 .15983074 .063964847 .19726563V.5185547H.15185547V.23095703C.15185547 .1850586 .15364583 .15413411 .15722656 .1381836 .16276042 .11507162 .17447917 .09692383 .19238281 .083740238 .21028646 .07055664 .23242188 .063964847 .25878907 .063964847 .28515626 .063964847 .30989585 .0707194 .3330078 .084228519 .35611979 .09773763 .3724772 .116129558 .38208009 .1394043 .39168296 .16267903 .39648438 .19645183 .39648438 .24072266V.5185547H.484375V0H.40576173Z"/>
<clipPath id="clip_16">
<path transform="matrix(.24,0,0,.24,0,0)" d="M78.125 28.125H1125V412.5H78.125Z" clip-rule="evenodd"/>
</clipPath>
<clipPath id="clip_17">
<path transform="matrix(.24,0,0,.24,0,0)" d="M87.74841 235.17127H152.69149V271.5394H87.74841Z" clip-rule="evenodd"/>
</clipPath>
<clipPath id="clip_18">
<path transform="matrix(.24,0,0,.24,0,0)" d="M78.125 28.125H1125V412.5H78.125Z" clip-rule="evenodd"/>
</clipPath>
<clipPath id="clip_19">
<path transform="matrix(.24,0,0,.24,0,0)" d="M248.80724 235.17127H521.5682V271.5394H248.80724Z" clip-rule="evenodd"/>
</clipPath>
<path id="font_7_90" d="M.1616211 0 .0029296876 .5185547H.09375L.17626953 .21928406 .20703125 .107910159C.20833333 .11343384 .21728516 .14904277 .23388672 .21473694L.31640626 .5185547H.40673829L.484375 .21783448 .5102539 .118652347 .54003909 .21876526 .62890627 .5185547H.71435549L.5522461 0H.4609375L.37841798 .31071473 .35839845 .39892579 .25341798 0H.1616211Z"/>
<path id="font_7_85" d="M.064941409 0V.5185547H.14404297V.4404297C.16422527 .4770101 .18286133 .50112918 .19995117 .51278689 .21704102 .5244446 .23583985 .53027346 .25634767 .53027346 .28597007 .53027346 .31608073 .520874 .3466797 .5020752L.31640626 .42089845C.29492188 .43359376 .2734375 .4399414 .25195313 .4399414 .23274739 .4399414 .2154948 .43415324 .20019531 .4225769 .18489583 .41101075 .17399089 .3949636 .16748047 .37443543 .15771485 .3431549 .15283203 .3089396 .15283203 .27178956V0H.064941409Z"/>
<clipPath id="clip_20">
<path transform="matrix(.24,0,0,.24,0,0)" d="M78.125 28.125H1125V412.5H78.125Z" clip-rule="evenodd"/>
</clipPath>
<clipPath id="clip_21">
<path transform="matrix(.24,0,0,.24,0,0)" d="M87.74841 281.9303H207.24367V315.70069H87.74841Z" clip-rule="evenodd"/>
</clipPath>
<clipPath id="clip_22">
<path transform="matrix(.24,0,0,.24,0,0)" d="M78.125 28.125H1125V412.5H78.125Z" clip-rule="evenodd"/>
</clipPath>
<clipPath id="clip_23">
<path transform="matrix(.24,0,0,.24,0,0)" d="M248.80724 281.9303H443.63648V315.70069H248.80724Z" clip-rule="evenodd"/>
</clipPath>
<path id="font_7_79" d="M.063964847 0V.7158203H.15185547V0H.063964847Z"/>
<path id="font_7_82" d="M.033203126 .25927735C.033203126 .355306 .059895833 .42643229 .11328125 .47265626 .15787761 .5110677 .21223958 .53027346 .2763672 .53027346 .34765626 .53027346 .40592448 .5069173 .45117188 .46020509 .49641929 .41349284 .51904299 .34895835 .51904299 .26660157 .51904299 .1998698 .5090332 .14737956 .48901368 .10913086 .46899415 .070882167 .43986003 .041178388 .40161134 .020019532 .36336265-.0011393229 .3216146-.01171875 .2763672-.01171875 .20377605-.01171875 .1451009 .011555989 .1003418 .05810547 .055582685 .104654949 .033203126 .17171224 .033203126 .25927735M.123535159 .25952149C.123535159 .19335938 .13802083 .14381917 .16699219 .11090088 .19596355 .07798258 .23242188 .061523439 .2763672 .061523439 .31998698 .061523439 .35628257 .078063968 .3852539 .11114502 .41422526 .14422608 .42871095 .19465637 .42871095 .2624359 .42871095 .32632957 .4141439 .3747355 .38500978 .4076538 .35587565 .4405721 .31966148 .45703126 .2763672 .45703126 .23242188 .45703126 .19596355 .44065348 .16699219 .40789796 .13802083 .37514244 .123535159 .3256836 .123535159 .25952149Z"/>
<clipPath id="clip_24">
<path transform="matrix(.24,0,0,.24,0,0)" d="M78.125 28.125H1125V412.5H78.125Z" clip-rule="evenodd"/>
</clipPath>
<clipPath id="clip_25">
<path transform="matrix(.24,0,0,.24,0,0)" d="M87.74841 326.09156H207.24367V359.86195H87.74841Z" clip-rule="evenodd"/>
</clipPath>
<clipPath id="clip_26">
<path transform="matrix(.24,0,0,.24,0,0)" d="M78.125 28.125H1125V412.5H78.125Z" clip-rule="evenodd"/>
</clipPath>
<clipPath id="clip_27">
<path transform="matrix(.24,0,0,.24,0,0)" d="M248.80724 326.09156H1111.2512V359.86195H248.80724Z" clip-rule="evenodd"/>
</clipPath>
<path id="font_7_62" d="M.067871097-.19921875V.7158203H.26171876V.6425781H.15576172V-.12597656H.26171876V-.19921875H.067871097Z"/>
<path id="font_7_41" d="M.08203125 0V.7158203H.5649414V.63134768H.17675781V.41015626H.5126953V.3256836H.17675781V0H.08203125Z"/>
<path id="font_7_54" d="M.044921876 .23046875 .13427735 .23828125C.13850911 .20247396 .14835613 .1730957 .16381836 .15014649 .1792806 .12719727 .20328777 .10864258 .23583985 .09448242 .26839195 .080322269 .30501304 .07324219 .34570313 .07324219 .38183595 .07324219 .41373698 .07861328 .44140626 .08935547 .46907554 .100097659 .4896647 .11482748 .5031738 .13354492 .5166829 .15226238 .5234375 .1726888 .5234375 .19482422 .5234375 .21728516 .51692709 .23689778 .50390627 .2536621 .4908854 .27042643 .46940104 .28450523 .43945313 .29589845 .4202474 .3033854 .37776695 .3150228 .31201173 .33081056 .24625652 .3465983 .20019531 .36149089 .17382813 .37548829 .13964844 .39339195 .11417643 .41560874 .09741211 .44213868 .08064779 .4686686 .072265628 .4983724 .072265628 .53125 .072265628 .5673828 .08251953 .6011556 .103027347 .63256838 .123535159 .66398116 .15348308 .6878255 .1928711 .70410159 .23225911 .7203776 .27604167 .7285156 .32421876 .7285156 .37727867 .7285156 .42407228 .7199707 .4645996 .70288088 .50512698 .685791 .5362956 .66064456 .55810549 .6274414 .57991537 .5942383 .5916341 .5566406 .5932617 .51464846L.5024414 .5078125C.4975586 .55322268 .48103843 .5875244 .45288087 .6107178 .4247233 .63391116 .38313804 .6455078 .328125 .6455078 .27083335 .6455078 .22908528 .6349996 .20288086 .61398318 .17667644 .59297689 .16357422 .5676524 .16357422 .53800967 .16357422 .51227316 .17285156 .49109904 .19140625 .4744873 .20963542 .4578654 .25724284 .44084168 .33422853 .42341615 .4112142 .4059906 .46402995 .39076234 .49267579 .37773133 .53434249 .3585154 .5651042 .33416239 .58496096 .30467225 .6048177 .27519227 .6147461 .24123128 .6147461 .2027893 .6147461 .16468303 .6038411 .12876892 .58203127 .095047 .5602214 .061335248 .52888998 .035110475 .4880371 .01637268 .44718424-.0023549398 .40120445-.01171875 .35009767-.01171875 .285319-.01171875 .2310384-.0022786458 .18725586 .016601563 .14347331 .03548177 .10913086 .06388346 .084228519 .10180664 .059326173 .13972982 .046223958 .18261719 .044921876 .23046875Z"/>
<path id="font_7_48" d="M.07421875 0V.7158203H.21679688L.38623048 .20898438C.40185548 .16178386 .4132487 .12646485 .42041017 .103027347 .4285482 .12906902 .4412435 .1673177 .4584961 .21777344L.6298828 .7158203H.7573242V0H.6660156V.5991211L.4580078 0H.3725586L.16552735 .609375V0H.07421875Z"/>
<path id="font_7_56" d="M.546875 .7158203H.64160159V.30252076C.64160159 .23063152 .63346359 .17354329 .6171875 .1312561 .60091146 .08896891 .5715332 .05456543 .52905276 .028045655 .48657228 .0015360514 .4308268-.01171875 .3618164-.01171875 .29475913-.01171875 .23990886-.00017293294 .19726563 .022918702 .15462239 .046020509 .124186199 .079447429 .10595703 .12319946 .08772787 .16695149 .07861328 .22672527 .07861328 .30252076V.7158203H.17333985V.3030548C.17333985 .24092102 .17911785 .19513448 .19067383 .16569519 .20222982 .13626607 .2220866 .11358134 .25024415 .09764099 .2784017 .081700649 .31282554 .07373047 .35351563 .07373047 .4231771 .07373047 .472819 .08950297 .5024414 .12104797 .5320638 .15260315 .546875 .2132721 .546875 .3030548V.7158203Z"/>
<path id="font_7_47" d="M.07324219 0V.7158203H.16796875V.084472659H.5205078V0H.07324219Z"/>
<path id="font_7_55" d="M.25927735 0V.63134768H.0234375V.7158203H.5908203V.63134768H.3540039V0H.25927735Z"/>
<path id="font_7_53" d="M.07861328 0V.7158203H.3959961C.4597982 .7158203 .5083008 .70939639 .5415039 .69654849 .57470706 .68371078 .601237 .6610362 .62109377 .6285248 .6409505 .59601339 .6508789 .5600891 .6508789 .52075198 .6508789 .47003175 .6344401 .4272766 .6015625 .39248658 .5686849 .3577067 .5179036 .3356018 .44921876 .32617188 .47428385 .31410728 .4933268 .3022054 .50634768 .2904663 .5340169 .26504518 .5602214 .23326111 .58496096 .19511414L.70947268 0H.59033206L.49560548 .14915467C.4679362 .19218445 .44514976 .22510784 .4272461 .2479248 .40934245 .27075196 .39331056 .2867279 .3791504 .29585267 .36499024 .30498759 .35058595 .3113505 .3359375 .3149414 .3251953 .31722007 .3076172 .31835938 .28320313 .31835938H.17333985V0H.07861328M.17333985 .40039063H.37695313C.4202474 .40039063 .45410157 .40485636 .47851563 .41378785 .5029297 .42271934 .5214844 .43701173 .5341797 .45666505 .546875 .47631837 .55322268 .49768067 .55322268 .52075198 .55322268 .5545349 .54093429 .5823059 .5163574 .60406497 .4917806 .62583419 .45296226 .63671877 .39990235 .63671877H.17333985V.40039063Z"/>
<path id="font_7_36" d="M-.0014648438 0 .2734375 .7158203H.37548829L.66845706 0H.5605469L.47705079 .21582031H.17773438L.099121097 0H-.0014648438M.20507813 .2939453H.4477539L.37304688 .4921875C.3502604 .5524089 .33333335 .601888 .32226563 .640625 .31315104 .59472659 .30029298 .5491536 .2836914 .50390627L.20507813 .2939453Z"/>
<path id="font_7_50" d="M.048339845 .34887696C.048339845 .46762086 .08024088 .5605774 .14404297 .6277466 .20784505 .69492599 .2902018 .7285156 .39111329 .7285156 .457194 .7285156 .51676437 .71273806 .5698242 .68118289 .6228841 .6496277 .6633301 .6056264 .6911621 .5491791 .71899417 .4927419 .73291018 .42874146 .73291018 .35717774 .73291018 .28463746 .7182617 .21973674 .68896487 .16247559 .65966799 .10522461 .61816409 .061879476 .5644531 .032440187 .5107422 .0030008953 .45279948-.01171875 .390625-.01171875 .3232422-.01171875 .26302085 .004547119 .20996094 .037078859 .15690105 .069610599 .11669922 .11401367 .08935547 .17028809 .06201172 .2265625 .048339845 .28609214 .048339845 .34887696M.1459961 .347641C.1459961 .26122538 .16918946 .19315593 .21557617 .14343262 .2619629 .09370931 .32014976 .068847659 .39013673 .068847659 .46142579 .068847659 .5201009 .09395345 .5661621 .14416504 .6122233 .1943868 .6352539 .26563517 .6352539 .35791017 .6352539 .41628013 .6254069 .46722923 .6057129 .51075747 .58601889 .5542857 .55721029 .588033 .5192871 .6119995 .48136393 .635966 .4388021 .6479492 .39160157 .6479492 .32454429 .6479492 .2668457 .6248779 .21850586 .57873538 .17016602 .53260299 .1459961 .4555715 .1459961 .347641Z"/>
<path id="font_7_49" d="M.076171878 0V.7158203H.17333985L.5493164 .1538086V.7158203H.6401367V0H.54296877L.16699219 .5625V0H.076171878Z"/>
<path id="font_7_39" d="M.07714844 0V.7158203H.32373048C.37939454 .7158203 .421875 .71240237 .45117188 .7055664 .4921875 .6961263 .52718099 .67903646 .55615237 .6542969 .5939128 .6223958 .6221517 .5816243 .64086917 .5319824 .6595866 .48234049 .6689453 .4256185 .6689453 .3618164 .6689453 .30745445 .66259768 .25927735 .64990237 .21728516 .63720706 .17529297 .62093099 .14054363 .6010742 .11303711 .58121749 .0855306 .55948898 .06388346 .5358887 .048095704 .5122884 .03230794 .48380534 .020345053 .45043946 .012207031 .41707359 .0040690104 .3787435 0 .33544923 0H.07714844M.171875 .084472659H.32470704C.37190757 .084472659 .40893556 .08886719 .43579103 .09765625 .46264649 .10644531 .48404948 .1188151 .5 .13476563 .52246096 .15722656 .5399577 .18741863 .55249026 .2253418 .56502279 .26326499 .57128909 .30924479 .57128909 .36328126 .57128909 .43815104 .5590007 .49568687 .5344238 .5358887 .509847 .5760905 .47998048 .60302737 .44482423 .6166992 .4194336 .62646487 .37858073 .63134768 .32226563 .63134768H.171875V.084472659Z"/>
<path id="font_7_40" d="M.07910156 0V.7158203H.5966797V.63134768H.17382813V.41210938H.5698242V.32910157H.17382813V.084472659H.61328127V0H.07910156Z"/>
<path id="font_7_64" d="M.21289063-.19921875H.019042969V-.12597656H.125V.6425781H.019042969V.7158203H.21289063V-.19921875Z"/>
<clipPath id="clip_28">
<path transform="matrix(.24,0,0,.24,0,0)" d="M78.125 28.125H1125V412.5H78.125Z" clip-rule="evenodd"/>
</clipPath>
<clipPath id="clip_29">
<path transform="matrix(.24,0,0,.24,0,0)" d="M87.74841 370.25288H207.24367V404.02326H87.74841Z" clip-rule="evenodd"/>
</clipPath>
<clipPath id="clip_30">
<path transform="matrix(.24,0,0,.24,0,0)" d="M78.125 28.125H1125V412.5H78.125Z" clip-rule="evenodd"/>
</clipPath>
<clipPath id="clip_31">
<path transform="matrix(.24,0,0,.24,0,0)" d="M248.80724 370.25288H430.6479V404.02326H248.80724Z" clip-rule="evenodd"/>
</clipPath>
<path id="font_7_91" d="M.0073242189 0 .19677735 .26953126 .021484375 .5185547H.13134766L.2109375 .39697267C.22591146 .3738607 .23795574 .3544922 .24707031 .3388672 .26139323 .36035157 .2745768 .37939454 .2866211 .3959961L.37402345 .5185547H.4790039L.2998047 .27441407 .49267579 0H.38476563L.2783203 .16113281 .25 .20458985 .11376953 0H.0073242189Z"/>
</defs>
<g clip-path="url(#clip_1)">
<path transform="matrix(.75,0,0,.75,0,0)" d="M0 0H385V141H0Z" fill="#ffffff"/>
</g>
<g clip-path="url(#clip_2)">
<path transform="matrix(.6234535,0,0,.6234535,-20.400036,-56.09225)" d="M65 121V103H463.26V121" fill="#e6e6e6"/>
<path transform="matrix(.6234535,0,0,.6234535,-20.400036,-56.09225)" stroke-width="1" stroke-linecap="butt" stroke-miterlimit="10" stroke-linejoin="miter" fill="none" stroke="#000000" d="M65 121V103H463.26V121"/>
<path transform="matrix(.6234535,0,0,.6234535,-20.400036,-56.09225)" stroke-width="1" stroke-linecap="butt" stroke-miterlimit="10" stroke-linejoin="miter" fill="none" stroke="#000000" d="M65 121V247H463.26V121"/>
<path transform="matrix(.6234535,0,0,.6234535,-20.400036,-56.09225)" stroke-width="1" stroke-linecap="butt" stroke-miterlimit="10" stroke-linejoin="miter" fill="none" stroke="#000000" d="M65 121H463.26"/>
<path transform="matrix(.6234535,0,0,.6234535,-20.400036,-56.09225)" stroke-width="1" stroke-linecap="butt" stroke-miterlimit="10" stroke-linejoin="miter" fill="none" stroke="#000000" d="M65 139H127 463"/>
<path transform="matrix(.6234535,0,0,.6234535,-20.400036,-56.09225)" stroke-width="1" stroke-linecap="butt" stroke-miterlimit="10" stroke-linejoin="miter" fill="none" stroke="#000000" d="M65 158H127 463"/>
<path transform="matrix(.6234535,0,0,.6234535,-20.400036,-56.09225)" stroke-width="1" stroke-linecap="butt" stroke-miterlimit="10" stroke-linejoin="miter" fill="none" stroke="#000000" d="M65 178H127 463"/>
<path transform="matrix(.6234535,0,0,.6234535,-20.400036,-56.09225)" stroke-width="1" stroke-linecap="butt" stroke-miterlimit="10" stroke-linejoin="miter" fill="none" stroke="#000000" d="M65 196H127 463"/>
<path transform="matrix(.6234535,0,0,.6234535,-20.400036,-56.09225)" stroke-width="1" stroke-linecap="butt" stroke-miterlimit="10" stroke-linejoin="miter" fill="none" stroke="#000000" d="M65 213H127 463"/>
<path transform="matrix(.6234535,0,0,.6234535,-20.400036,-56.09225)" stroke-width="1" stroke-linecap="butt" stroke-miterlimit="10" stroke-linejoin="miter" fill="none" stroke="#000000" d="M65 230H127 463"/>
<path transform="matrix(.6234535,0,0,.6234535,-20.400036,-56.09225)" stroke-width="1" stroke-linecap="butt" stroke-miterlimit="10" stroke-linejoin="miter" fill="none" stroke="#000000" d="M127 121V139 158 178 196 213 230 247"/>
<use data-text="f" xlink:href="#font_3_73" transform="matrix(7.4775,0,0,-7.4775,21.05386,16.533516)"/>
<use data-text="s" xlink:href="#font_3_86" transform="matrix(7.4775,0,0,-7.4775,23.543923,16.533516)"/>
<use data-text="m" xlink:href="#font_3_80" transform="matrix(7.4775,0,0,-7.4775,27.702546,16.533516)"/>
<use data-text="_" xlink:href="#font_3_66" transform="matrix(7.4775,0,0,-7.4775,34.35123,16.533516)"/>
<use data-text="u" xlink:href="#font_3_88" transform="matrix(7.4775,0,0,-7.4775,38.509855,16.533516)"/>
<use data-text="l" xlink:href="#font_3_79" transform="matrix(7.4775,0,0,-7.4775,43.077409,16.533516)"/>
<use data-text="t" xlink:href="#font_3_87" transform="matrix(7.4775,0,0,-7.4775,45.15489,16.533516)"/>
<use data-text="r" xlink:href="#font_3_85" transform="matrix(7.4775,0,0,-7.4775,47.644956,16.533516)"/>
<use data-text="a" xlink:href="#font_3_68" transform="matrix(7.4775,0,0,-7.4775,50.554883,16.533516)"/>
<use data-text="s" xlink:href="#font_3_86" transform="matrix(7.4775,0,0,-7.4775,54.713514,16.533516)"/>
<use data-text="o" xlink:href="#font_3_82" transform="matrix(7.4775,0,0,-7.4775,58.872129,16.533516)"/>
<use data-text="u" xlink:href="#font_3_88" transform="matrix(7.4775,0,0,-7.4775,63.439687,16.533516)"/>
<use data-text="n" xlink:href="#font_3_81" transform="matrix(7.4775,0,0,-7.4775,68.00725,16.533516)"/>
<use data-text="d" xlink:href="#font_3_71" transform="matrix(7.4775,0,0,-7.4775,72.5748,16.533516)"/>
<use data-text="_" xlink:href="#font_3_66" transform="matrix(7.4775,0,0,-7.4775,77.14235,16.533516)"/>
<use data-text="t" xlink:href="#font_3_87" transform="matrix(7.4775,0,0,-7.4775,81.30098,16.533516)"/>
<path transform="matrix(.6234535,0,0,.6234535,-20.400036,-56.09225)" d="M65 121H127V139H65Z" fill="#ffffff"/>
<path transform="matrix(.6234535,0,0,.6234535,-20.400036,-56.09225)" stroke-width="1" stroke-linecap="square" stroke-miterlimit="10" stroke-linejoin="miter" fill="none" stroke="#000000" d="M127 139"/>
</g>
<g clip-path="url(#clip_4)">
<path transform="matrix(.6234535,0,0,.6234535,-20.711766,-56.403985)" d="M67 124H99V138H67Z" fill="#ffffff"/>
<use data-text="f" xlink:href="#font_3_73" transform="matrix(7.481442,0,0,-7.481442,21.05962,27.762238)"/>
<use data-text="s" xlink:href="#font_3_86" transform="matrix(7.481442,0,0,-7.481442,23.550942,27.762238)"/>
<use data-text="m" xlink:href="#font_3_80" transform="matrix(7.481442,0,0,-7.481442,27.71062,27.762238)"/>
<use data-text="_" xlink:href="#font_3_66" transform="matrix(7.481442,0,0,-7.481442,34.36162,27.762238)"/>
<use data-text="t" xlink:href="#font_3_87" transform="matrix(7.481442,0,0,-7.481442,38.5213,27.762238)"/>
</g>
<g clip-path="url(#clip_5)">
<path transform="matrix(.6234535,0,0,.6234535,-20.400036,-56.09225)" d="M127 121H463V139H127Z" fill="#ffffff"/>
<path transform="matrix(.6234535,0,0,.6234535,-20.400036,-56.09225)" stroke-width="1" stroke-linecap="square" stroke-miterlimit="10" stroke-linejoin="miter" fill="none" stroke="#000000" d="M463 139"/>
</g>
<g clip-path="url(#clip_6)">
<path transform="matrix(.6234535,0,0,.6234535,-20.711766,-56.403985)" d="M129 124H136V138H129Z" fill="#ffffff"/>
<use data-text="f" xlink:href="#font_7_73" transform="matrix(7.481442,0,0,-7.481442,59.713735,27.762238)"/>
<use data-text=";" xlink:href="#font_7_30" transform="matrix(7.481442,0,0,-7.481442,61.793577,27.762238)"/>
</g>
<g clip-path="url(#clip_8)">
<path transform="matrix(.6234535,0,0,.6234535,-20.400036,-56.09225)" d="M65 139H127V158H65Z" fill="#ffcccc"/>
<path transform="matrix(.6234535,0,0,.6234535,-20.400036,-56.09225)" stroke-width="1" stroke-linecap="square" stroke-miterlimit="10" stroke-linejoin="miter" fill="none" stroke="#6c8ebf" d="M127 158"/>
</g>
<g clip-path="url(#clip_9)">
<use data-text="u" xlink:href="#font_3_88" transform="matrix(7.481442,0,0,-7.481442,21.05962,38.984399)"/>
<use data-text="i" xlink:href="#font_3_76" transform="matrix(7.481442,0,0,-7.481442,25.63078,38.984399)"/>
<use data-text="n" xlink:href="#font_3_81" transform="matrix(7.481442,0,0,-7.481442,27.71062,38.984399)"/>
<use data-text="t" xlink:href="#font_3_87" transform="matrix(7.481442,0,0,-7.481442,32.28178,38.984399)"/>
<use data-text="3" xlink:href="#font_3_22" transform="matrix(7.481442,0,0,-7.481442,34.7731,38.984399)"/>
<use data-text="2" xlink:href="#font_3_21" transform="matrix(7.481442,0,0,-7.481442,38.932786,38.984399)"/>
<use data-text="_" xlink:href="#font_3_66" transform="matrix(7.481442,0,0,-7.481442,43.092466,38.984399)"/>
<use data-text="t" xlink:href="#font_3_87" transform="matrix(7.481442,0,0,-7.481442,47.25214,38.984399)"/>
</g>
<g clip-path="url(#clip_10)">
<path transform="matrix(.6234535,0,0,.6234535,-20.400036,-56.09225)" d="M127 139H463V158H127Z" fill="#ffcccc"/>
<path transform="matrix(.6234535,0,0,.6234535,-20.400036,-56.09225)" stroke-width="1" stroke-linecap="square" stroke-miterlimit="10" stroke-linejoin="miter" fill="none" stroke="#6c8ebf" d="M463 158"/>
</g>
<g clip-path="url(#clip_11)">
<use data-text="d" xlink:href="#font_7_71" transform="matrix(7.481442,0,0,-7.481442,59.713735,38.984399)"/>
<use data-text="i" xlink:href="#font_7_76" transform="matrix(7.481442,0,0,-7.481442,63.873418,38.984399)"/>
<use data-text="s" xlink:href="#font_7_86" transform="matrix(7.481442,0,0,-7.481442,65.5343,38.984399)"/>
<use data-text="t" xlink:href="#font_7_87" transform="matrix(7.481442,0,0,-7.481442,69.275028,38.984399)"/>
<use data-text="a" xlink:href="#font_7_68" transform="matrix(7.481442,0,0,-7.481442,71.35486,38.984399)"/>
<use data-text="n" xlink:href="#font_7_81" transform="matrix(7.481442,0,0,-7.481442,75.51454,38.984399)"/>
<use data-text="c" xlink:href="#font_7_70" transform="matrix(7.481442,0,0,-7.481442,79.674228,38.984399)"/>
<use data-text="e" xlink:href="#font_7_72" transform="matrix(7.481442,0,0,-7.481442,83.41493,38.984399)"/>
<use data-text="_" xlink:href="#font_7_66" transform="matrix(7.481442,0,0,-7.481442,87.574619,38.984399)"/>
<use data-text="c" xlink:href="#font_7_70" transform="matrix(7.481442,0,0,-7.481442,91.7343,38.984399)"/>
<use data-text="m" xlink:href="#font_7_80" transform="matrix(7.481442,0,0,-7.481442,95.47502,38.984399)"/>
<use data-text=";" xlink:href="#font_7_30" transform="matrix(7.481442,0,0,-7.481442,101.70706,38.984399)"/>
</g>
<g clip-path="url(#clip_12)">
<path transform="matrix(.6234535,0,0,.6234535,-20.400036,-56.09225)" d="M65 158H127V178H65Z" fill="#ffffff"/>
<path transform="matrix(.6234535,0,0,.6234535,-20.400036,-56.09225)" stroke-width="1" stroke-linecap="square" stroke-miterlimit="10" stroke-linejoin="miter" fill="none" stroke="#000000" d="M127 178"/>
</g>
<g clip-path="url(#clip_13)">
<path transform="matrix(.6234535,0,0,.6234535,-20.711766,-56.403985)" d="M67 161H92V176H67Z" fill="#ffffff"/>
<use data-text="b" xlink:href="#font_3_69" transform="matrix(7.481442,0,0,-7.481442,21.05962,50.830018)"/>
<use data-text="o" xlink:href="#font_3_82" transform="matrix(7.481442,0,0,-7.481442,25.63078,50.830018)"/>
<use data-text="o" xlink:href="#font_3_82" transform="matrix(7.481442,0,0,-7.481442,30.201943,50.830018)"/>
<use data-text="l" xlink:href="#font_3_79" transform="matrix(7.481442,0,0,-7.481442,34.7731,50.830018)"/>
</g>
<g clip-path="url(#clip_14)">
<path transform="matrix(.6234535,0,0,.6234535,-20.400036,-56.09225)" d="M127 158H463V178H127Z" fill="#ffffff"/>
<path transform="matrix(.6234535,0,0,.6234535,-20.400036,-56.09225)" stroke-width="1" stroke-linecap="square" stroke-miterlimit="10" stroke-linejoin="miter" fill="none" stroke="#000000" d="M463 178"/>
</g>
<g clip-path="url(#clip_15)">
<path transform="matrix(.6234535,0,0,.6234535,-20.711766,-56.403985)" d="M129 161H164V176H129Z" fill="#ffffff"/>
<use data-text="s" xlink:href="#font_7_86" transform="matrix(7.481442,0,0,-7.481442,59.713735,50.830018)"/>
<use data-text="t" xlink:href="#font_7_87" transform="matrix(7.481442,0,0,-7.481442,63.454458,50.830018)"/>
<use data-text="a" xlink:href="#font_7_68" transform="matrix(7.481442,0,0,-7.481442,65.5343,50.830018)"/>
<use data-text="t" xlink:href="#font_7_87" transform="matrix(7.481442,0,0,-7.481442,69.69397,50.830018)"/>
<use data-text="u" xlink:href="#font_7_88" transform="matrix(7.481442,0,0,-7.481442,71.77382,50.830018)"/>
<use data-text="s" xlink:href="#font_7_86" transform="matrix(7.481442,0,0,-7.481442,75.9335,50.830018)"/>
<use data-text=";" xlink:href="#font_7_30" transform="matrix(7.481442,0,0,-7.481442,79.674228,50.830018)"/>
</g>
<g clip-path="url(#clip_16)">
<path transform="matrix(.6234535,0,0,.6234535,-20.400036,-56.09225)" d="M65 178H127V196H65Z" fill="#ffcccc"/>
<path transform="matrix(.6234535,0,0,.6234535,-20.400036,-56.09225)" stroke-width="1" stroke-linecap="square" stroke-miterlimit="10" stroke-linejoin="miter" fill="none" stroke="#6c8ebf" d="M127 196"/>
</g>
<g clip-path="url(#clip_17)">
<use data-text="b" xlink:href="#font_3_69" transform="matrix(7.481442,0,0,-7.481442,21.05962,63.299089)"/>
<use data-text="o" xlink:href="#font_3_82" transform="matrix(7.481442,0,0,-7.481442,25.63078,63.299089)"/>
<use data-text="o" xlink:href="#font_3_82" transform="matrix(7.481442,0,0,-7.481442,30.201943,63.299089)"/>
<use data-text="l" xlink:href="#font_3_79" transform="matrix(7.481442,0,0,-7.481442,34.7731,63.299089)"/>
</g>
<g clip-path="url(#clip_18)">
<path transform="matrix(.6234535,0,0,.6234535,-20.400036,-56.09225)" d="M127 178H463V196H127Z" fill="#ffcccc"/>
<path transform="matrix(.6234535,0,0,.6234535,-20.400036,-56.09225)" stroke-width="1" stroke-linecap="square" stroke-miterlimit="10" stroke-linejoin="miter" fill="none" stroke="#6c8ebf" d="M463 196"/>
</g>
<g clip-path="url(#clip_19)">
<use data-text="n" xlink:href="#font_7_81" transform="matrix(7.481442,0,0,-7.481442,59.713735,63.299089)"/>
<use data-text="e" xlink:href="#font_7_72" transform="matrix(7.481442,0,0,-7.481442,63.873418,63.299089)"/>
<use data-text="w" xlink:href="#font_7_90" transform="matrix(7.481442,0,0,-7.481442,68.0331,63.299089)"/>
<use data-text="_" xlink:href="#font_7_66" transform="matrix(7.481442,0,0,-7.481442,73.43469,63.299089)"/>
<use data-text="m" xlink:href="#font_7_80" transform="matrix(7.481442,0,0,-7.481442,77.594379,63.299089)"/>
<use data-text="e" xlink:href="#font_7_72" transform="matrix(7.481442,0,0,-7.481442,83.826419,63.299089)"/>
<use data-text="a" xlink:href="#font_7_68" transform="matrix(7.481442,0,0,-7.481442,87.9861,63.299089)"/>
<use data-text="s" xlink:href="#font_7_86" transform="matrix(7.481442,0,0,-7.481442,92.14578,63.299089)"/>
<use data-text="u" xlink:href="#font_7_88" transform="matrix(7.481442,0,0,-7.481442,95.886508,63.299089)"/>
<use data-text="r" xlink:href="#font_7_85" transform="matrix(7.481442,0,0,-7.481442,100.04619,63.299089)"/>
<use data-text="e" xlink:href="#font_7_72" transform="matrix(7.481442,0,0,-7.481442,102.537509,63.299089)"/>
<use data-text="m" xlink:href="#font_7_80" transform="matrix(7.481442,0,0,-7.481442,106.69719,63.299089)"/>
<use data-text="e" xlink:href="#font_7_72" transform="matrix(7.481442,0,0,-7.481442,112.92923,63.299089)"/>
<use data-text="n" xlink:href="#font_7_81" transform="matrix(7.481442,0,0,-7.481442,117.08891,63.299089)"/>
<use data-text="t" xlink:href="#font_7_87" transform="matrix(7.481442,0,0,-7.481442,121.2486,63.299089)"/>
<use data-text=";" xlink:href="#font_7_30" transform="matrix(7.481442,0,0,-7.481442,123.32843,63.299089)"/>
</g>
<g clip-path="url(#clip_20)">
<path transform="matrix(.6234535,0,0,.6234535,-20.400036,-56.09225)" d="M65 196H127V213H65Z" fill="#ffffff"/>
<path transform="matrix(.6234535,0,0,.6234535,-20.400036,-56.09225)" stroke-width="1" stroke-linecap="square" stroke-miterlimit="10" stroke-linejoin="miter" fill="none" stroke="#6c8ebf" d="M127 213"/>
</g>
<g clip-path="url(#clip_21)">
<use data-text="u" xlink:href="#font_3_88" transform="matrix(7.481442,0,0,-7.481442,21.05962,74.52125)"/>
<use data-text="i" xlink:href="#font_3_76" transform="matrix(7.481442,0,0,-7.481442,25.63078,74.52125)"/>
<use data-text="n" xlink:href="#font_3_81" transform="matrix(7.481442,0,0,-7.481442,27.71062,74.52125)"/>
<use data-text="t" xlink:href="#font_3_87" transform="matrix(7.481442,0,0,-7.481442,32.28178,74.52125)"/>
<use data-text="3" xlink:href="#font_3_22" transform="matrix(7.481442,0,0,-7.481442,34.7731,74.52125)"/>
<use data-text="2" xlink:href="#font_3_21" transform="matrix(7.481442,0,0,-7.481442,38.932786,74.52125)"/>
<use data-text="_" xlink:href="#font_3_66" transform="matrix(7.481442,0,0,-7.481442,43.092466,74.52125)"/>
<use data-text="t" xlink:href="#font_3_87" transform="matrix(7.481442,0,0,-7.481442,47.25214,74.52125)"/>
</g>
<g clip-path="url(#clip_22)">
<path transform="matrix(.6234535,0,0,.6234535,-20.400036,-56.09225)" d="M127 196H463V213H127Z" fill="#ffffff"/>
<path transform="matrix(.6234535,0,0,.6234535,-20.400036,-56.09225)" stroke-width="1" stroke-linecap="square" stroke-miterlimit="10" stroke-linejoin="miter" fill="none" stroke="#6c8ebf" d="M463 213"/>
</g>
<g clip-path="url(#clip_23)">
<use data-text="u" xlink:href="#font_7_88" transform="matrix(7.481442,0,0,-7.481442,59.713735,74.52125)"/>
<use data-text="l" xlink:href="#font_7_79" transform="matrix(7.481442,0,0,-7.481442,63.873418,74.52125)"/>
<use data-text="t" xlink:href="#font_7_87" transform="matrix(7.481442,0,0,-7.481442,65.5343,74.52125)"/>
<use data-text="r" xlink:href="#font_7_85" transform="matrix(7.481442,0,0,-7.481442,67.614139,74.52125)"/>
<use data-text="a" xlink:href="#font_7_68" transform="matrix(7.481442,0,0,-7.481442,70.10545,74.52125)"/>
<use data-text="s" xlink:href="#font_7_86" transform="matrix(7.481442,0,0,-7.481442,74.26514,74.52125)"/>
<use data-text="o" xlink:href="#font_7_82" transform="matrix(7.481442,0,0,-7.481442,78.00586,74.52125)"/>
<use data-text="u" xlink:href="#font_7_88" transform="matrix(7.481442,0,0,-7.481442,82.16554,74.52125)"/>
<use data-text="n" xlink:href="#font_7_81" transform="matrix(7.481442,0,0,-7.481442,86.325229,74.52125)"/>
<use data-text="d" xlink:href="#font_7_71" transform="matrix(7.481442,0,0,-7.481442,90.48489,74.52125)"/>
<use data-text="_" xlink:href="#font_7_66" transform="matrix(7.481442,0,0,-7.481442,94.64458,74.52125)"/>
<use data-text="i" xlink:href="#font_7_76" transform="matrix(7.481442,0,0,-7.481442,98.80426,74.52125)"/>
<use data-text="d" xlink:href="#font_7_71" transform="matrix(7.481442,0,0,-7.481442,100.46513,74.52125)"/>
<use data-text=";" xlink:href="#font_7_30" transform="matrix(7.481442,0,0,-7.481442,104.62482,74.52125)"/>
</g>
<g clip-path="url(#clip_24)">
<path transform="matrix(.6234535,0,0,.6234535,-20.400036,-56.09225)" d="M65 213H127V230H65Z" fill="#ffcccc"/>
<path transform="matrix(.6234535,0,0,.6234535,-20.400036,-56.09225)" stroke-width="1" stroke-linecap="square" stroke-miterlimit="10" stroke-linejoin="miter" fill="none" stroke="#6c8ebf" d="M127 230"/>
</g>
<g clip-path="url(#clip_25)">
<use data-text="u" xlink:href="#font_3_88" transform="matrix(7.481442,0,0,-7.481442,21.05962,85.11996)"/>
<use data-text="i" xlink:href="#font_3_76" transform="matrix(7.481442,0,0,-7.481442,25.63078,85.11996)"/>
<use data-text="n" xlink:href="#font_3_81" transform="matrix(7.481442,0,0,-7.481442,27.71062,85.11996)"/>
<use data-text="t" xlink:href="#font_3_87" transform="matrix(7.481442,0,0,-7.481442,32.28178,85.11996)"/>
<use data-text="3" xlink:href="#font_3_22" transform="matrix(7.481442,0,0,-7.481442,34.7731,85.11996)"/>
<use data-text="2" xlink:href="#font_3_21" transform="matrix(7.481442,0,0,-7.481442,38.932786,85.11996)"/>
<use data-text="_" xlink:href="#font_3_66" transform="matrix(7.481442,0,0,-7.481442,43.092466,85.11996)"/>
<use data-text="t" xlink:href="#font_3_87" transform="matrix(7.481442,0,0,-7.481442,47.25214,85.11996)"/>
</g>
<g clip-path="url(#clip_26)">
<path transform="matrix(.6234535,0,0,.6234535,-20.400036,-56.09225)" d="M127 213H463V230H127Z" fill="#ffcccc"/>
<path transform="matrix(.6234535,0,0,.6234535,-20.400036,-56.09225)" stroke-width="1" stroke-linecap="square" stroke-miterlimit="10" stroke-linejoin="miter" fill="none" stroke="#6c8ebf" d="M463 230"/>
</g>
<g clip-path="url(#clip_27)">
<use data-text="d" xlink:href="#font_7_71" transform="matrix(7.481442,0,0,-7.481442,59.713735,85.11996)"/>
<use data-text="i" xlink:href="#font_7_76" transform="matrix(7.481442,0,0,-7.481442,63.873418,85.11996)"/>
<use data-text="s" xlink:href="#font_7_86" transform="matrix(7.481442,0,0,-7.481442,65.5343,85.11996)"/>
<use data-text="t" xlink:href="#font_7_87" transform="matrix(7.481442,0,0,-7.481442,69.275028,85.11996)"/>
<use data-text="a" xlink:href="#font_7_68" transform="matrix(7.481442,0,0,-7.481442,71.35486,85.11996)"/>
<use data-text="n" xlink:href="#font_7_81" transform="matrix(7.481442,0,0,-7.481442,75.51454,85.11996)"/>
<use data-text="c" xlink:href="#font_7_70" transform="matrix(7.481442,0,0,-7.481442,79.674228,85.11996)"/>
<use data-text="e" xlink:href="#font_7_72" transform="matrix(7.481442,0,0,-7.481442,83.41493,85.11996)"/>
<use data-text="_" xlink:href="#font_7_66" transform="matrix(7.481442,0,0,-7.481442,87.574619,85.11996)"/>
<use data-text="a" xlink:href="#font_7_68" transform="matrix(7.481442,0,0,-7.481442,91.7343,85.11996)"/>
<use data-text="r" xlink:href="#font_7_85" transform="matrix(7.481442,0,0,-7.481442,95.89398,85.11996)"/>
<use data-text="r" xlink:href="#font_7_85" transform="matrix(7.481442,0,0,-7.481442,98.3853,85.11996)"/>
<use data-text="[" xlink:href="#font_7_62" transform="matrix(7.481442,0,0,-7.481442,100.87662,85.11996)"/>
<use data-text="F" xlink:href="#font_7_41" transform="matrix(7.481442,0,0,-7.481442,102.95647,85.11996)"/>
<use data-text="S" xlink:href="#font_7_54" transform="matrix(7.481442,0,0,-7.481442,107.52763,85.11996)"/>
<use data-text="M" xlink:href="#font_7_48" transform="matrix(7.481442,0,0,-7.481442,112.517749,85.11996)"/>
<use data-text="_" xlink:href="#font_7_66" transform="matrix(7.481442,0,0,-7.481442,118.74979,85.11996)"/>
<use data-text="U" xlink:href="#font_7_56" transform="matrix(7.481442,0,0,-7.481442,122.90947,85.11996)"/>
<use data-text="L" xlink:href="#font_7_47" transform="matrix(7.481442,0,0,-7.481442,128.31107,85.11996)"/>
<use data-text="T" xlink:href="#font_7_55" transform="matrix(7.481442,0,0,-7.481442,131.92354,85.11996)"/>
<use data-text="R" xlink:href="#font_7_53" transform="matrix(7.481442,0,0,-7.481442,136.4947,85.11996)"/>
<use data-text="A" xlink:href="#font_7_36" transform="matrix(7.481442,0,0,-7.481442,141.8963,85.11996)"/>
<use data-text="S" xlink:href="#font_7_54" transform="matrix(7.481442,0,0,-7.481442,146.88642,85.11996)"/>
<use data-text="O" xlink:href="#font_7_50" transform="matrix(7.481442,0,0,-7.481442,151.87654,85.11996)"/>
<use data-text="U" xlink:href="#font_7_56" transform="matrix(7.481442,0,0,-7.481442,157.6971,85.11996)"/>
<use data-text="N" xlink:href="#font_7_49" transform="matrix(7.481442,0,0,-7.481442,163.09871,85.11996)"/>
<use data-text="D" xlink:href="#font_7_39" transform="matrix(7.481442,0,0,-7.481442,168.5003,85.11996)"/>
<use data-text="_" xlink:href="#font_7_66" transform="matrix(7.481442,0,0,-7.481442,173.9019,85.11996)"/>
<use data-text="N" xlink:href="#font_7_49" transform="matrix(7.481442,0,0,-7.481442,178.06159,85.11996)"/>
<use data-text="U" xlink:href="#font_7_56" transform="matrix(7.481442,0,0,-7.481442,183.4632,85.11996)"/>
<use data-text="M" xlink:href="#font_7_48" transform="matrix(7.481442,0,0,-7.481442,188.86479,85.11996)"/>
<use data-text="_" xlink:href="#font_7_66" transform="matrix(7.481442,0,0,-7.481442,195.09683,85.11996)"/>
<use data-text="M" xlink:href="#font_7_48" transform="matrix(7.481442,0,0,-7.481442,199.25652,85.11996)"/>
<use data-text="E" xlink:href="#font_7_40" transform="matrix(7.481442,0,0,-7.481442,205.48856,85.11996)"/>
<use data-text="A" xlink:href="#font_7_36" transform="matrix(7.481442,0,0,-7.481442,210.47869,85.11996)"/>
<use data-text="S" xlink:href="#font_7_54" transform="matrix(7.481442,0,0,-7.481442,215.4688,85.11996)"/>
<use data-text="U" xlink:href="#font_7_56" transform="matrix(7.481442,0,0,-7.481442,220.45893,85.11996)"/>
<use data-text="R" xlink:href="#font_7_53" transform="matrix(7.481442,0,0,-7.481442,225.86052,85.11996)"/>
<use data-text="E" xlink:href="#font_7_40" transform="matrix(7.481442,0,0,-7.481442,231.26212,85.11996)"/>
<use data-text="M" xlink:href="#font_7_48" transform="matrix(7.481442,0,0,-7.481442,236.25223,85.11996)"/>
<use data-text="E" xlink:href="#font_7_40" transform="matrix(7.481442,0,0,-7.481442,242.48429,85.11996)"/>
<use data-text="N" xlink:href="#font_7_49" transform="matrix(7.481442,0,0,-7.481442,247.4744,85.11996)"/>
<use data-text="T" xlink:href="#font_7_55" transform="matrix(7.481442,0,0,-7.481442,252.876,85.11996)"/>
<use data-text="S" xlink:href="#font_7_54" transform="matrix(7.481442,0,0,-7.481442,257.44718,85.11996)"/>
<use data-text="]" xlink:href="#font_7_64" transform="matrix(7.481442,0,0,-7.481442,262.4373,85.11996)"/>
<use data-text=";" xlink:href="#font_7_30" transform="matrix(7.481442,0,0,-7.481442,264.51713,85.11996)"/>
</g>
<g clip-path="url(#clip_28)">
<path transform="matrix(.6234535,0,0,.6234535,-20.400036,-56.09225)" d="M65 230H127V247H65Z" fill="#ffffff"/>
<path transform="matrix(.6234535,0,0,.6234535,-20.400036,-56.09225)" stroke-width="1" stroke-linecap="square" stroke-miterlimit="10" stroke-linejoin="miter" fill="none" stroke="#6c8ebf" d="M127 247"/>
</g>
<g clip-path="url(#clip_29)">
<use data-text="u" xlink:href="#font_3_88" transform="matrix(7.481442,0,0,-7.481442,21.05962,95.718669)"/>
<use data-text="i" xlink:href="#font_3_76" transform="matrix(7.481442,0,0,-7.481442,25.63078,95.718669)"/>
<use data-text="n" xlink:href="#font_3_81" transform="matrix(7.481442,0,0,-7.481442,27.71062,95.718669)"/>
<use data-text="t" xlink:href="#font_3_87" transform="matrix(7.481442,0,0,-7.481442,32.28178,95.718669)"/>
<use data-text="3" xlink:href="#font_3_22" transform="matrix(7.481442,0,0,-7.481442,34.7731,95.718669)"/>
<use data-text="2" xlink:href="#font_3_21" transform="matrix(7.481442,0,0,-7.481442,38.932786,95.718669)"/>
<use data-text="_" xlink:href="#font_3_66" transform="matrix(7.481442,0,0,-7.481442,43.092466,95.718669)"/>
<use data-text="t" xlink:href="#font_3_87" transform="matrix(7.481442,0,0,-7.481442,47.25214,95.718669)"/>
</g>
<g clip-path="url(#clip_30)">
<path transform="matrix(.6234535,0,0,.6234535,-20.400036,-56.09225)" d="M127 230H463V247H127Z" fill="#ffffff"/>
<path transform="matrix(.6234535,0,0,.6234535,-20.400036,-56.09225)" stroke-width="1" stroke-linecap="square" stroke-miterlimit="10" stroke-linejoin="miter" fill="none" stroke="#6c8ebf" d="M463 247"/>
</g>
<g clip-path="url(#clip_31)">
<use data-text="d" xlink:href="#font_7_71" transform="matrix(7.481442,0,0,-7.481442,59.713735,95.718669)"/>
<use data-text="i" xlink:href="#font_7_76" transform="matrix(7.481442,0,0,-7.481442,63.873418,95.718669)"/>
<use data-text="s" xlink:href="#font_7_86" transform="matrix(7.481442,0,0,-7.481442,65.5343,95.718669)"/>
<use data-text="t" xlink:href="#font_7_87" transform="matrix(7.481442,0,0,-7.481442,69.275028,95.718669)"/>
<use data-text="a" xlink:href="#font_7_68" transform="matrix(7.481442,0,0,-7.481442,71.35486,95.718669)"/>
<use data-text="n" xlink:href="#font_7_81" transform="matrix(7.481442,0,0,-7.481442,75.51454,95.718669)"/>
<use data-text="c" xlink:href="#font_7_70" transform="matrix(7.481442,0,0,-7.481442,79.674228,95.718669)"/>
<use data-text="e" xlink:href="#font_7_72" transform="matrix(7.481442,0,0,-7.481442,83.41493,95.718669)"/>
<use data-text="_" xlink:href="#font_7_66" transform="matrix(7.481442,0,0,-7.481442,87.574619,95.718669)"/>
<use data-text="i" xlink:href="#font_7_76" transform="matrix(7.481442,0,0,-7.481442,91.7343,95.718669)"/>
<use data-text="d" xlink:href="#font_7_71" transform="matrix(7.481442,0,0,-7.481442,93.39517,95.718669)"/>
<use data-text="x" xlink:href="#font_7_91" transform="matrix(7.481442,0,0,-7.481442,97.554859,95.718669)"/>
<use data-text=";" xlink:href="#font_7_30" transform="matrix(7.481442,0,0,-7.481442,101.29558,95.718669)"/>
</g>
</svg>
