<svg xmlns="http://www.w3.org/2000/svg" xmlns:xlink="http://www.w3.org/1999/xlink" xmlns:inkscape="http://www.inkscape.org/namespaces/inkscape" version="1.1" width="155.04" height="156" viewBox="0 0 155.04 156">
<defs>
<clipPath id="clip_1">
<path transform="matrix(.24,0,0,.24,0,0)" d="M0 0H645.01956V650.97659H0Z" clip-rule="evenodd"/>
</clipPath>
<clipPath id="clip_2">
<path transform="matrix(.24,0,0,.24,0,0)" d="M78.125 78.125H565.625V571.875H78.125Z" clip-rule="evenodd"/>
</clipPath>
<path id="font_3_86" d="M.0234375 .14746094 .16113281 .16894531C.16699219 .14241536 .1788737 .122273769 .19677735 .10852051 .21468099 .09476725 .2397461 .087890628 .27197267 .087890628 .30745445 .087890628 .33414714 .09439087 .35205079 .10739136 .36409507 .116495769 .3701172 .12868755 .3701172 .14396668 .3701172 .15437317 .36686198 .1629893 .36035157 .16981507 .35351563 .17631531 .33821617 .18232727 .31445313 .18785095 .20377605 .21222432 .1336263 .23449199 .104003909 .25465394 .06298828 .2826284 .04248047 .32149253 .04248047 .37124635 .04248047 .41612754 .060221357 .45385234 .095703128 .48442079 .13118489 .5149892 .18619792 .53027346 .2607422 .53027346 .33170573 .53027346 .3844401 .5187581 .4189453 .49572755 .45345054 .47269694 .47721354 .4386393 .49023438 .3935547L.36083985 .36914063C.355306 .3893229 .34480796 .40478517 .3293457 .41552735 .31388346 .42626954 .29182945 .43164063 .2631836 .43164063 .22705078 .43164063 .20117188 .42660014 .18554688 .41651917 .1751302 .40937806 .16992188 .40011598 .16992188 .3887329 .16992188 .37898765 .17447917 .37070213 .18359375 .36387635 .19596355 .35477195 .23868816 .3419291 .31176759 .3253479 .38484703 .3087667 .4358724 .28842674 .46484376 .264328 .4934896 .2398936 .5078125 .20585633 .5078125 .16221619 .5078125 .11465963 .48795573 .073781337 .4482422 .0395813 .40852867 .005381266 .34977214-.01171875 .27197267-.01171875 .20133464-.01171875 .14542644 .0025583904 .10424805 .03111267 .063069667 .059677125 .036132814 .09845988 .0234375 .14746094Z"/>
<path id="font_3_87" d="M.3095703 .5185547V.4091797H.21582031V.200531C.21582031 .15827434 .2167155 .13365174 .21850586 .12666321 .22029622 .11968485 .22436524 .11391703 .23071289 .10935974 .23706055 .10481262 .24479167 .10253906 .25390626 .10253906 .26660157 .10253906 .2849935 .106933597 .30908204 .115722659L.32080079 .008880615C.28889976-.004852295 .25276695-.01171875 .21240235-.01171875 .18766277-.01171875 .16536458-.0075683596 .14550781 .0007324219 .12565105 .009033203 .111083988 .01977539 .10180664 .032958986 .0925293 .046142579 .08610026 .063964847 .08251953 .08642578 .079589847 .102376308 .078125 .13460286 .078125 .18310547V.4091797H.015136719V.5185547H.078125V.6220703L.21582031 .703125V.5185547H.3095703Z"/>
<path id="font_3_80" d="M.061523439 .5185547H.18798828V.4477539C.23323567 .5027669 .28710938 .53027346 .34960938 .53027346 .3828125 .53027346 .4116211 .523407 .43603517 .5096741 .46044923 .49594117 .48046876 .47517396 .49609376 .44737245 .5188802 .47517396 .54345706 .49594117 .5698242 .5096741 .5961914 .523407 .62434896 .53027346 .6542969 .53027346 .6923828 .53027346 .7246094 .5225423 .75097659 .5070801 .77734377 .49161784 .7970378 .46891276 .8100586 .43896485 .8194987 .41682945 .82421877 .38102214 .82421877 .33154298V0H.6870117V.29605104C.6870117 .34742228 .6822917 .38058473 .67285159 .39553834 .66015627 .41504923 .640625 .4248047 .6142578 .4248047 .59505209 .4248047 .57698568 .4189504 .5600586 .40724183 .54313156 .39554344 .5309245 .37839256 .5234375 .35578919 .5159505 .333196 .51220706 .29751078 .51220706 .24873352V0H.375V.28385926C.375 .33425395 .3725586 .36676536 .36767579 .38139344 .36279298 .3960317 .3552246 .40692649 .3449707 .41407777 .3347168 .42122904 .32080079 .4248047 .30322267 .4248047 .2820638 .4248047 .26302085 .41911317 .24609375 .4077301 .22916667 .3963572 .21704102 .37993876 .2097168 .35847474 .20239258 .3370107 .19873047 .30140687 .19873047 .2516632V0H.061523439V.5185547Z"/>
<path id="font_3_22" d="M.037597658 .1899414 .17041016 .20605469C.17464192 .17220052 .18603516 .14632161 .20458985 .12841797 .22314453 .11051432 .24560547 .1015625 .27197267 .1015625 .30029298 .1015625 .32413737 .11230469 .34350587 .13378906 .36287437 .15527344 .3725586 .1842448 .3725586 .22070313 .3725586 .25520835 .36328126 .2825521 .34472657 .30273438 .32617188 .32291667 .3035482 .3330078 .27685548 .3330078 .25927735 .3330078 .23828125 .32958985 .21386719 .3227539L.2290039 .43359376C.26611329 .4326172 .2944336 .4406484 .31396485 .45768739 .3334961 .47473655 .34326173 .49738059 .34326173 .5256195 .34326173 .54963687 .33610026 .5687866 .32177735 .58306887 .30745445 .5973511 .28841148 .6044922 .26464845 .6044922 .24121094 .6044922 .2211914 .5963542 .20458985 .5800781 .18798828 .56380209 .17789714 .54003909 .1743164 .50878909L.047851564 .53027346C.056640626 .5739034 .0699056 .6087596 .087646488 .6348419 .10538737 .66092428 .13012696 .681427 .16186524 .6963501 .19360352 .7112834 .22916667 .71875 .2685547 .71875 .3359375 .71875 .38997398 .6972351 .43066407 .6542053 .46419273 .61898806 .48095704 .57921347 .48095704 .5348816 .48095704 .4719645 .4466146 .42175804 .3779297 .38426209 .4189453 .37547303 .45174156 .35577903 .47631837 .32518006 .5008952 .2945811 .5131836 .2576345 .5131836 .21434021 .5131836 .15152486 .49023438 .09798177 .44433595 .053710939 .3984375 .0094401049 .3413086-.0126953129 .27294923-.0126953129 .20817058-.0126953129 .15445964 .0059865319 .111816409 .04335022 .06917318 .080713909 .044433595 .12957764 .037597658 .1899414Z"/>
<path id="font_3_21" d="M.5058594 .12792969V0H.024902344C.030110678 .048136396 .045735677 .09375 .071777347 .13684082 .09781901 .17994182 .1492513 .2371114 .22607422 .3083496 .2879232 .36591593 .32584635 .40494285 .33984376 .4254303 .35872398 .45373027 .36816407 .4817047 .36816407 .50935366 .36816407 .53993228 .35994468 .5634308 .34350587 .57984927 .32706706 .5962779 .30436198 .6044922 .27539063 .6044922 .2467448 .6044922 .22395833 .5958252 .20703125 .5784912 .19010417 .5611674 .18033855 .5323995 .17773438 .4921875L.041015626 .5059204C.049153646 .5817668 .07470703 .63619998 .11767578 .66922 .16064453 .70224 .21435547 .71875 .2788086 .71875 .34944663 .71875 .4049479 .6997223 .4453125 .66166689 .4856771 .62361147 .5058594 .5762889 .5058594 .5196991 .5058594 .4874929 .50008139 .4568329 .4885254 .42771913 .4769694 .3986155 .45865885 .36812846 .43359376 .33625794 .4169922 .31510926 .38704429 .2846934 .34375 .24501038 .30045573 .20533753 .2730306 .17899578 .2614746 .1659851 .24991863 .15297444 .24055989 .1402893 .23339844 .12792969H.5058594Z"/>
<path id="font_3_73" d="M.01171875 .5185547H.087890628V.55770877C.087890628 .60143026 .0925293 .63405868 .10180664 .6555939 .111083988 .6771291 .12817383 .69466659 .15307617 .7082062 .17797852 .7217458 .20947266 .7285156 .2475586 .7285156 .2866211 .7285156 .32486979 .72265627 .3623047 .7109375L.34375 .6152344C.3219401 .6204427 .300944 .6230469 .28076173 .6230469 .26090495 .6230469 .2466634 .61838278 .23803711 .60905459 .22941081 .5997365 .22509766 .5818329 .22509766 .5553436V.5185547H.32763673V.41015626H.22509766V0H.087890628V.41015626H.01171875V.5185547Z"/>
<path id="font_3_23" d="M.31152345 0V.14453125H.018554688V.26416017L.32910157 .71875H.44433595V.26464845H.5332031V.14453125H.44433595V0H.31152345M.31152345 .26464845V.5090027L.14697266 .26464845H.31152345Z"/>
<path id="font_3_66" d="M-.009277344-.19824219V-.10839844H.56103518V-.19824219H-.009277344Z"/>
<path id="font_3_88" d="M.41308595 0V.07763672C.39420573 .04996745 .36938478 .028157553 .33862306 .012207031 .30786134-.0037434896 .27539063-.01171875 .24121094-.01171875 .2063802-.01171875 .1751302-.0040690104 .14746094 .011230469 .119791667 .026529948 .09977213 .048014326 .087402347 .075683597 .075032558 .10335287 .068847659 .14160156 .068847659 .19042969V.5185547H.20605469V.28082276C.20605469 .20806885 .20857747 .16349285 .21362305 .14709473 .21866863 .13069661 .22786458 .1177063 .24121094 .10812378 .25455729 .09854126 .27148438 .09375 .2919922 .09375 .3154297 .09375 .33642579 .10016378 .35498048 .11299133 .37353517 .1258189 .38623048 .14173381 .3930664 .16073609 .39990235 .17973836 .4033203 .2262624 .4033203 .30030824V.5185547H.54052737V0H.41308595Z"/>
<path id="font_3_79" d="M.071777347 0V.7158203H.20898438V0H.071777347Z"/>
<path id="font_3_85" d="M.203125 0H.06591797V.5185547H.19335938V.44482423C.21516927 .47965495 .2347819 .5026042 .25219728 .5136719 .26961265 .52473959 .28938804 .53027346 .31152345 .53027346 .34277345 .53027346 .37288413 .52164718 .40185548 .50439456L.359375 .38476563C.33626304 .3997396 .31477867 .40722657 .29492188 .40722657 .27571617 .40722657 .2594401 .40193687 .24609375 .39135743 .23274739 .38077799 .22224935 .36165367 .21459961 .33398438 .20694988 .3063151 .203125 .24837239 .203125 .16015625V0Z"/>
<path id="font_3_68" d="M.1743164 .35839845 .049804689 .38085938C.063802089 .4316508 .087890628 .46924845 .12207031 .49365235 .15625 .5180664 .20703125 .53027346 .27441407 .53027346 .33561198 .53027346 .3811849 .5230306 .4111328 .5085449 .44108073 .49405924 .4621582 .47566734 .47436524 .45336915 .48657228 .43107096 .49267579 .39013673 .49267579 .3305664L.49121095 .17041016C.49121095 .12483724 .4934082 .09122721 .49780274 .06958008 .50219729 .04793294 .5104167 .024739584 .52246096 0H.38671876C.38313804 .009114583 .3787435 .022623698 .37353517 .040527345 .3712565 .048665365 .3696289 .054036458 .36865235 .056640626 .34521485 .033854169 .32014976 .016764323 .29345704 .0053710939 .2667643-.0060221354 .23828125-.01171875 .20800781-.01171875 .15462239-.01171875 .11254883 .0027058919 .08178711 .031555177 .05102539 .06040446 .03564453 .09687296 .03564453 .1409607 .03564453 .1701355 .04264323 .19614665 .056640626 .21899414 .07063802 .2418518 .09025065 .25935874 .115478519 .2715149 .14070638 .28367106 .17708333 .2942861 .22460938 .30336 .28873698 .3153534 .33317057 .3265381 .35791017 .33691407V.35073854C.35791017 .37740074 .35139976 .39640809 .3383789 .40776063 .32535807 .41912333 .30078126 .4248047 .26464845 .4248047 .24023438 .4248047 .2211914 .41989137 .20751953 .4100647 .19384766 .4002482 .18277996 .38302613 .1743164 .35839845M.35791017 .24707031C.34033204 .24128215 .3125 .23436482 .27441407 .22631836 .23632813 .21828206 .21142578 .21040344 .19970703 .2026825 .18180339 .19013977 .17285156 .17421977 .17285156 .15492249 .17285156 .13594055 .18001302 .119532268 .19433594 .10569763 .20865886 .09187317 .22688802 .08496094 .24902344 .08496094 .27376304 .08496094 .29736329 .09300232 .31982423 .10908508 .33642579 .121302288 .34733073 .13626099 .35253907 .15396118 .35611979 .16553752 .35791017 .18756612 .35791017 .220047V.24707031Z"/>
<path id="font_3_82" d="M.040039064 .26660157C.040039064 .31217448 .05126953 .35628257 .07373047 .39892579 .096191409 .441569 .12801107 .4741211 .16918946 .49658204 .21036785 .51904299 .25634767 .53027346 .3071289 .53027346 .38557945 .53027346 .44986979 .50480148 .5 .45385743 .5501302 .40291343 .5751953 .33854167 .5751953 .2607422 .5751953 .18229167 .54988607 .11726888 .49926759 .06567383 .44864909 .014078776 .38492839-.01171875 .30810548-.01171875 .26057945-.01171875 .21525066-.0009765625 .17211914 .020507813 .12898763 .041992189 .096191409 .07348633 .07373047 .114990238 .05126953 .15649414 .040039064 .20703125 .040039064 .26660157M.18066406 .25927735C.18066406 .20800781 .1928711 .16874187 .21728516 .14147949 .24169922 .114217128 .2718099 .10058594 .3076172 .10058594 .34342448 .10058594 .37345378 .114217128 .39770509 .14147949 .4219564 .16874187 .43408204 .20833333 .43408204 .2602539 .43408204 .3108724 .4219564 .34981285 .39770509 .3770752 .37345378 .40433757 .34342448 .41796876 .3076172 .41796876 .2718099 .41796876 .24169922 .40433757 .21728516 .3770752 .1928711 .34981285 .18066406 .31054688 .18066406 .25927735Z"/>
<path id="font_3_81" d="M.54345706 0H.40625V.26434327C.40625 .32027183 .4033203 .3564453 .39746095 .37286378 .39160157 .38928224 .38208009 .40204368 .36889649 .41114808 .3557129 .42025248 .33984376 .4248047 .32128907 .4248047 .29752604 .4248047 .27620445 .41829936 .25732423 .4052887 .23844402 .3922882 .22550456 .37505595 .21850586 .35359193 .21150716 .33213807 .20800781 .2924703 .20800781 .23458863V0H.07080078V.5185547H.19824219V.4423828C.24348958 .50097659 .30045573 .53027346 .36914063 .53027346 .39941407 .53027346 .42708335 .524821 .45214845 .513916 .47721354 .50301107 .49617515 .48909507 .5090332 .47216798 .5218913 .45524089 .5308431 .43603517 .5358887 .41455079 .54093429 .3930664 .54345706 .3623047 .54345706 .32226563V0Z"/>
<path id="font_3_71" d="M.5473633 0H.41992188V.076171878C.39876304 .04654948 .3737793 .024495444 .3449707 .010009766 .3161621-.0044759118 .28710938-.01171875 .2578125-.01171875 .19824219-.01171875 .1472168 .012288411 .10473633 .060302736 .06225586 .108317058 .041015626 .17529297 .041015626 .26123048 .041015626 .3491211 .0616862 .41593424 .103027347 .46166993 .14436849 .5074056 .19661458 .53027346 .25976563 .53027346 .31770835 .53027346 .36783854 .5061849 .41015626 .4580078V.7158203H.5473633V0M.18115235 .2702484C.18115235 .21499126 .18880208 .17501323 .20410156 .15031433 .22623699 .1145579 .25716148 .09667969 .296875 .09667969 .32845054 .09667969 .355306 .110087078 .3774414 .13690186 .3995768 .16371663 .41064454 .20377605 .41064454 .25708009 .41064454 .316569 .39990235 .35939536 .37841798 .38555909 .3569336 .4117228 .3294271 .4248047 .29589845 .4248047 .26334635 .4248047 .23608399 .4118856 .21411133 .38604737 .19213867 .36020915 .18115235 .3216095 .18115235 .2702484Z"/>
<path id="font_3_75" d="M.2084961 .7158203V.4522705C.25276695 .50427249 .30566407 .53027346 .3671875 .53027346 .39876304 .53027346 .4272461 .52441409 .45263673 .5126953 .47802735 .50097659 .4971517 .4860026 .51000979 .46777345 .52286788 .44954429 .5316569 .42936198 .53637698 .40722657 .541097 .38509117 .54345706 .3507487 .54345706 .30419923V0H.40625V.27360536C.40625 .32790629 .40364585 .36237083 .3984375 .3769989 .39322917 .39163719 .3840332 .40326438 .3708496 .4118805 .35766603 .4204966 .34114585 .4248047 .32128907 .4248047 .2985026 .4248047 .27815757 .4192759 .2602539 .40821839 .24235027 .39716087 .22924805 .38049827 .22094727 .3582306 .21264649 .33596293 .2084961 .30303956 .2084961 .25946046V0H.07128906V.7158203H.2084961Z"/>
<path id="font_3_90" d="M.16845703 0 .0043945314 .5185547H.13769531L.23486328 .17871094 .32421876 .5185547H.45654298L.54296877 .17871094 .64208987 .5185547H.77734377L.61083987 0H.4790039L.38964845 .3334961 .3017578 0H.16845703Z"/>
<clipPath id="clip_4">
<path transform="matrix(.24,0,0,.24,0,0)" d="M86.88672 131.80233H273.36866V163.25713H86.88672Z" clip-rule="evenodd"/>
</clipPath>
<path id="font_3_42" d="M.40576173 .2626953V.38378907H.71728518V.098587039C.6870117 .06917826 .64314779 .04327901 .58569338 .020889283 .52823898-.0015004476 .4700521-.0126953129 .4111328-.0126953129 .33626304-.0126953129 .2709961 .0030314129 .21533203 .034484865 .15966797 .06593832 .11783854 .11091614 .08984375 .16941834 .061848958 .22793071 .047851564 .2915751 .047851564 .36035157 .047851564 .43499757 .06347656 .5013275 .09472656 .55934146 .12597656 .61736556 .17171224 .66186019 .2319336 .6928253 .27783204 .71661886 .33496095 .7285156 .4033203 .7285156 .4921875 .7285156 .5616048 .7098338 .61157229 .6724701 .66153976 .6351166 .6936849 .5834859 .7080078 .5175781L.5644531 .49023438C.554362 .5255432 .5354004 .5534108 .50756838 .5738373 .47973634 .59427389 .44498698 .6044922 .4033203 .6044922 .34016929 .6044922 .28995768 .58447268 .25268556 .5444336 .2154134 .50439456 .19677735 .44498698 .19677735 .36621095 .19677735 .28125 .21565755 .2175293 .25341798 .17504883 .29117839 .13256836 .34065757 .111328128 .40185548 .111328128 .4321289 .111328128 .46248374 .117248538 .49291993 .12908936 .52335616 .14093018 .5494792 .1552887 .57128909 .17216492V.2626953H.40576173Z"/>
<path id="font_3_51" d="M.072753909 0V.7158203H.3046875C.39257813 .7158203 .44986979 .7122447 .4765625 .7050934 .5175781 .6943614 .5519206 .6710307 .57958987 .6351013 .6072591 .59917196 .62109377 .5527547 .62109377 .4958496 .62109377 .45195518 .61311849 .41504923 .59716799 .38513185 .58121749 .35521446 .5609538 .33172099 .53637698 .3146515 .5118001 .297582 .4868164 .2862803 .46142579 .28074647 .42692057 .27392069 .37695313 .2705078 .31152345 .2705078H.21728516V0H.072753909M.21728516 .59472659V.39160157H.29638673C.35335288 .39160157 .3914388 .39534507 .41064454 .40283204 .42985026 .410319 .4449056 .42203776 .45581056 .43798829 .46671549 .4539388 .47216798 .4724935 .47216798 .49365235 .47216798 .51969406 .46451823 .5411784 .44921876 .55810549 .43391929 .57503256 .41455079 .585612 .39111329 .58984377 .3738607 .59309896 .33919273 .59472659 .28710938 .59472659H.21728516Z"/>
<path id="font_3_44" d="M.068359378 0V.7158203H.21289063V0H.068359378Z"/>
<path id="font_3_50" d="M.04345703 .35351563C.04345703 .42652384 .05436198 .48779807 .076171878 .53733828 .092447917 .5738475 .11466471 .6066081 .14282227 .6356201 .17097982 .66463217 .20182292 .68614706 .23535156 .7001648 .2799479 .71906539 .33138023 .7285156 .38964845 .7285156 .4951172 .7285156 .5795085 .695755 .64282229 .63023379 .70613607 .5647227 .73779299 .47362266 .73779299 .3569336 .73779299 .24122112 .7063802 .15068563 .6435547 .08532715 .5807292 .019978842 .49674479-.0126953129 .39160157-.0126953129 .28515626-.0126953129 .20052083 .01981608 .13769531 .08483887 .07486979 .14987183 .04345703 .23943074 .04345703 .35351563M.19238281 .35839845C.19238281 .27734376 .21110027 .21590169 .24853516 .17407227 .28597007 .13224285 .3334961 .111328128 .39111329 .111328128 .44873048 .111328128 .49601237 .13208008 .532959 .17358399 .5699056 .21508789 .5883789 .27734376 .5883789 .36035157 .5883789 .4423828 .57039389 .50358077 .5344238 .5439453 .49845378 .5843099 .4506836 .6044922 .39111329 .6044922 .33154298 .6044922 .28352867 .58406576 .24707031 .5432129 .21061199 .50236007 .19238281 .44075523 .19238281 .35839845Z"/>
<path id="font_3_55" d="M.23388672 0V.59472659H.021484375V.7158203H.59033206V.59472659H.37841798V0H.23388672Z"/>
<path id="font_3_92" d="M.0068359377 .5185547H.15283203L.27685548 .15003968 .39794923 .5185547H.54003909L.3569336 .019363404 .32421876-.07128906C.31217448-.1015625 .30069987-.12467448 .28979493-.140625 .27888999-.15657552 .26635743-.16951497 .25219728-.17944336 .23803711-.18937175 .22062175-.19710286 .19995117-.20263672 .1792806-.20817058 .15592449-.2109375 .12988281-.2109375 .103515628-.2109375 .07763672-.20817058 .052246095-.20263672L.040039064-.095214847C.061523439-.09944662 .08089193-.1015625 .09814453-.1015625 .13004558-.1015625 .15364583-.09220377 .16894531-.07348633 .1842448-.05476888 .19596355-.030924479 .20410156-.001953125L.0068359377 .5185547Z"/>
<path id="font_3_83" d="M.067871097 .5185547H.19580078V.4423828C.21240235 .46842448 .23486328 .48958335 .2631836 .5058594 .2915039 .52213546 .32291667 .53027346 .35742188 .53027346 .41764323 .53027346 .46875 .50667318 .5107422 .45947267 .5527344 .41227214 .57373049 .34651695 .57373049 .26220704 .57373049 .17561849 .5525716 .108317058 .5102539 .060302736 .4679362 .012288411 .41666667-.01171875 .3564453-.01171875 .32779948-.01171875 .3018392-.0060221354 .27856446 .0053710939 .2552897 .016764323 .23079427 .036295576 .20507813 .063964847V-.19726563H.067871097V.5185547M.20361328 .2682953C.20361328 .2101186 .21516927 .1671346 .23828125 .13934326 .26139323 .11155192 .28955079 .09765625 .3227539 .09765625 .35465495 .09765625 .3811849 .1104126 .40234376 .1359253 .4235026 .16143799 .43408204 .20328777 .43408204 .2614746 .43408204 .31575523 .4231771 .35605876 .4013672 .38238526 .37955729 .40871177 .35253907 .421875 .3203125 .421875 .28678385 .421875 .2589518 .4089559 .2368164 .38311769 .21468099 .35727946 .20361328 .31900535 .20361328 .2682953Z"/>
<path id="font_3_72" d="M.3720703 .16503906 .50878909 .14160156C.49121095 .09163412 .4634603 .053588869 .4255371 .02746582 .38761393 .0013427734 .34016929-.01171875 .28320313-.01171875 .19303386-.01171875 .12630208 .017740885 .08300781 .076660159 .048828126 .12386068 .03173828 .18343099 .03173828 .2553711 .03173828 .3413086 .05419922 .40861003 .099121097 .4572754 .14404297 .50594076 .20084636 .53027346 .26953126 .53027346 .3466797 .53027346 .4075521 .50480148 .45214845 .45385743 .49674479 .40291343 .5180664 .32486979 .5161133 .21972656H.17236328C.17333985 .17903646 .18440755 .14737956 .2055664 .12475586 .22672527 .102132167 .25309245 .09082031 .28466798 .09082031 .30615235 .09082031 .32421876 .09667969 .3388672 .10839844 .35351563 .12011719 .36458335 .13899739 .3720703 .16503906M.3798828 .30371095C.37890626 .34326173 .36865235 .3733317 .3491211 .3939209 .32958985 .4145101 .3058268 .4248047 .27783204 .4248047 .24788411 .4248047 .22314453 .41394554 .20361328 .39222718 .18408203 .37049867 .17447917 .34099327 .17480469 .30371095H.3798828Z"/>
<path id="font_3_39" d="M.072265628 .7158203H.33642579C.3959961 .7158203 .44140626 .711263 .47265626 .70214846 .51464846 .6897786 .55061849 .66780599 .5805664 .63623049 .61051437 .60465499 .6333008 .5659993 .6489258 .5202637 .6645508 .47452799 .6723633 .4181315 .6723633 .35107423 .6723633 .29215495 .66503909 .2413737 .6503906 .19873047 .632487 .14664714 .6069336 .10449219 .57373049 .072265628 .54866537 .047851564 .5148112 .028808594 .47216798 .015136719 .44026695 .0050455729 .3976237 0 .34423829 0H.072265628V.7158203M.21679688 .59472659V.12109375H.32470704C.36507163 .12109375 .39420573 .1233724 .41210938 .12792969 .43554688 .13377889 .45499674 .14369202 .47045899 .15766907 .48592124 .1716563 .49853517 .19466655 .5083008 .22669983 .5180664 .25873313 .5229492 .30238853 .5229492 .35766603 .5229492 .4129435 .5180664 .4553782 .5083008 .4849701 .49853517 .51456198 .48486329 .5376485 .46728517 .55422976 .44970704 .5708211 .42740885 .58204147 .40039063 .5878906 .38020835 .59244796 .34065757 .59472659 .28173829 .59472659H.21679688Z"/>
<clipPath id="clip_5">
<path transform="matrix(.24,0,0,.24,0,0)" d="M78.125 78.125H565.625V571.875H78.125Z" clip-rule="evenodd"/>
</clipPath>
<clipPath id="clip_6">
<path transform="matrix(.24,0,0,.24,0,0)" d="M338.52503 131.80233H525.00698V163.25713H338.52503Z" clip-rule="evenodd"/>
</clipPath>
<path id="font_7_13" d="M.03125 .58496096 .053710939 .6542969C.10546875 .63569137 .1430664 .61957809 .1665039 .60595706 .16031902 .6648763 .1570638 .7054036 .15673828 .72753909H.22753906C.2265625 .6953125 .22281902 .65494796 .2163086 .6064453 .24983724 .62372848 .2882487 .63967898 .33154298 .6542969L.3540039 .58496096C.31266276 .5708008 .2721354 .56136068 .23242188 .5566406 .25227867 .539388 .28027345 .5086263 .31640626 .46435548L.2578125 .42285157C.2389323 .44856773 .21663411 .4835612 .19091797 .52783206 .16682942 .4819336 .14567058 .4469401 .1274414 .42285157L.06982422 .46435548C.10758463 .51090499 .13460286 .5416667 .1508789 .5566406 .10888672 .56507369 .069010417 .57451376 .03125 .58496096Z"/>
<path id="font_7_83" d="M.06591797-.19921875V.5185547H.1459961V.45166017C.1648763 .4778646 .18619792 .4975179 .20996094 .5106201 .23372396 .52372238 .26253257 .53027346 .29638673 .53027346 .34065757 .53027346 .37972007 .5188802 .41357423 .49609376 .44742839 .47330729 .47298179 .4411621 .49023438 .3996582 .507487 .3581543 .5161133 .31266276 .5161133 .2631836 .5161133 .2101237 .5065918 .16235352 .48754884 .11987305 .46850587 .07739258 .44083659 .044840497 .40454103 .022216797 .36824546-.00040690104 .33007813-.01171875 .29003907-.01171875 .2607422-.01171875 .23445638-.005452474 .21118164 .007080078 .1879069 .019622803 .16878255 .035461427 .1538086 .054595949V-.19921875H.06591797M.14550781 .25708009C.14550781 .19042969 .15901692 .14117432 .18603516 .109313968 .21305339 .07745361 .24576824 .061523439 .2841797 .061523439 .3232422 .061523439 .35668946 .07802328 .38452149 .11102295 .41235353 .14402263 .42626954 .19514974 .42626954 .2644043 .42626954 .33040367 .41267906 .37982179 .38549806 .4126587 .35831706 .4454956 .32584635 .46191407 .28808595 .46191407 .25065104 .46191407 .2175293 .44443766 .1887207 .40948487 .15991211 .37453208 .14550781 .32373048 .14550781 .25708009Z"/>
<path id="font_7_66" d="M-.015136719-.19921875V-.13574219H.5673828V-.19921875H-.015136719Z"/>
<path id="font_7_87" d="M.2578125 .07763672 .2705078 0C.24576824-.0045572917 .22363281-.0068359377 .20410156-.0068359377 .17220052-.0068359377 .14746094-.0017903646 .12988281 .008300781 .11230469 .018391928 .0999349 .031656904 .09277344 .048095704 .08561198 .06453451 .08203125 .099121097 .08203125 .15185547V.4501953H.017578125V.5185547H.08203125V.6473236L.1694336 .7001953V.5185547H.2578125V.4501953H.1694336V.14697266C.1694336 .121907558 .17097982 .10579427 .17407227 .09863281 .17716472 .09147135 .18221028 .08577474 .18920899 .08154297 .19620769 .077311199 .20621746 .07519531 .21923828 .07519531 .2290039 .07519531 .24186199 .07600912 .2578125 .07763672Z"/>
<path id="font_7_85" d="M.064941409 0V.5185547H.14404297V.4404297C.16422527 .4770101 .18286133 .50112918 .19995117 .51278689 .21704102 .5244446 .23583985 .53027346 .25634767 .53027346 .28597007 .53027346 .31608073 .520874 .3466797 .5020752L.31640626 .42089845C.29492188 .43359376 .2734375 .4399414 .25195313 .4399414 .23274739 .4399414 .2154948 .43415324 .20019531 .4225769 .18489583 .41101075 .17399089 .3949636 .16748047 .37443543 .15771485 .3431549 .15283203 .3089396 .15283203 .27178956V0H.064941409Z"/>
<path id="font_7_76" d="M.06640625 .6142578V.7158203H.15429688V.6142578H.06640625M.06640625 0V.5185547H.15429688V0H.06640625Z"/>
<path id="font_7_74" d="M.049804689-.04296875 .1352539-.055664064C.13883464-.08203125 .14876302-.10123698 .16503906-.11328125 .18684896-.1295573 .21663411-.13769531 .25439454-.13769531 .29508464-.13769531 .3264974-.12953694 .3486328-.113220218 .37076823-.09691366 .3857422-.07407633 .3935547-.044708253 .39811198-.026774088 .40022788 .010904948 .39990235 .06832886 .36149089 .022776286 .3136393 0 .25634767 0 .1850586 0 .12988281 .025716147 .09082031 .07714844 .051757814 .12858074 .032226564 .19026692 .032226564 .26220704 .032226564 .3116862 .041178388 .35734049 .05908203 .39916993 .07698568 .44099937 .10294596 .47330729 .13696289 .49609376 .17097982 .5188802 .2109375 .53027346 .25683595 .53027346 .31803385 .53027346 .3684896 .5053711 .40820313 .4555664V.5185547H.4892578V.070007327C.4892578-.010772705 .48103843-.06801859 .4645996-.10173035 .4481608-.1354421 .42211915-.16206868 .3864746-.1816101 .35083009-.2011617 .30696617-.2109375 .2548828-.2109375 .19303386-.2109375 .1430664-.19698079 .10498047-.16906739 .06689453-.14115398 .048502607-.099121097 .049804689-.04296875M.122558597 .26853944C.122558597 .20067851 .1360677 .15116374 .16308594 .11999512 .19010417 .0888265 .22395833 .07324219 .26464845 .07324219 .30501304 .07324219 .3388672 .08874512 .36621095 .11975098 .3935547 .15075684 .40722657 .19938152 .40722657 .265625 .40722657 .3289388 .3931478 .3766683 .36499024 .40881349 .33683268 .44095866 .30289714 .45703126 .2631836 .45703126 .2241211 .45703126 .19091797 .4412028 .16357422 .4095459 .13623047 .377889 .122558597 .33088685 .122558597 .26853944Z"/>
<path id="font_7_72" d="M.42089845 .16699219 .51171877 .15576172C.49739585 .10270182 .47086589 .061523439 .4321289 .032226564 .39339195 .0029296876 .34391276-.01171875 .2836914-.01171875 .20784505-.01171875 .14770508 .01163737 .103271488 .05834961 .05883789 .10506185 .036621095 .17057292 .036621095 .2548828 .036621095 .3421224 .05908203 .40983073 .104003909 .4580078 .14892578 .5061849 .20719402 .53027346 .2788086 .53027346 .34814454 .53027346 .40478517 .5067088 .44873048 .45957948 .49267579 .41246034 .51464846 .34616599 .51464846 .2606964 .51464846 .25549827 .51448568 .247701 .51416018 .23730469H.1274414C.13069661 .1805013 .14680989 .13700359 .17578125 .10681152 .20475261 .07661947 .24088542 .061523439 .2841797 .061523439 .31640626 .061523439 .34391276 .0699056 .36669923 .08666992 .3894857 .10344442 .4075521 .1302185 .42089845 .16699219M.13232422 .31054688H.421875C.41796876 .3534546 .40690104 .38563539 .38867188 .40708924 .3606771 .4403839 .3243815 .45703126 .27978517 .45703126 .23942058 .45703126 .20548503 .44374085 .17797852 .41716004 .150472 .3905894 .1352539 .35505168 .13232422 .31054688Z"/>
<path id="font_7_82" d="M.033203126 .25927735C.033203126 .355306 .059895833 .42643229 .11328125 .47265626 .15787761 .5110677 .21223958 .53027346 .2763672 .53027346 .34765626 .53027346 .40592448 .5069173 .45117188 .46020509 .49641929 .41349284 .51904299 .34895835 .51904299 .26660157 .51904299 .1998698 .5090332 .14737956 .48901368 .10913086 .46899415 .070882167 .43986003 .041178388 .40161134 .020019532 .36336265-.0011393229 .3216146-.01171875 .2763672-.01171875 .20377605-.01171875 .1451009 .011555989 .1003418 .05810547 .055582685 .104654949 .033203126 .17171224 .033203126 .25927735M.123535159 .25952149C.123535159 .19335938 .13802083 .14381917 .16699219 .11090088 .19596355 .07798258 .23242188 .061523439 .2763672 .061523439 .31998698 .061523439 .35628257 .078063968 .3852539 .11114502 .41422526 .14422608 .42871095 .19465637 .42871095 .2624359 .42871095 .32632957 .4141439 .3747355 .38500978 .4076538 .35587565 .4405721 .31966148 .45703126 .2763672 .45703126 .23242188 .45703126 .19596355 .44065348 .16699219 .40789796 .13802083 .37514244 .123535159 .3256836 .123535159 .25952149Z"/>
<path id="font_7_30" d="M.08886719 .41796876V.5185547H.18896485V.41796876H.08886719M.08886719 0V.10058594H.18896485V.000289917C.18896485-.036575319 .18245442-.066340129 .1694336-.08900452 .15641277-.11167908 .13574219-.12921143 .107421878-.14160156L.08300781-.103515628C.1015625-.0954183 .115234378-.08351135 .12402344-.0677948 .1328125-.052078248 .13769531-.02947998 .13867188 0H.08886719Z"/>
<clipPath id="clip_8">
<path transform="matrix(.24,0,0,.24,0,0)" d="M78.125 78.125H565.625V571.875H78.125Z" clip-rule="evenodd"/>
</clipPath>
<clipPath id="clip_9">
<path transform="matrix(.24,0,0,.24,0,0)" d="M86.88672 174.49098H273.36866V208.19252H86.88672Z" clip-rule="evenodd"/>
</clipPath>
<clipPath id="clip_10">
<path transform="matrix(.24,0,0,.24,0,0)" d="M78.125 78.125H565.625V571.875H78.125Z" clip-rule="evenodd"/>
</clipPath>
<clipPath id="clip_11">
<path transform="matrix(.24,0,0,.24,0,0)" d="M338.52503 174.49098H507.03285V208.19252H338.52503Z" clip-rule="evenodd"/>
</clipPath>
<path id="font_7_70" d="M.40429688 .19042969 .49072267 .17919922C.48128257 .11947632 .45711265 .07272339 .4182129 .03894043 .37931315 .005167643 .33154298-.01171875 .27490235-.01171875 .2039388-.01171875 .14689128 .011474609 .103759769 .057861329 .060628255 .10424805 .0390625 .17073567 .0390625 .25732423 .0390625 .3133138 .048339845 .3623047 .06689453 .40429688 .08544922 .44628907 .11368815 .4777832 .15161133 .4987793 .1895345 .5197754 .23079427 .53027346 .27539063 .53027346 .33170573 .53027346 .37776695 .51598617 .41357423 .4874115 .4493815 .45884706 .47233073 .4182841 .48242188 .36572267L.39697267 .35253907C.38883464 .38720704 .37443034 .4132894 .35375978 .43078614 .3330892 .44828288 .30810548 .45703126 .2788086 .45703126 .23453777 .45703126 .1985677 .4412384 .17089844 .4096527 .14322917 .37807719 .12939453 .32811485 .12939453 .25976563 .12939453 .19043987 .14274089 .1400655 .1694336 .10864258 .1961263 .07722982 .23095703 .061523439 .27392579 .061523439 .308431 .061523439 .3372396 .07206217 .36035157 .09313965 .38346354 .114217128 .39811198 .14664714 .40429688 .19042969Z"/>
<path id="font_7_75" d="M.06591797 0V.7158203H.1538086V.45898438C.19482422 .50651046 .24658203 .53027346 .30908204 .53027346 .3474935 .53027346 .38085938 .5227051 .4091797 .50756838 .4375 .49243165 .45776368 .47151695 .4699707 .44482423 .48217774 .4181315 .48828126 .37939454 .48828126 .32861329V0H.40039063V.32861329C.40039063 .3725586 .39086915 .40454103 .37182618 .42456056 .3527832 .44458009 .32584635 .45458985 .29101563 .45458985 .26497398 .45458985 .24047852 .4478353 .2175293 .43432618 .19458008 .42081706 .17822266 .4025065 .16845703 .37939454 .1586914 .35628257 .1538086 .3243815 .1538086 .2836914V0H.06591797Z"/>
<clipPath id="clip_12">
<path transform="matrix(.24,0,0,.24,0,0)" d="M78.125 78.125H565.625V571.875H78.125Z" clip-rule="evenodd"/>
</clipPath>
<clipPath id="clip_13">
<path transform="matrix(.24,0,0,.24,0,0)" d="M86.88672 219.42638H174.51087V253.12795H86.88672Z" clip-rule="evenodd"/>
</clipPath>
<path id="font_3_76" d="M.071777347 .5888672V.7158203H.20898438V.5888672H.071777347M.071777347 0V.5185547H.20898438V0H.071777347Z"/>
<path id="font_3_27" d="M.16015625 .38645936C.12467448 .40142314 .09887695 .42199708 .08276367 .44818116 .06665039 .47436524 .05859375 .5030721 .05859375 .53430178 .05859375 .5876567 .07722982 .6317342 .11450195 .6665344 .1517741 .7013448 .20475261 .71875 .2734375 .71875 .34147135 .71875 .3942871 .7013448 .43188478 .6665344 .46948243 .6317342 .48828126 .5876567 .48828126 .53430178 .48828126 .50112918 .47965495 .4716085 .46240235 .44573976 .44514976 .4198812 .42089845 .40012107 .38964845 .38645936 .42936198 .37045799 .45955406 .34711204 .4802246 .3164215 .5008952 .285731 .51123049 .25030519 .51123049 .21014405 .51123049 .14387004 .49015299 .08999634 .44799806 .04852295 .4058431 .007059733 .34977214-.013671875 .27978517-.013671875 .21468099-.013671875 .16048177 .0034688314 .1171875 .037750246 .06608073 .0782369 .040527345 .13374329 .040527345 .20426941 .040527345 .24312847 .050130208 .27879844 .06933594 .3112793 .088541667 .34377036 .1188151 .36883036 .16015625 .38645936M.18847656 .5241699C.18847656 .49689738 .19620769 .4756317 .21166992 .46037293 .22713216 .4451243 .24772136 .4375 .2734375 .4375 .29947917 .4375 .3203125 .4452057 .3359375 .46061708 .3515625 .4760386 .359375 .49738566 .359375 .5246582 .359375 .55030319 .3516439 .5708313 .33618165 .5862427 .3207194 .60166427 .30029298 .609375 .27490235 .609375 .24853516 .609375 .22753906 .6015828 .21191406 .58599856 .19628906 .5704244 .18847656 .5498149 .18847656 .5241699M.17578125 .21755982C.17578125 .17955525 .1854655 .14990743 .20483399 .12861634 .22420247 .10732523 .24837239 .09667969 .27734376 .09667969 .30566407 .09667969 .32910157 .106913249 .34765626 .12738037 .36621095 .14785767 .37548829 .1774292 .37548829 .21609497 .37548829 .24983724 .3660482 .27694194 .34716798 .29740907 .32828776 .31788636 .30436198 .328125 .27539063 .328125 .24186199 .328125 .21687825 .3164927 .20043946 .29322816 .18400066 .26997376 .17578125 .24475098 .17578125 .21755982Z"/>
<clipPath id="clip_14">
<path transform="matrix(.24,0,0,.24,0,0)" d="M78.125 78.125H565.625V571.875H78.125Z" clip-rule="evenodd"/>
</clipPath>
<clipPath id="clip_15">
<path transform="matrix(.24,0,0,.24,0,0)" d="M338.52503 219.42638H473.3313V253.12795H338.52503Z" clip-rule="evenodd"/>
</clipPath>
<path id="font_7_81" d="M.06591797 0V.5185547H.14501953V.4453125C.18310547 .5019531 .23811849 .53027346 .3100586 .53027346 .3413086 .53027346 .3700358 .5246582 .39624024 .51342776 .42244468 .50219729 .44205729 .48746745 .45507813 .46923829 .46809898 .45100913 .47721354 .42936198 .48242188 .40429688 .4856771 .38802085 .4873047 .35953776 .4873047 .31884767V0H.39941407V.31576539C.39941407 .35161338 .3959961 .37841798 .38916017 .3961792 .38232423 .41394044 .37019859 .42811585 .3527832 .43870545 .33536784 .44929505 .3149414 .45458985 .2915039 .45458985 .254069 .45458985 .22176107 .44269309 .19458008 .41889955 .1673991 .39511619 .1538086 .34998576 .1538086 .2835083V0H.06591797Z"/>
<clipPath id="clip_16">
<path transform="matrix(.24,0,0,.24,0,0)" d="M78.125 78.125H565.625V571.875H78.125Z" clip-rule="evenodd"/>
</clipPath>
<clipPath id="clip_17">
<path transform="matrix(.24,0,0,.24,0,0)" d="M86.88672 264.36183H174.51087V293.56983H86.88672Z" clip-rule="evenodd"/>
</clipPath>
<clipPath id="clip_18">
<path transform="matrix(.24,0,0,.24,0,0)" d="M78.125 78.125H565.625V571.875H78.125Z" clip-rule="evenodd"/>
</clipPath>
<clipPath id="clip_19">
<path transform="matrix(.24,0,0,.24,0,0)" d="M338.52503 264.36183H455.35707V293.56983H338.52503Z" clip-rule="evenodd"/>
</clipPath>
<clipPath id="clip_20">
<path transform="matrix(.24,0,0,.24,0,0)" d="M78.125 78.125H565.625V571.875H78.125Z" clip-rule="evenodd"/>
</clipPath>
<clipPath id="clip_21">
<path transform="matrix(.24,0,0,.24,0,0)" d="M86.88672 302.5569H174.51087V331.7649H86.88672Z" clip-rule="evenodd"/>
</clipPath>
<clipPath id="clip_22">
<path transform="matrix(.24,0,0,.24,0,0)" d="M78.125 78.125H565.625V571.875H78.125Z" clip-rule="evenodd"/>
</clipPath>
<clipPath id="clip_23">
<path transform="matrix(.24,0,0,.24,0,0)" d="M338.52503 302.5569H500.29249V331.7649H338.52503Z" clip-rule="evenodd"/>
</clipPath>
<path id="font_7_68" d="M.40429688 .06402588C.37174479 .03633626 .34041343 .016789755 .31030274 .0053863527 .28019206-.0060170495 .24788411-.01171875 .2133789-.01171875 .15641277-.01171875 .11263021 .0022074383 .08203125 .030059815 .051432294 .05791219 .036132814 .09350077 .036132814 .13682556 .036132814 .16222637 .04191081 .18542989 .053466798 .20643616 .06502279 .22745259 .08015951 .24431356 .09887695 .25701905 .1175944 .26972453 .13867188 .2793325 .16210938 .2858429 .17936199 .29041038 .20540364 .29480998 .24023438 .29904176 .3111979 .30744425 .363444 .3174642 .39697267 .32910157 .3972982 .34109498 .39746095 .3487142 .39746095 .35195924 .39746095 .38763429 .38916017 .4127655 .3725586 .4273529 .35009767 .44713847 .31673179 .45703126 .27246095 .45703126 .2311198 .45703126 .20060222 .44978843 .1809082 .43530274 .16121419 .42081706 .14664714 .39518229 .13720703 .35839845L.05126953 .3701172C.05908203 .40701295 .0719401 .43680827 .08984375 .45950318 .1077474 .4821981 .1336263 .4996643 .16748047 .51190188 .20133464 .5241496 .24055989 .53027346 .28515626 .53027346 .3294271 .53027346 .36539714 .5250651 .3930664 .51464846 .4207357 .50423178 .44108073 .49112956 .45410157 .4753418 .4671224 .45955406 .47623698 .43961589 .4814453 .41552735 .484375 .40055339 .48583985 .37353517 .48583985 .33447267V.21728516C.48583985 .13557942 .48771159 .08390299 .49145509 .06225586 .49519859 .040608724 .5026042 .019856772 .5136719 0H.421875C.4127604 .018249512 .40690104 .039591474 .40429688 .06402588M.39697267 .2607422C.36507163 .24760945 .31722007 .2364502 .25341798 .2272644 .21728516 .22203572 .19173177 .21615093 .17675781 .20960999 .16178386 .20307923 .15022786 .19351705 .14208985 .18092346 .13395183 .16834004 .12988281 .15436809 .12988281 .13900757 .12988281 .115478519 .13875325 .09586588 .15649414 .08016968 .17423503 .06448364 .20019531 .056640626 .234375 .056640626 .26822917 .056640626 .29833985 .064081829 .32470704 .07896423 .35107423 .09384664 .37044273 .11420695 .3828125 .14004517 .3922526 .16000366 .39697267 .18944295 .39697267 .22836304V.2607422Z"/>
<path id="font_7_79" d="M.063964847 0V.7158203H.15185547V0H.063964847Z"/>
<path id="font_7_73" d="M.08691406 0V.4501953H.009277344V.5185547H.08691406V.5736084C.08691406 .6083577 .09000651 .6341756 .096191409 .651062 .104654949 .6737874 .11954752 .69221499 .14086914 .7063446 .16219075 .72047427 .1920573 .72753909 .23046875 .72753909 .25520835 .72753909 .2825521 .7246094 .3125 .71875L.2993164 .64208987C.28108726 .64534506 .26383464 .64697268 .2475586 .64697268 .22086589 .64697268 .20198567 .6412964 .19091797 .62994387 .17985027 .6185913 .1743164 .5973511 .1743164 .56622317V.5185547H.27539063V.4501953H.1743164V0H.08691406Z"/>
<path id="font_7_88" d="M.40576173 0V.076171878C.36539714 .017578125 .31054688-.01171875 .24121094-.01171875 .21061199-.01171875 .18204753-.005859375 .15551758 .005859375 .12898763 .017578125 .10929362 .03230794 .09643555 .050048829 .08357748 .06778971 .07454427 .08951823 .06933594 .115234378 .06575521 .13248699 .063964847 .15983074 .063964847 .19726563V.5185547H.15185547V.23095703C.15185547 .1850586 .15364583 .15413411 .15722656 .1381836 .16276042 .11507162 .17447917 .09692383 .19238281 .083740238 .21028646 .07055664 .23242188 .063964847 .25878907 .063964847 .28515626 .063964847 .30989585 .0707194 .3330078 .084228519 .35611979 .09773763 .3724772 .116129558 .38208009 .1394043 .39168296 .16267903 .39648438 .19645183 .39648438 .24072266V.5185547H.484375V0H.40576173Z"/>
<clipPath id="clip_24">
<path transform="matrix(.24,0,0,.24,0,0)" d="M78.125 78.125H565.625V571.875H78.125Z" clip-rule="evenodd"/>
</clipPath>
<clipPath id="clip_25">
<path transform="matrix(.24,0,0,.24,0,0)" d="M86.88672 340.75196H143.05603V369.96003H86.88672Z" clip-rule="evenodd"/>
</clipPath>
<path id="font_3_69" d="M.06591797 0V.7158203H.203125V.4580078C.2454427 .5061849 .2955729 .53027346 .35351563 .53027346 .41666667 .53027346 .46891276 .5074056 .5102539 .46166993 .55159506 .41593424 .5722656 .3502604 .5722656 .26464845 .5722656 .17610677 .5511882 .107910159 .5090332 .060058595 .46687828 .012207031 .4156901-.01171875 .35546876-.01171875 .32584635-.01171875 .29663087-.004313151 .26782228 .010498047 .23901367 .025309245 .2141927 .04720052 .19335938 .076171878V0H.06591797M.20214844 .2702484C.20214844 .21661885 .21061199 .17696636 .22753906 .1512909 .2513021 .11488342 .2828776 .09667969 .32226563 .09667969 .35253907 .09667969 .37833659 .10959879 .3996582 .13543701 .42097984 .16127523 .43164063 .20198567 .43164063 .25756837 .43164063 .31673179 .42089845 .35939536 .39941407 .38555909 .3779297 .4117228 .3504232 .4248047 .31689454 .4248047 .28401695 .4248047 .2566732 .41204325 .23486328 .3865204 .21305339 .3610077 .20214844 .32225038 .20214844 .2702484Z"/>
<clipPath id="clip_26">
<path transform="matrix(.24,0,0,.24,0,0)" d="M78.125 78.125H565.625V571.875H78.125Z" clip-rule="evenodd"/>
</clipPath>
<clipPath id="clip_27">
<path transform="matrix(.24,0,0,.24,0,0)" d="M338.52503 340.75196H504.786V369.96003H338.52503Z" clip-rule="evenodd"/>
</clipPath>
<path id="font_7_71" d="M.40234376 0V.06542969C.36946617 .0139973959 .3211263-.01171875 .25732423-.01171875 .21598308-.01171875 .17797852-.00032552085 .14331055 .022460938 .10864258 .045247396 .08178711 .077067058 .06274414 .11791992 .043701173 .15877278 .034179689 .20572917 .034179689 .25878907 .034179689 .31054688 .04280599 .35750328 .060058595 .3996582 .077311199 .44181315 .1031901 .4741211 .13769531 .49658204 .17220052 .51904299 .21077474 .53027346 .25341798 .53027346 .28466798 .53027346 .3125 .52368167 .33691407 .51049807 .36132813 .49731446 .3811849 .48014323 .39648438 .45898438V.7158203H.48388673V0H.40234376M.12451172 .2590332C.12451172 .1928711 .13850911 .14341228 .1665039 .11065674 .1944987 .07790121 .22753906 .061523439 .265625 .061523439 .30403648 .061523439 .33666993 .077168788 .3635254 .10845947 .39038087 .13976033 .4038086 .18752034 .4038086 .2517395 .4038086 .32243858 .39013673 .3743286 .36279298 .40740968 .33544923 .44049073 .3017578 .45703126 .26171876 .45703126 .22265625 .45703126 .19002278 .4411367 .16381836 .40934754 .13761394 .37756858 .12451172 .32746379 .12451172 .2590332Z"/>
<path id="font_7_92" d="M.06201172-.20019531 .052246095-.11767578C.07145182-.12288412 .08821615-.12548828 .10253906-.12548828 .12207031-.12548828 .13769531-.12219238 .14941406-.115600589 .16113281-.10901896 .17073567-.09979757 .17822266-.0879364 .18375652-.079045619 .19270833-.056981405 .20507813-.021743775 .20670574-.016799927 .20930989-.009552002 .21289063 0L.016113282 .5185547H.110839847L.21875 .21896363C.23274739 .18095906 .24527996 .14101155 .25634767 .099121097 .2664388 .13939412 .27848307 .1786906 .29248048 .2170105L.4033203 .5185547H.49121095L.2939453-.009140015C.27278648-.06614685 .25634767-.105397548 .2446289-.12689209 .2290039-.15588379 .21110027-.17713928 .19091797-.19065857 .17073567-.20417786 .14664714-.2109375 .118652347-.2109375 .10172526-.2109375 .082845058-.20735677 .06201172-.20019531Z"/>
<clipPath id="clip_28">
<path transform="matrix(.24,0,0,.24,0,0)" d="M78.125 78.125H565.625V571.875H78.125Z" clip-rule="evenodd"/>
</clipPath>
<clipPath id="clip_29">
<path transform="matrix(.24,0,0,.24,0,0)" d="M86.88672 378.94709H143.05603V408.1551H86.88672Z" clip-rule="evenodd"/>
</clipPath>
<clipPath id="clip_30">
<path transform="matrix(.24,0,0,.24,0,0)" d="M78.125 78.125H565.625V571.875H78.125Z" clip-rule="evenodd"/>
</clipPath>
<clipPath id="clip_31">
<path transform="matrix(.24,0,0,.24,0,0)" d="M338.52503 378.94709H482.31837V408.1551H338.52503Z" clip-rule="evenodd"/>
</clipPath>
<clipPath id="clip_32">
<path transform="matrix(.24,0,0,.24,0,0)" d="M78.125 78.125H565.625V571.875H78.125Z" clip-rule="evenodd"/>
</clipPath>
<clipPath id="clip_33">
<path transform="matrix(.24,0,0,.24,0,0)" d="M86.88672 417.1422H143.05603V446.35023H86.88672Z" clip-rule="evenodd"/>
</clipPath>
<clipPath id="clip_34">
<path transform="matrix(.24,0,0,.24,0,0)" d="M78.125 78.125H565.625V571.875H78.125Z" clip-rule="evenodd"/>
</clipPath>
<clipPath id="clip_35">
<path transform="matrix(.24,0,0,.24,0,0)" d="M338.52503 417.1422H520.5134V446.35023H338.52503Z" clip-rule="evenodd"/>
</clipPath>
<path id="font_7_89" d="M.20996094 0 .0126953129 .5185547H.10546875L.21679688 .20800781C.22884114 .17447917 .23990886 .13964844 .25 .103515628 .2578125 .13085938 .26871745 .16373699 .28271485 .20214844L.39794923 .5185547H.48828126L.2919922 0H.20996094Z"/>
<clipPath id="clip_36">
<path transform="matrix(.24,0,0,.24,0,0)" d="M78.125 78.125H565.625V571.875H78.125Z" clip-rule="evenodd"/>
</clipPath>
<clipPath id="clip_37">
<path transform="matrix(.24,0,0,.24,0,0)" d="M86.88672 455.33729H190.23816V484.5453H86.88672Z" clip-rule="evenodd"/>
</clipPath>
<clipPath id="clip_38">
<path transform="matrix(.24,0,0,.24,0,0)" d="M78.125 78.125H565.625V571.875H78.125Z" clip-rule="evenodd"/>
</clipPath>
<clipPath id="clip_39">
<path transform="matrix(.24,0,0,.24,0,0)" d="M338.52503 455.33729H509.27955V484.5453H338.52503Z" clip-rule="evenodd"/>
</clipPath>
<path id="font_7_78" d="M.06640625 0V.7158203H.15429688V.3076172L.3623047 .5185547H.47607423L.27783204 .32617188 .49609376 0H.3876953L.2163086 .26513673 .15429688 .2055664V0H.06640625Z"/>
<clipPath id="clip_40">
<path transform="matrix(.24,0,0,.24,0,0)" d="M78.125 78.125H565.625V571.875H78.125Z" clip-rule="evenodd"/>
</clipPath>
<clipPath id="clip_41">
<path transform="matrix(.24,0,0,.24,0,0)" d="M86.88672 493.5324H190.23816V522.7404H86.88672Z" clip-rule="evenodd"/>
</clipPath>
<clipPath id="clip_42">
<path transform="matrix(.24,0,0,.24,0,0)" d="M78.125 78.125H565.625V571.875H78.125Z" clip-rule="evenodd"/>
</clipPath>
<clipPath id="clip_43">
<path transform="matrix(.24,0,0,.24,0,0)" d="M338.52503 493.5324H520.5134V522.7404H338.52503Z" clip-rule="evenodd"/>
</clipPath>
<clipPath id="clip_44">
<path transform="matrix(.24,0,0,.24,0,0)" d="M78.125 78.125H565.625V571.875H78.125Z" clip-rule="evenodd"/>
</clipPath>
<clipPath id="clip_45">
<path transform="matrix(.24,0,0,.24,0,0)" d="M86.88672 531.7275H190.23816V560.9355H86.88672Z" clip-rule="evenodd"/>
</clipPath>
<clipPath id="clip_46">
<path transform="matrix(.24,0,0,.24,0,0)" d="M78.125 78.125H565.625V571.875H78.125Z" clip-rule="evenodd"/>
</clipPath>
<clipPath id="clip_47">
<path transform="matrix(.24,0,0,.24,0,0)" d="M338.52503 531.7275H533.994V560.9355H338.52503Z" clip-rule="evenodd"/>
</clipPath>
<path id="font_7_90" d="M.1616211 0 .0029296876 .5185547H.09375L.17626953 .21928406 .20703125 .107910159C.20833333 .11343384 .21728516 .14904277 .23388672 .21473694L.31640626 .5185547H.40673829L.484375 .21783448 .5102539 .118652347 .54003909 .21876526 .62890627 .5185547H.71435549L.5522461 0H.4609375L.37841798 .31071473 .35839845 .39892579 .25341798 0H.1616211Z"/>
<path id="font_7_86" d="M.030761719 .15527344 .11767578 .16894531C.122558597 .13426717 .1361491 .107691448 .15844727 .08921814 .18074544 .070755008 .21191406 .061523439 .25195313 .061523439 .29231773 .061523439 .32226563 .06967672 .34179688 .08598328 .36132813 .10230001 .37109376 .12143453 .37109376 .14338684 .37109376 .16309102 .36246745 .17859395 .34521485 .18989563 .33317057 .1976471 .30322267 .20749919 .2553711 .2194519 .19091797 .23573812 .14624024 .24982707 .12133789 .26171876 .09643555 .27361045 .077555339 .29006449 .064697269 .31108094 .05183919 .33209739 .045410158 .35531108 .045410158 .38072206 .045410158 .40385438 .05069987 .4252777 .061279298 .44499208 .07185873 .46470643 .08626302 .4810791 .10449219 .4941101 .11816406 .5042114 .13680013 .5127614 .16040039 .51976016 .18400066 .526769 .20930989 .53027346 .23632813 .53027346 .27701823 .53027346 .31274415 .52437338 .34350587 .51257327 .37426759 .50078329 .39697267 .48480735 .4116211 .4646454 .42626954 .44449363 .4363607 .4175415 .44189454 .38378907L.35595704 .3720703C.35205079 .39876304 .34073893 .41959635 .32202149 .4345703 .30330406 .44954429 .27685548 .45703126 .24267578 .45703126 .2023112 .45703126 .17350261 .45038859 .15625 .43710328 .13899739 .42382813 .1303711 .40827943 .1303711 .39045716 .1303711 .37912498 .13395183 .3689219 .14111328 .35984803 .14827474 .35045878 .1595052 .34268699 .17480469 .3365326 .18359375 .33328758 .20947266 .32583619 .2524414 .31417848 .31461589 .29758708 .35799156 .28400675 .38256837 .2734375 .40714518 .26286827 .42643229 .24749756 .4404297 .22732544 .4544271 .2071635 .46142579 .18212383 .46142579 .15220642 .46142579 .12292989 .45288087 .09536234 .43579103 .069503787 .41870118 .043655397 .39404298 .02365621 .3618164 .009506226 .32958985-.0046437585 .2931315-.01171875 .2524414-.01171875 .1850586-.01171875 .13370769 .002319336 .09838867 .030395508 .063069667 .05847168 .040527345 .100097659 .030761719 .15527344Z"/>
</defs>
<g clip-path="url(#clip_1)">
<path transform="matrix(.75,0,0,.75,0,0)" d="M0 0H206V208H0Z" fill="#ffffff"/>
</g>
<g clip-path="url(#clip_2)">
<path transform="matrix(.53922489,0,0,.53922489,-240.40163,-35.50094)" d="M483 122V103H695.48V122" fill="#e6e6e6"/>
<path transform="matrix(.53922489,0,0,.53922489,-240.40163,-35.50094)" stroke-width="1" stroke-linecap="butt" stroke-miterlimit="10" stroke-linejoin="miter" fill="none" stroke="#000000" d="M483 122V103H695.48V122"/>
<path transform="matrix(.53922489,0,0,.53922489,-240.40163,-35.50094)" stroke-width="1" stroke-linecap="butt" stroke-miterlimit="10" stroke-linejoin="miter" fill="none" stroke="#000000" d="M483 122V316.86H695.48V122"/>
<path transform="matrix(.53922489,0,0,.53922489,-240.40163,-35.50094)" stroke-width="1" stroke-linecap="butt" stroke-miterlimit="10" stroke-linejoin="miter" fill="none" stroke="#000000" d="M483 122H695.48"/>
<path transform="matrix(.53922489,0,0,.53922489,-240.40163,-35.50094)" stroke-width="1" stroke-linecap="butt" stroke-miterlimit="10" stroke-linejoin="miter" fill="none" stroke="#000000" d="M483 140H595 695"/>
<path transform="matrix(.53922489,0,0,.53922489,-240.40163,-35.50094)" stroke-width="1" stroke-linecap="butt" stroke-miterlimit="10" stroke-linejoin="miter" fill="none" stroke="#000000" d="M483 161H595 695"/>
<path transform="matrix(.53922489,0,0,.53922489,-240.40163,-35.50094)" stroke-width="1" stroke-linecap="butt" stroke-miterlimit="10" stroke-linejoin="miter" fill="none" stroke="#000000" d="M483 181H595 695"/>
<path transform="matrix(.53922489,0,0,.53922489,-240.40163,-35.50094)" stroke-width="1" stroke-linecap="butt" stroke-miterlimit="10" stroke-linejoin="miter" fill="none" stroke="#000000" d="M483 198H595 695"/>
<path transform="matrix(.53922489,0,0,.53922489,-240.40163,-35.50094)" stroke-width="1" stroke-linecap="butt" stroke-miterlimit="10" stroke-linejoin="miter" fill="none" stroke="#000000" d="M483 215H595 695"/>
<path transform="matrix(.53922489,0,0,.53922489,-240.40163,-35.50094)" stroke-width="1" stroke-linecap="butt" stroke-miterlimit="10" stroke-linejoin="miter" fill="none" stroke="#000000" d="M483 232H595 695"/>
<path transform="matrix(.53922489,0,0,.53922489,-240.40163,-35.50094)" stroke-width="1" stroke-linecap="butt" stroke-miterlimit="10" stroke-linejoin="miter" fill="none" stroke="#000000" d="M483 249H595 695"/>
<path transform="matrix(.53922489,0,0,.53922489,-240.40163,-35.50094)" stroke-width="1" stroke-linecap="butt" stroke-miterlimit="10" stroke-linejoin="miter" fill="none" stroke="#000000" d="M483 266H595 695"/>
<path transform="matrix(.53922489,0,0,.53922489,-240.40163,-35.50094)" stroke-width="1" stroke-linecap="butt" stroke-miterlimit="10" stroke-linejoin="miter" fill="none" stroke="#000000" d="M483 283H595 695"/>
<path transform="matrix(.53922489,0,0,.53922489,-240.40163,-35.50094)" stroke-width="1" stroke-linecap="butt" stroke-miterlimit="10" stroke-linejoin="miter" fill="none" stroke="#000000" d="M483 300H595 695"/>
<path transform="matrix(.53922489,0,0,.53922489,-240.40163,-35.50094)" stroke-width="1" stroke-linecap="butt" stroke-miterlimit="10" stroke-linejoin="miter" fill="none" stroke="#000000" d="M595 122V140 161 181 198 215 232 249 266 283 300 317"/>
<use data-text="s" xlink:href="#font_3_86" transform="matrix(6.4650008,0,0,-6.4650008,20.844407,27.581017)"/>
<use data-text="t" xlink:href="#font_3_87" transform="matrix(6.4650008,0,0,-6.4650008,24.439896,27.581017)"/>
<use data-text="m" xlink:href="#font_3_80" transform="matrix(6.4650008,0,0,-6.4650008,26.592789,27.581017)"/>
<use data-text="3" xlink:href="#font_3_22" transform="matrix(6.4650008,0,0,-6.4650008,32.3412,27.581017)"/>
<use data-text="2" xlink:href="#font_3_21" transform="matrix(6.4650008,0,0,-6.4650008,35.93672,27.581017)"/>
<use data-text="f" xlink:href="#font_3_73" transform="matrix(6.4650008,0,0,-6.4650008,39.53224,27.581017)"/>
<use data-text="4" xlink:href="#font_3_23" transform="matrix(6.4650008,0,0,-6.4650008,41.685106,27.581017)"/>
<use data-text="_" xlink:href="#font_3_66" transform="matrix(6.4650008,0,0,-6.4650008,45.280656,27.581017)"/>
<use data-text="u" xlink:href="#font_3_88" transform="matrix(6.4650008,0,0,-6.4650008,48.876146,27.581017)"/>
<use data-text="l" xlink:href="#font_3_79" transform="matrix(6.4650008,0,0,-6.4650008,52.82524,27.581017)"/>
<use data-text="t" xlink:href="#font_3_87" transform="matrix(6.4650008,0,0,-6.4650008,54.621416,27.581017)"/>
<use data-text="r" xlink:href="#font_3_85" transform="matrix(6.4650008,0,0,-6.4650008,56.774309,27.581017)"/>
<use data-text="a" xlink:href="#font_3_68" transform="matrix(6.4650008,0,0,-6.4650008,59.290208,27.581017)"/>
<use data-text="s" xlink:href="#font_3_86" transform="matrix(6.4650008,0,0,-6.4650008,62.885728,27.581017)"/>
<use data-text="o" xlink:href="#font_3_82" transform="matrix(6.4650008,0,0,-6.4650008,66.48125,27.581017)"/>
<use data-text="u" xlink:href="#font_3_88" transform="matrix(6.4650008,0,0,-6.4650008,70.43031,27.581017)"/>
<use data-text="n" xlink:href="#font_3_81" transform="matrix(6.4650008,0,0,-6.4650008,74.37941,27.581017)"/>
<use data-text="d" xlink:href="#font_3_71" transform="matrix(6.4650008,0,0,-6.4650008,78.328479,27.581017)"/>
<use data-text="_" xlink:href="#font_3_66" transform="matrix(6.4650008,0,0,-6.4650008,82.27757,27.581017)"/>
<use data-text="h" xlink:href="#font_3_75" transform="matrix(6.4650008,0,0,-6.4650008,85.87306,27.581017)"/>
<use data-text="w" xlink:href="#font_3_90" transform="matrix(6.4650008,0,0,-6.4650008,89.82216,27.581017)"/>
<use data-text="_" xlink:href="#font_3_66" transform="matrix(6.4650008,0,0,-6.4650008,94.850818,27.581017)"/>
<use data-text="t" xlink:href="#font_3_87" transform="matrix(6.4650008,0,0,-6.4650008,98.446338,27.581017)"/>
<path transform="matrix(.53922489,0,0,.53922489,-240.40163,-35.50094)" d="M483 122H595V140H483Z" fill="#ffffff"/>
<path transform="matrix(.53922489,0,0,.53922489,-240.40163,-35.50094)" stroke-width="1" stroke-linecap="square" stroke-miterlimit="10" stroke-linejoin="miter" fill="none" stroke="#000000" d="M595 140"/>
</g>
<g clip-path="url(#clip_4)">
<path transform="matrix(.53922489,0,0,.53922489,-240.67125,-35.77055)" d="M485 125H568V139H485Z" fill="#ffffff"/>
<use data-text="G" xlink:href="#font_3_42" transform="matrix(6.4706985,0,0,-6.4706985,20.852799,37.56403)"/>
<use data-text="P" xlink:href="#font_3_51" transform="matrix(6.4706985,0,0,-6.4706985,25.887009,37.56403)"/>
<use data-text="I" xlink:href="#font_3_44" transform="matrix(6.4706985,0,0,-6.4706985,30.202958,37.56403)"/>
<use data-text="O" xlink:href="#font_3_50" transform="matrix(6.4706985,0,0,-6.4706985,32.001817,37.56403)"/>
<use data-text="_" xlink:href="#font_3_66" transform="matrix(6.4706985,0,0,-6.4706985,37.036027,37.56403)"/>
<use data-text="T" xlink:href="#font_3_55" transform="matrix(6.4706985,0,0,-6.4706985,40.633745,37.56403)"/>
<use data-text="y" xlink:href="#font_3_92" transform="matrix(6.4706985,0,0,-6.4706985,44.103715,37.56403)"/>
<use data-text="p" xlink:href="#font_3_83" transform="matrix(6.4706985,0,0,-6.4706985,47.70143,37.56403)"/>
<use data-text="e" xlink:href="#font_3_72" transform="matrix(6.4706985,0,0,-6.4706985,51.655015,37.56403)"/>
<use data-text="D" xlink:href="#font_3_39" transform="matrix(6.4706985,0,0,-6.4706985,55.2527,37.56403)"/>
<use data-text="e" xlink:href="#font_3_72" transform="matrix(6.4706985,0,0,-6.4706985,59.924577,37.56403)"/>
<use data-text="f" xlink:href="#font_3_73" transform="matrix(6.4706985,0,0,-6.4706985,63.522264,37.56403)"/>
</g>
<g clip-path="url(#clip_5)">
<path transform="matrix(.53922489,0,0,.53922489,-240.40163,-35.50094)" d="M595 122H695V140H595Z" fill="#ffffff"/>
<path transform="matrix(.53922489,0,0,.53922489,-240.40163,-35.50094)" stroke-width="1" stroke-linecap="square" stroke-miterlimit="10" stroke-linejoin="miter" fill="none" stroke="#000000" d="M695 140"/>
</g>
<g clip-path="url(#clip_6)">
<path transform="matrix(.53922489,0,0,.53922489,-240.67125,-35.77055)" d="M597 125H680V139H597Z" fill="#ffffff"/>
<use data-text="*" xlink:href="#font_7_13" transform="matrix(6.4706985,0,0,-6.4706985,81.24599,37.56403)"/>
<use data-text="p" xlink:href="#font_7_83" transform="matrix(6.4706985,0,0,-6.4706985,83.76311,37.56403)"/>
<use data-text="_" xlink:href="#font_7_66" transform="matrix(6.4706985,0,0,-6.4706985,87.360828,37.56403)"/>
<use data-text="t" xlink:href="#font_7_87" transform="matrix(6.4706985,0,0,-6.4706985,90.95851,37.56403)"/>
<use data-text="r" xlink:href="#font_7_85" transform="matrix(6.4706985,0,0,-6.4706985,92.75737,37.56403)"/>
<use data-text="i" xlink:href="#font_7_76" transform="matrix(6.4706985,0,0,-6.4706985,94.912097,37.56403)"/>
<use data-text="g" xlink:href="#font_7_74" transform="matrix(6.4706985,0,0,-6.4706985,96.34859,37.56403)"/>
<use data-text="g" xlink:href="#font_7_74" transform="matrix(6.4706985,0,0,-6.4706985,99.946308,37.56403)"/>
<use data-text="e" xlink:href="#font_7_72" transform="matrix(6.4706985,0,0,-6.4706985,103.54402,37.56403)"/>
<use data-text="r" xlink:href="#font_7_85" transform="matrix(6.4706985,0,0,-6.4706985,107.14171,37.56403)"/>
<use data-text="_" xlink:href="#font_7_66" transform="matrix(6.4706985,0,0,-6.4706985,109.29646,37.56403)"/>
<use data-text="p" xlink:href="#font_7_83" transform="matrix(6.4706985,0,0,-6.4706985,112.89415,37.56403)"/>
<use data-text="o" xlink:href="#font_7_82" transform="matrix(6.4706985,0,0,-6.4706985,116.49187,37.56403)"/>
<use data-text="r" xlink:href="#font_7_85" transform="matrix(6.4706985,0,0,-6.4706985,120.089557,37.56403)"/>
<use data-text="t" xlink:href="#font_7_87" transform="matrix(6.4706985,0,0,-6.4706985,122.24431,37.56403)"/>
<use data-text=";" xlink:href="#font_7_30" transform="matrix(6.4706985,0,0,-6.4706985,124.04314,37.56403)"/>
</g>
<g clip-path="url(#clip_8)">
<path transform="matrix(.53922489,0,0,.53922489,-240.40163,-35.50094)" d="M483 140H595V161H483Z" fill="#99ccff"/>
<path transform="matrix(.53922489,0,0,.53922489,-240.40163,-35.50094)" stroke-width="1" stroke-linecap="square" stroke-miterlimit="10" stroke-linejoin="miter" fill="none" stroke="#6c8ebf" d="M595 161"/>
</g>
<g clip-path="url(#clip_9)">
<use data-text="G" xlink:href="#font_3_42" transform="matrix(6.4706985,0,0,-6.4706985,20.852799,47.809309)"/>
<use data-text="P" xlink:href="#font_3_51" transform="matrix(6.4706985,0,0,-6.4706985,25.887009,47.809309)"/>
<use data-text="I" xlink:href="#font_3_44" transform="matrix(6.4706985,0,0,-6.4706985,30.202958,47.809309)"/>
<use data-text="O" xlink:href="#font_3_50" transform="matrix(6.4706985,0,0,-6.4706985,32.001817,47.809309)"/>
<use data-text="_" xlink:href="#font_3_66" transform="matrix(6.4706985,0,0,-6.4706985,37.036027,47.809309)"/>
<use data-text="T" xlink:href="#font_3_55" transform="matrix(6.4706985,0,0,-6.4706985,40.633745,47.809309)"/>
<use data-text="y" xlink:href="#font_3_92" transform="matrix(6.4706985,0,0,-6.4706985,44.103715,47.809309)"/>
<use data-text="p" xlink:href="#font_3_83" transform="matrix(6.4706985,0,0,-6.4706985,47.70143,47.809309)"/>
<use data-text="e" xlink:href="#font_3_72" transform="matrix(6.4706985,0,0,-6.4706985,51.655015,47.809309)"/>
<use data-text="D" xlink:href="#font_3_39" transform="matrix(6.4706985,0,0,-6.4706985,55.2527,47.809309)"/>
<use data-text="e" xlink:href="#font_3_72" transform="matrix(6.4706985,0,0,-6.4706985,59.924577,47.809309)"/>
<use data-text="f" xlink:href="#font_3_73" transform="matrix(6.4706985,0,0,-6.4706985,63.522264,47.809309)"/>
</g>
<g clip-path="url(#clip_10)">
<path transform="matrix(.53922489,0,0,.53922489,-240.40163,-35.50094)" d="M595 140H695V161H595Z" fill="#99ccff"/>
<path transform="matrix(.53922489,0,0,.53922489,-240.40163,-35.50094)" stroke-width="1" stroke-linecap="square" stroke-miterlimit="10" stroke-linejoin="miter" fill="none" stroke="#6c8ebf" d="M695 161"/>
</g>
<g clip-path="url(#clip_11)">
<use data-text="*" xlink:href="#font_7_13" transform="matrix(6.4706985,0,0,-6.4706985,81.24599,47.809309)"/>
<use data-text="p" xlink:href="#font_7_83" transform="matrix(6.4706985,0,0,-6.4706985,83.76311,47.809309)"/>
<use data-text="_" xlink:href="#font_7_66" transform="matrix(6.4706985,0,0,-6.4706985,87.360828,47.809309)"/>
<use data-text="e" xlink:href="#font_7_72" transform="matrix(6.4706985,0,0,-6.4706985,90.95851,47.809309)"/>
<use data-text="c" xlink:href="#font_7_70" transform="matrix(6.4706985,0,0,-6.4706985,94.55623,47.809309)"/>
<use data-text="h" xlink:href="#font_7_75" transform="matrix(6.4706985,0,0,-6.4706985,97.79158,47.809309)"/>
<use data-text="o" xlink:href="#font_7_82" transform="matrix(6.4706985,0,0,-6.4706985,101.3893,47.809309)"/>
<use data-text="_" xlink:href="#font_7_66" transform="matrix(6.4706985,0,0,-6.4706985,104.986988,47.809309)"/>
<use data-text="p" xlink:href="#font_7_83" transform="matrix(6.4706985,0,0,-6.4706985,108.5847,47.809309)"/>
<use data-text="o" xlink:href="#font_7_82" transform="matrix(6.4706985,0,0,-6.4706985,112.18242,47.809309)"/>
<use data-text="r" xlink:href="#font_7_85" transform="matrix(6.4706985,0,0,-6.4706985,115.780109,47.809309)"/>
<use data-text="t" xlink:href="#font_7_87" transform="matrix(6.4706985,0,0,-6.4706985,117.93483,47.809309)"/>
<use data-text=";" xlink:href="#font_7_30" transform="matrix(6.4706985,0,0,-6.4706985,119.73369,47.809309)"/>
</g>
<g clip-path="url(#clip_12)">
<path transform="matrix(.53922489,0,0,.53922489,-240.40163,-35.50094)" d="M483 161H595V181H483Z" fill="#ffffff"/>
<path transform="matrix(.53922489,0,0,.53922489,-240.40163,-35.50094)" stroke-width="1" stroke-linecap="square" stroke-miterlimit="10" stroke-linejoin="miter" fill="none" stroke="#000000" d="M595 181"/>
</g>
<g clip-path="url(#clip_13)">
<path transform="matrix(.53922489,0,0,.53922489,-240.67125,-35.77055)" d="M485 164H524V179H485Z" fill="#ffffff"/>
<use data-text="u" xlink:href="#font_3_88" transform="matrix(6.4706985,0,0,-6.4706985,20.852799,58.5938)"/>
<use data-text="i" xlink:href="#font_3_76" transform="matrix(6.4706985,0,0,-6.4706985,24.806412,58.5938)"/>
<use data-text="n" xlink:href="#font_3_81" transform="matrix(6.4706985,0,0,-6.4706985,26.60527,58.5938)"/>
<use data-text="t" xlink:href="#font_3_87" transform="matrix(6.4706985,0,0,-6.4706985,30.558854,58.5938)"/>
<use data-text="8" xlink:href="#font_3_27" transform="matrix(6.4706985,0,0,-6.4706985,32.713609,58.5938)"/>
<use data-text="_" xlink:href="#font_3_66" transform="matrix(6.4706985,0,0,-6.4706985,36.311326,58.5938)"/>
<use data-text="t" xlink:href="#font_3_87" transform="matrix(6.4706985,0,0,-6.4706985,39.909044,58.5938)"/>
</g>
<g clip-path="url(#clip_14)">
<path transform="matrix(.53922489,0,0,.53922489,-240.40163,-35.50094)" d="M595 161H695V181H595Z" fill="#ffffff"/>
<path transform="matrix(.53922489,0,0,.53922489,-240.40163,-35.50094)" stroke-width="1" stroke-linecap="square" stroke-miterlimit="10" stroke-linejoin="miter" fill="none" stroke="#000000" d="M695 181"/>
</g>
<g clip-path="url(#clip_15)">
<path transform="matrix(.53922489,0,0,.53922489,-240.67125,-35.77055)" d="M597 164H657V179H597Z" fill="#ffffff"/>
<use data-text="t" xlink:href="#font_7_87" transform="matrix(6.4706985,0,0,-6.4706985,81.24599,58.5938)"/>
<use data-text="r" xlink:href="#font_7_85" transform="matrix(6.4706985,0,0,-6.4706985,83.044849,58.5938)"/>
<use data-text="i" xlink:href="#font_7_76" transform="matrix(6.4706985,0,0,-6.4706985,85.19957,58.5938)"/>
<use data-text="g" xlink:href="#font_7_74" transform="matrix(6.4706985,0,0,-6.4706985,86.63606,58.5938)"/>
<use data-text="g" xlink:href="#font_7_74" transform="matrix(6.4706985,0,0,-6.4706985,90.23378,58.5938)"/>
<use data-text="e" xlink:href="#font_7_72" transform="matrix(6.4706985,0,0,-6.4706985,93.8315,58.5938)"/>
<use data-text="r" xlink:href="#font_7_85" transform="matrix(6.4706985,0,0,-6.4706985,97.429187,58.5938)"/>
<use data-text="_" xlink:href="#font_7_66" transform="matrix(6.4706985,0,0,-6.4706985,99.58391,58.5938)"/>
<use data-text="p" xlink:href="#font_7_83" transform="matrix(6.4706985,0,0,-6.4706985,103.181629,58.5938)"/>
<use data-text="i" xlink:href="#font_7_76" transform="matrix(6.4706985,0,0,-6.4706985,106.77934,58.5938)"/>
<use data-text="n" xlink:href="#font_7_81" transform="matrix(6.4706985,0,0,-6.4706985,108.215839,58.5938)"/>
<use data-text=";" xlink:href="#font_7_30" transform="matrix(6.4706985,0,0,-6.4706985,111.81352,58.5938)"/>
</g>
<g clip-path="url(#clip_16)">
<path transform="matrix(.53922489,0,0,.53922489,-240.40163,-35.50094)" d="M483 181H595V198H483Z" fill="#99ccff"/>
<path transform="matrix(.53922489,0,0,.53922489,-240.40163,-35.50094)" stroke-width="1" stroke-linecap="square" stroke-miterlimit="10" stroke-linejoin="miter" fill="none" stroke="#6c8ebf" d="M595 198"/>
</g>
<g clip-path="url(#clip_17)">
<use data-text="u" xlink:href="#font_3_88" transform="matrix(6.4706985,0,0,-6.4706985,20.852799,69.378299)"/>
<use data-text="i" xlink:href="#font_3_76" transform="matrix(6.4706985,0,0,-6.4706985,24.806412,69.378299)"/>
<use data-text="n" xlink:href="#font_3_81" transform="matrix(6.4706985,0,0,-6.4706985,26.60527,69.378299)"/>
<use data-text="t" xlink:href="#font_3_87" transform="matrix(6.4706985,0,0,-6.4706985,30.558854,69.378299)"/>
<use data-text="8" xlink:href="#font_3_27" transform="matrix(6.4706985,0,0,-6.4706985,32.713609,69.378299)"/>
<use data-text="_" xlink:href="#font_3_66" transform="matrix(6.4706985,0,0,-6.4706985,36.311326,69.378299)"/>
<use data-text="t" xlink:href="#font_3_87" transform="matrix(6.4706985,0,0,-6.4706985,39.909044,69.378299)"/>
</g>
<g clip-path="url(#clip_18)">
<path transform="matrix(.53922489,0,0,.53922489,-240.40163,-35.50094)" d="M595 181H695V198H595Z" fill="#99ccff"/>
<path transform="matrix(.53922489,0,0,.53922489,-240.40163,-35.50094)" stroke-width="1" stroke-linecap="square" stroke-miterlimit="10" stroke-linejoin="miter" fill="none" stroke="#6c8ebf" d="M695 198"/>
</g>
<g clip-path="url(#clip_19)">
<use data-text="e" xlink:href="#font_7_72" transform="matrix(6.4706985,0,0,-6.4706985,81.24599,69.378299)"/>
<use data-text="c" xlink:href="#font_7_70" transform="matrix(6.4706985,0,0,-6.4706985,84.843708,69.378299)"/>
<use data-text="h" xlink:href="#font_7_75" transform="matrix(6.4706985,0,0,-6.4706985,88.079059,69.378299)"/>
<use data-text="o" xlink:href="#font_7_82" transform="matrix(6.4706985,0,0,-6.4706985,91.67674,69.378299)"/>
<use data-text="_" xlink:href="#font_7_66" transform="matrix(6.4706985,0,0,-6.4706985,95.27446,69.378299)"/>
<use data-text="p" xlink:href="#font_7_83" transform="matrix(6.4706985,0,0,-6.4706985,98.87218,69.378299)"/>
<use data-text="i" xlink:href="#font_7_76" transform="matrix(6.4706985,0,0,-6.4706985,102.469867,69.378299)"/>
<use data-text="n" xlink:href="#font_7_81" transform="matrix(6.4706985,0,0,-6.4706985,103.90639,69.378299)"/>
<use data-text=";" xlink:href="#font_7_30" transform="matrix(6.4706985,0,0,-6.4706985,107.504077,69.378299)"/>
</g>
<g clip-path="url(#clip_20)">
<path transform="matrix(.53922489,0,0,.53922489,-240.40163,-35.50094)" d="M483 198H595V215H483Z" fill="#ffffff"/>
<path transform="matrix(.53922489,0,0,.53922489,-240.40163,-35.50094)" stroke-width="1" stroke-linecap="square" stroke-miterlimit="10" stroke-linejoin="miter" fill="none" stroke="#6c8ebf" d="M595 215"/>
</g>
<g clip-path="url(#clip_21)">
<use data-text="u" xlink:href="#font_3_88" transform="matrix(6.4706985,0,0,-6.4706985,20.852799,78.54512)"/>
<use data-text="i" xlink:href="#font_3_76" transform="matrix(6.4706985,0,0,-6.4706985,24.806412,78.54512)"/>
<use data-text="n" xlink:href="#font_3_81" transform="matrix(6.4706985,0,0,-6.4706985,26.60527,78.54512)"/>
<use data-text="t" xlink:href="#font_3_87" transform="matrix(6.4706985,0,0,-6.4706985,30.558854,78.54512)"/>
<use data-text="8" xlink:href="#font_3_27" transform="matrix(6.4706985,0,0,-6.4706985,32.713609,78.54512)"/>
<use data-text="_" xlink:href="#font_3_66" transform="matrix(6.4706985,0,0,-6.4706985,36.311326,78.54512)"/>
<use data-text="t" xlink:href="#font_3_87" transform="matrix(6.4706985,0,0,-6.4706985,39.909044,78.54512)"/>
</g>
<g clip-path="url(#clip_22)">
<path transform="matrix(.53922489,0,0,.53922489,-240.40163,-35.50094)" d="M595 198H695V215H595Z" fill="#ffffff"/>
<path transform="matrix(.53922489,0,0,.53922489,-240.40163,-35.50094)" stroke-width="1" stroke-linecap="square" stroke-miterlimit="10" stroke-linejoin="miter" fill="none" stroke="#6c8ebf" d="M695 215"/>
</g>
<g clip-path="url(#clip_23)">
<use data-text="e" xlink:href="#font_7_72" transform="matrix(6.4706985,0,0,-6.4706985,81.24599,78.54512)"/>
<use data-text="c" xlink:href="#font_7_70" transform="matrix(6.4706985,0,0,-6.4706985,84.843708,78.54512)"/>
<use data-text="h" xlink:href="#font_7_75" transform="matrix(6.4706985,0,0,-6.4706985,88.079059,78.54512)"/>
<use data-text="o" xlink:href="#font_7_82" transform="matrix(6.4706985,0,0,-6.4706985,91.67674,78.54512)"/>
<use data-text="_" xlink:href="#font_7_66" transform="matrix(6.4706985,0,0,-6.4706985,95.27446,78.54512)"/>
<use data-text="a" xlink:href="#font_7_68" transform="matrix(6.4706985,0,0,-6.4706985,98.87218,78.54512)"/>
<use data-text="l" xlink:href="#font_7_79" transform="matrix(6.4706985,0,0,-6.4706985,102.469867,78.54512)"/>
<use data-text="t" xlink:href="#font_7_87" transform="matrix(6.4706985,0,0,-6.4706985,103.90639,78.54512)"/>
<use data-text="_" xlink:href="#font_7_66" transform="matrix(6.4706985,0,0,-6.4706985,105.705219,78.54512)"/>
<use data-text="f" xlink:href="#font_7_73" transform="matrix(6.4706985,0,0,-6.4706985,109.30293,78.54512)"/>
<use data-text="u" xlink:href="#font_7_88" transform="matrix(6.4706985,0,0,-6.4706985,111.10179,78.54512)"/>
<use data-text="n" xlink:href="#font_7_81" transform="matrix(6.4706985,0,0,-6.4706985,114.69948,78.54512)"/>
<use data-text=";" xlink:href="#font_7_30" transform="matrix(6.4706985,0,0,-6.4706985,118.297199,78.54512)"/>
</g>
<g clip-path="url(#clip_24)">
<path transform="matrix(.53922489,0,0,.53922489,-240.40163,-35.50094)" d="M483 215H595V232H483Z" fill="#99ccff"/>
<path transform="matrix(.53922489,0,0,.53922489,-240.40163,-35.50094)" stroke-width="1" stroke-linecap="square" stroke-miterlimit="10" stroke-linejoin="miter" fill="none" stroke="#6c8ebf" d="M595 232"/>
</g>
<g clip-path="url(#clip_25)">
<use data-text="b" xlink:href="#font_3_69" transform="matrix(6.4706985,0,0,-6.4706985,20.852799,87.711948)"/>
<use data-text="o" xlink:href="#font_3_82" transform="matrix(6.4706985,0,0,-6.4706985,24.806412,87.711948)"/>
<use data-text="o" xlink:href="#font_3_82" transform="matrix(6.4706985,0,0,-6.4706985,28.759995,87.711948)"/>
<use data-text="l" xlink:href="#font_3_79" transform="matrix(6.4706985,0,0,-6.4706985,32.713609,87.711948)"/>
</g>
<g clip-path="url(#clip_26)">
<path transform="matrix(.53922489,0,0,.53922489,-240.40163,-35.50094)" d="M595 215H695V232H595Z" fill="#99ccff"/>
<path transform="matrix(.53922489,0,0,.53922489,-240.40163,-35.50094)" stroke-width="1" stroke-linecap="square" stroke-miterlimit="10" stroke-linejoin="miter" fill="none" stroke="#6c8ebf" d="M695 232"/>
</g>
<g clip-path="url(#clip_27)">
<use data-text="t" xlink:href="#font_7_87" transform="matrix(6.4706985,0,0,-6.4706985,81.24599,87.711948)"/>
<use data-text="r" xlink:href="#font_7_85" transform="matrix(6.4706985,0,0,-6.4706985,83.044849,87.711948)"/>
<use data-text="i" xlink:href="#font_7_76" transform="matrix(6.4706985,0,0,-6.4706985,85.19957,87.711948)"/>
<use data-text="g" xlink:href="#font_7_74" transform="matrix(6.4706985,0,0,-6.4706985,86.63606,87.711948)"/>
<use data-text="g" xlink:href="#font_7_74" transform="matrix(6.4706985,0,0,-6.4706985,90.23378,87.711948)"/>
<use data-text="e" xlink:href="#font_7_72" transform="matrix(6.4706985,0,0,-6.4706985,93.8315,87.711948)"/>
<use data-text="r" xlink:href="#font_7_85" transform="matrix(6.4706985,0,0,-6.4706985,97.429187,87.711948)"/>
<use data-text="_" xlink:href="#font_7_66" transform="matrix(6.4706985,0,0,-6.4706985,99.58391,87.711948)"/>
<use data-text="r" xlink:href="#font_7_85" transform="matrix(6.4706985,0,0,-6.4706985,103.181629,87.711948)"/>
<use data-text="e" xlink:href="#font_7_72" transform="matrix(6.4706985,0,0,-6.4706985,105.33635,87.711948)"/>
<use data-text="a" xlink:href="#font_7_68" transform="matrix(6.4706985,0,0,-6.4706985,108.93407,87.711948)"/>
<use data-text="d" xlink:href="#font_7_71" transform="matrix(6.4706985,0,0,-6.4706985,112.53175,87.711948)"/>
<use data-text="y" xlink:href="#font_7_92" transform="matrix(6.4706985,0,0,-6.4706985,116.12947,87.711948)"/>
<use data-text=";" xlink:href="#font_7_30" transform="matrix(6.4706985,0,0,-6.4706985,119.36482,87.711948)"/>
</g>
<g clip-path="url(#clip_28)">
<path transform="matrix(.53922489,0,0,.53922489,-240.40163,-35.50094)" d="M483 232H595V249H483Z" fill="#ffffff"/>
<path transform="matrix(.53922489,0,0,.53922489,-240.40163,-35.50094)" stroke-width="1" stroke-linecap="square" stroke-miterlimit="10" stroke-linejoin="miter" fill="none" stroke="#6c8ebf" d="M595 249"/>
</g>
<g clip-path="url(#clip_29)">
<use data-text="b" xlink:href="#font_3_69" transform="matrix(6.4706985,0,0,-6.4706985,20.852799,96.87877)"/>
<use data-text="o" xlink:href="#font_3_82" transform="matrix(6.4706985,0,0,-6.4706985,24.806412,96.87877)"/>
<use data-text="o" xlink:href="#font_3_82" transform="matrix(6.4706985,0,0,-6.4706985,28.759995,96.87877)"/>
<use data-text="l" xlink:href="#font_3_79" transform="matrix(6.4706985,0,0,-6.4706985,32.713609,96.87877)"/>
</g>
<g clip-path="url(#clip_30)">
<path transform="matrix(.53922489,0,0,.53922489,-240.40163,-35.50094)" d="M595 232H695V249H595Z" fill="#ffffff"/>
<path transform="matrix(.53922489,0,0,.53922489,-240.40163,-35.50094)" stroke-width="1" stroke-linecap="square" stroke-miterlimit="10" stroke-linejoin="miter" fill="none" stroke="#6c8ebf" d="M695 249"/>
</g>
<g clip-path="url(#clip_31)">
<use data-text="t" xlink:href="#font_7_87" transform="matrix(6.4706985,0,0,-6.4706985,81.24599,96.87877)"/>
<use data-text="r" xlink:href="#font_7_85" transform="matrix(6.4706985,0,0,-6.4706985,83.044849,96.87877)"/>
<use data-text="i" xlink:href="#font_7_76" transform="matrix(6.4706985,0,0,-6.4706985,85.19957,96.87877)"/>
<use data-text="g" xlink:href="#font_7_74" transform="matrix(6.4706985,0,0,-6.4706985,86.63606,96.87877)"/>
<use data-text="g" xlink:href="#font_7_74" transform="matrix(6.4706985,0,0,-6.4706985,90.23378,96.87877)"/>
<use data-text="e" xlink:href="#font_7_72" transform="matrix(6.4706985,0,0,-6.4706985,93.8315,96.87877)"/>
<use data-text="r" xlink:href="#font_7_85" transform="matrix(6.4706985,0,0,-6.4706985,97.429187,96.87877)"/>
<use data-text="_" xlink:href="#font_7_66" transform="matrix(6.4706985,0,0,-6.4706985,99.58391,96.87877)"/>
<use data-text="e" xlink:href="#font_7_72" transform="matrix(6.4706985,0,0,-6.4706985,103.181629,96.87877)"/>
<use data-text="n" xlink:href="#font_7_81" transform="matrix(6.4706985,0,0,-6.4706985,106.77934,96.87877)"/>
<use data-text="d" xlink:href="#font_7_71" transform="matrix(6.4706985,0,0,-6.4706985,110.37703,96.87877)"/>
<use data-text=";" xlink:href="#font_7_30" transform="matrix(6.4706985,0,0,-6.4706985,113.97475,96.87877)"/>
</g>
<g clip-path="url(#clip_32)">
<path transform="matrix(.53922489,0,0,.53922489,-240.40163,-35.50094)" d="M483 249H595V266H483Z" fill="#99ccff"/>
<path transform="matrix(.53922489,0,0,.53922489,-240.40163,-35.50094)" stroke-width="1" stroke-linecap="square" stroke-miterlimit="10" stroke-linejoin="miter" fill="none" stroke="#6c8ebf" d="M595 266"/>
</g>
<g clip-path="url(#clip_33)">
<use data-text="b" xlink:href="#font_3_69" transform="matrix(6.4706985,0,0,-6.4706985,20.852799,106.04558)"/>
<use data-text="o" xlink:href="#font_3_82" transform="matrix(6.4706985,0,0,-6.4706985,24.806412,106.04558)"/>
<use data-text="o" xlink:href="#font_3_82" transform="matrix(6.4706985,0,0,-6.4706985,28.759995,106.04558)"/>
<use data-text="l" xlink:href="#font_3_79" transform="matrix(6.4706985,0,0,-6.4706985,32.713609,106.04558)"/>
</g>
<g clip-path="url(#clip_34)">
<path transform="matrix(.53922489,0,0,.53922489,-240.40163,-35.50094)" d="M595 249H695V266H595Z" fill="#99ccff"/>
<path transform="matrix(.53922489,0,0,.53922489,-240.40163,-35.50094)" stroke-width="1" stroke-linecap="square" stroke-miterlimit="10" stroke-linejoin="miter" fill="none" stroke="#6c8ebf" d="M695 266"/>
</g>
<g clip-path="url(#clip_35)">
<use data-text="e" xlink:href="#font_7_72" transform="matrix(6.4706985,0,0,-6.4706985,81.24599,106.04558)"/>
<use data-text="c" xlink:href="#font_7_70" transform="matrix(6.4706985,0,0,-6.4706985,84.843708,106.04558)"/>
<use data-text="h" xlink:href="#font_7_75" transform="matrix(6.4706985,0,0,-6.4706985,88.079059,106.04558)"/>
<use data-text="o" xlink:href="#font_7_82" transform="matrix(6.4706985,0,0,-6.4706985,91.67674,106.04558)"/>
<use data-text="_" xlink:href="#font_7_66" transform="matrix(6.4706985,0,0,-6.4706985,95.27446,106.04558)"/>
<use data-text="r" xlink:href="#font_7_85" transform="matrix(6.4706985,0,0,-6.4706985,98.87218,106.04558)"/>
<use data-text="e" xlink:href="#font_7_72" transform="matrix(6.4706985,0,0,-6.4706985,101.0269,106.04558)"/>
<use data-text="c" xlink:href="#font_7_70" transform="matrix(6.4706985,0,0,-6.4706985,104.62462,106.04558)"/>
<use data-text="e" xlink:href="#font_7_72" transform="matrix(6.4706985,0,0,-6.4706985,107.85994,106.04558)"/>
<use data-text="i" xlink:href="#font_7_76" transform="matrix(6.4706985,0,0,-6.4706985,111.45766,106.04558)"/>
<use data-text="v" xlink:href="#font_7_89" transform="matrix(6.4706985,0,0,-6.4706985,112.89415,106.04558)"/>
<use data-text="e" xlink:href="#font_7_72" transform="matrix(6.4706985,0,0,-6.4706985,116.1295,106.04558)"/>
<use data-text="d" xlink:href="#font_7_71" transform="matrix(6.4706985,0,0,-6.4706985,119.72722,106.04558)"/>
<use data-text=";" xlink:href="#font_7_30" transform="matrix(6.4706985,0,0,-6.4706985,123.324909,106.04558)"/>
</g>
<g clip-path="url(#clip_36)">
<path transform="matrix(.53922489,0,0,.53922489,-240.40163,-35.50094)" d="M483 266H595V283H483Z" fill="#ffffff"/>
<path transform="matrix(.53922489,0,0,.53922489,-240.40163,-35.50094)" stroke-width="1" stroke-linecap="square" stroke-miterlimit="10" stroke-linejoin="miter" fill="none" stroke="#6c8ebf" d="M595 283"/>
</g>
<g clip-path="url(#clip_37)">
<use data-text="u" xlink:href="#font_3_88" transform="matrix(6.4706985,0,0,-6.4706985,20.852799,115.2124)"/>
<use data-text="i" xlink:href="#font_3_76" transform="matrix(6.4706985,0,0,-6.4706985,24.806412,115.2124)"/>
<use data-text="n" xlink:href="#font_3_81" transform="matrix(6.4706985,0,0,-6.4706985,26.60527,115.2124)"/>
<use data-text="t" xlink:href="#font_3_87" transform="matrix(6.4706985,0,0,-6.4706985,30.558854,115.2124)"/>
<use data-text="3" xlink:href="#font_3_22" transform="matrix(6.4706985,0,0,-6.4706985,32.713609,115.2124)"/>
<use data-text="2" xlink:href="#font_3_21" transform="matrix(6.4706985,0,0,-6.4706985,36.311326,115.2124)"/>
<use data-text="_" xlink:href="#font_3_66" transform="matrix(6.4706985,0,0,-6.4706985,39.909044,115.2124)"/>
<use data-text="t" xlink:href="#font_3_87" transform="matrix(6.4706985,0,0,-6.4706985,43.50673,115.2124)"/>
</g>
<g clip-path="url(#clip_38)">
<path transform="matrix(.53922489,0,0,.53922489,-240.40163,-35.50094)" d="M595 266H695V283H595Z" fill="#ffffff"/>
<path transform="matrix(.53922489,0,0,.53922489,-240.40163,-35.50094)" stroke-width="1" stroke-linecap="square" stroke-miterlimit="10" stroke-linejoin="miter" fill="none" stroke="#6c8ebf" d="M695 283"/>
</g>
<g clip-path="url(#clip_39)">
<use data-text="e" xlink:href="#font_7_72" transform="matrix(6.4706985,0,0,-6.4706985,81.24599,115.2124)"/>
<use data-text="c" xlink:href="#font_7_70" transform="matrix(6.4706985,0,0,-6.4706985,84.843708,115.2124)"/>
<use data-text="h" xlink:href="#font_7_75" transform="matrix(6.4706985,0,0,-6.4706985,88.079059,115.2124)"/>
<use data-text="o" xlink:href="#font_7_82" transform="matrix(6.4706985,0,0,-6.4706985,91.67674,115.2124)"/>
<use data-text="_" xlink:href="#font_7_66" transform="matrix(6.4706985,0,0,-6.4706985,95.27446,115.2124)"/>
<use data-text="i" xlink:href="#font_7_76" transform="matrix(6.4706985,0,0,-6.4706985,98.87218,115.2124)"/>
<use data-text="n" xlink:href="#font_7_81" transform="matrix(6.4706985,0,0,-6.4706985,100.30867,115.2124)"/>
<use data-text="i" xlink:href="#font_7_76" transform="matrix(6.4706985,0,0,-6.4706985,103.90639,115.2124)"/>
<use data-text="t" xlink:href="#font_7_87" transform="matrix(6.4706985,0,0,-6.4706985,105.34288,115.2124)"/>
<use data-text="_" xlink:href="#font_7_66" transform="matrix(6.4706985,0,0,-6.4706985,107.14171,115.2124)"/>
<use data-text="t" xlink:href="#font_7_87" transform="matrix(6.4706985,0,0,-6.4706985,110.739429,115.2124)"/>
<use data-text="i" xlink:href="#font_7_76" transform="matrix(6.4706985,0,0,-6.4706985,112.538288,115.2124)"/>
<use data-text="c" xlink:href="#font_7_70" transform="matrix(6.4706985,0,0,-6.4706985,113.97478,115.2124)"/>
<use data-text="k" xlink:href="#font_7_78" transform="matrix(6.4706985,0,0,-6.4706985,117.21013,115.2124)"/>
<use data-text=";" xlink:href="#font_7_30" transform="matrix(6.4706985,0,0,-6.4706985,120.44548,115.2124)"/>
</g>
<g clip-path="url(#clip_40)">
<path transform="matrix(.53922489,0,0,.53922489,-240.40163,-35.50094)" d="M483 283H595V300H483Z" fill="#99ccff"/>
<path transform="matrix(.53922489,0,0,.53922489,-240.40163,-35.50094)" stroke-width="1" stroke-linecap="square" stroke-miterlimit="10" stroke-linejoin="miter" fill="none" stroke="#6c8ebf" d="M595 300"/>
</g>
<g clip-path="url(#clip_41)">
<use data-text="u" xlink:href="#font_3_88" transform="matrix(6.4706985,0,0,-6.4706985,20.852799,124.37923)"/>
<use data-text="i" xlink:href="#font_3_76" transform="matrix(6.4706985,0,0,-6.4706985,24.806412,124.37923)"/>
<use data-text="n" xlink:href="#font_3_81" transform="matrix(6.4706985,0,0,-6.4706985,26.60527,124.37923)"/>
<use data-text="t" xlink:href="#font_3_87" transform="matrix(6.4706985,0,0,-6.4706985,30.558854,124.37923)"/>
<use data-text="3" xlink:href="#font_3_22" transform="matrix(6.4706985,0,0,-6.4706985,32.713609,124.37923)"/>
<use data-text="2" xlink:href="#font_3_21" transform="matrix(6.4706985,0,0,-6.4706985,36.311326,124.37923)"/>
<use data-text="_" xlink:href="#font_3_66" transform="matrix(6.4706985,0,0,-6.4706985,39.909044,124.37923)"/>
<use data-text="t" xlink:href="#font_3_87" transform="matrix(6.4706985,0,0,-6.4706985,43.50673,124.37923)"/>
</g>
<g clip-path="url(#clip_42)">
<path transform="matrix(.53922489,0,0,.53922489,-240.40163,-35.50094)" d="M595 283H695V300H595Z" fill="#99ccff"/>
<path transform="matrix(.53922489,0,0,.53922489,-240.40163,-35.50094)" stroke-width="1" stroke-linecap="square" stroke-miterlimit="10" stroke-linejoin="miter" fill="none" stroke="#6c8ebf" d="M695 300"/>
</g>
<g clip-path="url(#clip_43)">
<use data-text="e" xlink:href="#font_7_72" transform="matrix(6.4706985,0,0,-6.4706985,81.24599,124.37923)"/>
<use data-text="c" xlink:href="#font_7_70" transform="matrix(6.4706985,0,0,-6.4706985,84.843708,124.37923)"/>
<use data-text="h" xlink:href="#font_7_75" transform="matrix(6.4706985,0,0,-6.4706985,88.079059,124.37923)"/>
<use data-text="o" xlink:href="#font_7_82" transform="matrix(6.4706985,0,0,-6.4706985,91.67674,124.37923)"/>
<use data-text="_" xlink:href="#font_7_66" transform="matrix(6.4706985,0,0,-6.4706985,95.27446,124.37923)"/>
<use data-text="e" xlink:href="#font_7_72" transform="matrix(6.4706985,0,0,-6.4706985,98.87218,124.37923)"/>
<use data-text="n" xlink:href="#font_7_81" transform="matrix(6.4706985,0,0,-6.4706985,102.469867,124.37923)"/>
<use data-text="d" xlink:href="#font_7_71" transform="matrix(6.4706985,0,0,-6.4706985,106.06758,124.37923)"/>
<use data-text="_" xlink:href="#font_7_66" transform="matrix(6.4706985,0,0,-6.4706985,109.6653,124.37923)"/>
<use data-text="t" xlink:href="#font_7_87" transform="matrix(6.4706985,0,0,-6.4706985,113.262989,124.37923)"/>
<use data-text="i" xlink:href="#font_7_76" transform="matrix(6.4706985,0,0,-6.4706985,115.061847,124.37923)"/>
<use data-text="c" xlink:href="#font_7_70" transform="matrix(6.4706985,0,0,-6.4706985,116.49834,124.37923)"/>
<use data-text="k" xlink:href="#font_7_78" transform="matrix(6.4706985,0,0,-6.4706985,119.73369,124.37923)"/>
<use data-text=";" xlink:href="#font_7_30" transform="matrix(6.4706985,0,0,-6.4706985,122.96904,124.37923)"/>
</g>
<g clip-path="url(#clip_44)">
<path transform="matrix(.53922489,0,0,.53922489,-240.40163,-35.50094)" d="M483 300H595V317H483Z" fill="#ffffff"/>
<path transform="matrix(.53922489,0,0,.53922489,-240.40163,-35.50094)" stroke-width="1" stroke-linecap="square" stroke-miterlimit="10" stroke-linejoin="miter" fill="none" stroke="#6c8ebf" d="M595 317"/>
</g>
<g clip-path="url(#clip_45)">
<use data-text="u" xlink:href="#font_3_88" transform="matrix(6.4706985,0,0,-6.4706985,20.852799,133.54605)"/>
<use data-text="i" xlink:href="#font_3_76" transform="matrix(6.4706985,0,0,-6.4706985,24.806412,133.54605)"/>
<use data-text="n" xlink:href="#font_3_81" transform="matrix(6.4706985,0,0,-6.4706985,26.60527,133.54605)"/>
<use data-text="t" xlink:href="#font_3_87" transform="matrix(6.4706985,0,0,-6.4706985,30.558854,133.54605)"/>
<use data-text="3" xlink:href="#font_3_22" transform="matrix(6.4706985,0,0,-6.4706985,32.713609,133.54605)"/>
<use data-text="2" xlink:href="#font_3_21" transform="matrix(6.4706985,0,0,-6.4706985,36.311326,133.54605)"/>
<use data-text="_" xlink:href="#font_3_66" transform="matrix(6.4706985,0,0,-6.4706985,39.909044,133.54605)"/>
<use data-text="t" xlink:href="#font_3_87" transform="matrix(6.4706985,0,0,-6.4706985,43.50673,133.54605)"/>
</g>
<g clip-path="url(#clip_46)">
<path transform="matrix(.53922489,0,0,.53922489,-240.40163,-35.50094)" d="M595 300H695V317H595Z" fill="#ffffff"/>
<path transform="matrix(.53922489,0,0,.53922489,-240.40163,-35.50094)" stroke-width="1" stroke-linecap="square" stroke-miterlimit="10" stroke-linejoin="miter" fill="none" stroke="#6c8ebf" d="M695 317"/>
</g>
<g clip-path="url(#clip_47)">
<use data-text="e" xlink:href="#font_7_72" transform="matrix(6.4706985,0,0,-6.4706985,81.24599,133.54605)"/>
<use data-text="c" xlink:href="#font_7_70" transform="matrix(6.4706985,0,0,-6.4706985,84.843708,133.54605)"/>
<use data-text="h" xlink:href="#font_7_75" transform="matrix(6.4706985,0,0,-6.4706985,88.079059,133.54605)"/>
<use data-text="o" xlink:href="#font_7_82" transform="matrix(6.4706985,0,0,-6.4706985,91.67674,133.54605)"/>
<use data-text="_" xlink:href="#font_7_66" transform="matrix(6.4706985,0,0,-6.4706985,95.27446,133.54605)"/>
<use data-text="o" xlink:href="#font_7_82" transform="matrix(6.4706985,0,0,-6.4706985,98.87218,133.54605)"/>
<use data-text="v" xlink:href="#font_7_89" transform="matrix(6.4706985,0,0,-6.4706985,102.469867,133.54605)"/>
<use data-text="e" xlink:href="#font_7_72" transform="matrix(6.4706985,0,0,-6.4706985,105.705219,133.54605)"/>
<use data-text="r" xlink:href="#font_7_85" transform="matrix(6.4706985,0,0,-6.4706985,109.30293,133.54605)"/>
<use data-text="f" xlink:href="#font_7_73" transform="matrix(6.4706985,0,0,-6.4706985,111.45766,133.54605)"/>
<use data-text="l" xlink:href="#font_7_79" transform="matrix(6.4706985,0,0,-6.4706985,113.256519,133.54605)"/>
<use data-text="o" xlink:href="#font_7_82" transform="matrix(6.4706985,0,0,-6.4706985,114.69301,133.54605)"/>
<use data-text="w" xlink:href="#font_7_90" transform="matrix(6.4706985,0,0,-6.4706985,118.290729,133.54605)"/>
<use data-text="s" xlink:href="#font_7_86" transform="matrix(6.4706985,0,0,-6.4706985,122.96257,133.54605)"/>
<use data-text=";" xlink:href="#font_7_30" transform="matrix(6.4706985,0,0,-6.4706985,126.19792,133.54605)"/>
</g>
</svg>
