<svg xmlns="http://www.w3.org/2000/svg" xmlns:xlink="http://www.w3.org/1999/xlink" xmlns:inkscape="http://www.inkscape.org/namespaces/inkscape" version="1.1" width="301.91999" height="147.12" viewBox="0 0 301.91999 147.12">
<defs>
<clipPath id="clip_1">
<path transform="matrix(.24,0,0,.24,0,0)" d="M0 0H1259V612.0117H0Z" clip-rule="evenodd"/>
</clipPath>
<clipPath id="clip_2">
<path transform="matrix(.24,0,0,.24,0,0)" d="M78.125 34.375H1181.25V578.125H78.125Z" clip-rule="evenodd"/>
</clipPath>
<clipPath id="clip_3">
<path transform="matrix(.24,0,0,.24,0,0)" d="M0 0H1260.0098V612.0117H0Z"/>
</clipPath>
<clipPath id="clip_4">
<path transform="matrix(.24,0,0,.24,0,0)" d="M78.125 34.375H1181.25V578.125H78.125Z"/>
</clipPath>
<clipPath id="clip_5">
<path transform="matrix(.24,0,0,.24,0,0)" d="M1181.25 34.375H78.125V578.125H1181.25V34.375ZM499.255 538.4826H490.89955V543.9791H499.255V538.4826Z" clip-rule="evenodd"/>
</clipPath>
<clipPath id="clip_6">
<path transform="matrix(.24,0,0,.24,0,0)" d="M1181.25 34.375H78.125V578.125H1181.25V34.375ZM540.5941 538.4826H529.3617V543.9791H540.5941V538.4826Z" clip-rule="evenodd"/>
</clipPath>
<clipPath id="clip_7">
<path transform="matrix(.24,0,0,.24,0,0)" d="M78.125 34.375H1181.25V578.125H78.125Z" clip-rule="evenodd"/>
</clipPath>
<path id="font_8_41" d="M.045410158 0 .19482422 .7158203H.66015627L.6430664 .6347656H.2734375L.22607422 .40625H.60253909L.5854492 .3251953H.20898438L.14111328 0H.045410158Z"/>
<path id="font_8_54" d="M.0703125 .23144531 .1640625 .24023438 .16308594 .21533203C.16308594 .18766277 .1694336 .16235352 .1821289 .1394043 .19482422 .11645508 .21582031 .098714198 .24511719 .08618164 .27441407 .073649089 .30924479 .06738281 .34960938 .06738281 .40690104 .06738281 .4506022 .07992554 .4807129 .10501099 .51082357 .13009644 .5258789 .15876262 .5258789 .19100952 .5258789 .2134908 .5179036 .23401387 .5019531 .25257875 .4856771 .27078758 .4412435 .2954966 .36865235 .32670594 .31233726 .35108949 .27392579 .3697815 .25341798 .38278199 .2211914 .4039103 .19742839 .4269104 .1821289 .45178224 .16682942 .47665406 .15917969 .50502017 .15917969 .5368805 .15917969 .57361349 .16927083 .6067708 .18945313 .63635256 .20963542 .66593429 .23917644 .6885274 .27807618 .7041321 .31697593 .71973678 .36083985 .72753909 .40966798 .72753909 .4679362 .72753909 .51708987 .71777346 .5571289 .6982422 .59716799 .67871096 .6262207 .65266928 .6442871 .6201172 .6623535 .5875651 .6713867 .55647787 .6713867 .52685549 .6713867 .5239258 .67122396 .51904299 .67089846 .51220706L.5786133 .5048828C.5786133 .5251363 .57682296 .54098007 .5732422 .55241397 .56673178 .5723317 .5566406 .5891469 .54296877 .6028595 .5292969 .6165822 .51049807 .62760928 .48657228 .63594058 .46264649 .64427188 .4358724 .6484375 .40625 .6484375 .35416667 .6484375 .3136393 .6367137 .28466798 .613266 .26253257 .595342 .25146485 .5715637 .25146485 .54193118 .25146485 .52434286 .25602214 .5086263 .26513673 .4947815 .2742513 .48093669 .2906901 .46733604 .31445313 .4539795 .33138023 .44454957 .37158204 .42585755 .4350586 .39790345 .48649089 .3751475 .52197268 .3572642 .5415039 .34425355 .5675456 .32702128 .5875651 .306132 .6015625 .2815857 .6155599 .25704957 .6225586 .22917684 .6225586 .19796753 .6225586 .15928142 .6107585 .12360128 .5871582 .090927127 .5635579 .05825297 .5309245 .032974245 .4892578 .015090942 .44759117-.0027821859 .39990235-.01171875 .3461914-.01171875 .26513673-.01171875 .19897461 .0059051516 .14770508 .041152955 .09643555 .07640076 .07063802 .13983155 .0703125 .23144531Z"/>
<path id="font_8_48" d="M.043945314 0 .19335938 .7158203H.31103517L.38330079 .2518921C.39274089 .19034831 .39892579 .13159688 .40185548 .07563782 .42171226 .12387594 .45491538 .18947856 .50146487 .27244569L.7524414 .7158203H.8720703L.72265627 0H.62841799L.703125 .348114C.7203776 .4284973 .7451172 .518514 .77734377 .61816409 .75683596 .5718994 .7314453 .5219676 .7011719 .46836854L.4345703 0H.34228517L.2705078 .4589386C.2639974 .50101217 .25927735 .54985556 .25634767 .60546877 .24820964 .54299929 .24023438 .49338279 .23242188 .45661927L.13720703 0H.043945314Z"/>
<path id="font_8_3" d="M0 0Z"/>
<path id="font_8_71" d="M.3828125 .07519531C.33235679 .017252604 .2796224-.01171875 .22460938-.01171875 .17545574-.01171875 .13452149 .0064290368 .10180664 .04272461 .0690918 .07902018 .052734376 .13167317 .052734376 .2006836 .052734376 .26383464 .06567383 .3215332 .091552738 .3737793 .11743164 .4260254 .14982097 .46516929 .1887207 .49121095 .22762044 .5172526 .26660157 .53027346 .30566407 .53027346 .3701172 .53027346 .41878257 .49934898 .45166017 .4375L.5102539 .7158203H.59814456L.44873048 0H.3671875L.3828125 .07519531M.140625 .21739197C.140625 .18134053 .14420574 .15292359 .15136719 .13214112 .15852864 .11135864 .17073567 .094065349 .18798828 .08026123 .20524089 .066467288 .22591146 .059570314 .25 .059570314 .29003907 .059570314 .32633464 .08036295 .35888673 .12194824 .4025065 .17718506 .4243164 .24541219 .4243164 .32662965 .4243164 .36750285 .41357423 .39945475 .39208985 .42248536 .37060548 .44551597 .34358726 .45703126 .31103517 .45703126 .2898763 .45703126 .2705892 .45232139 .25317384 .4429016 .23575847 .43349204 .21850586 .41750083 .20141602 .39492799 .18432617 .37235514 .16992188 .34369407 .15820313 .3089447 .14648438 .27420555 .140625 .24368795 .140625 .21739197Z"/>
<path id="font_8_76" d="M.1586914 .6152344 .1796875 .7158203H.26757813L.24658203 .6152344H.1586914M.029785157 0 .1381836 .5185547H.2265625L.11816406 0H.029785157Z"/>
<path id="font_8_86" d="M.041503908 .17675781 .12988281 .18261719C.12988281 .15722656 .13378906 .13557942 .14160156 .11767578 .14941406 .09977213 .16381836 .085123699 .18481446 .07373047 .20581055 .06233724 .23030599 .056640626 .25830079 .056640626 .29736329 .056640626 .32666017 .064453128 .3461914 .080078128 .36572267 .095703128 .37548829 .114095058 .37548829 .1352539 .37548829 .15055339 .3696289 .16503906 .35791017 .17871094 .34586589 .19238281 .31648765 .20922852 .2697754 .22924805 .22306316 .24926758 .19319661 .26334635 .18017578 .27148438 .15836589 .28483073 .14192708 .3005371 .13085938 .31860353 .119791667 .33666993 .11425781 .35742188 .11425781 .38085938 .11425781 .421875 .13053386 .45703126 .16308594 .48632813 .19563802 .515625 .24121094 .53027346 .2998047 .53027346 .36490885 .53027346 .4144694 .5152181 .44848634 .48510743 .48250328 .45499674 .5001628 .4153646 .50146487 .36621095L.41503907 .36035157C.41373698 .39160157 .40266929 .41634117 .38183595 .4345703 .3610026 .45279948 .33154298 .46191407 .29345704 .46191407 .26285807 .46191407 .23909505 .45491538 .22216797 .44091798 .20524089 .42692057 .19677735 .41178385 .19677735 .3955078 .19677735 .37923179 .20410156 .36490885 .21875 .35253907 .22851563 .34407554 .2537435 .3310547 .2944336 .31347657 .36214195 .2841797 .40478517 .26106773 .42236329 .24414063 .45035807 .21712239 .46435548 .1842448 .46435548 .14550781 .46435548 .119791667 .45646159 .094563808 .44067384 .06982422 .42488609 .045084638 .40079753 .025309245 .3684082 .010498047 .3360189-.004313151 .29785157-.01171875 .25390626-.01171875 .19401042-.01171875 .1430664 .0030517579 .10107422 .032592775 .05908203 .062143964 .03922526 .110198978 .041503908 .17675781Z"/>
<path id="font_8_83" d="M-.010253906-.19921875 .13964844 .5185547H.2211914L.20605469 .44628907C.23632813 .4778646 .26342774 .49975587 .28735353 .5119629 .3112793 .5241699 .33658854 .53027346 .36328126 .53027346 .4127604 .53027346 .45377604 .5122884 .48632813 .47631837 .5188802 .4403483 .53515627 .38883464 .53515627 .32177735 .53515627 .26774089 .5262044 .21850586 .5083008 .17407227 .49039714 .12963867 .46842448 .09391276 .4423828 .06689453 .41634117 .0398763 .38997398 .020019532 .36328126 .0073242189 .33658854-.0053710939 .30924479-.01171875 .28125-.01171875 .21907552-.01171875 .17089844 .019856772 .13671875 .08300781L.078125-.19921875H-.010253906M.16455078 .21200562C.16455078 .17324829 .1673177 .14637757 .17285156 .13139344 .18098958 .1102244 .19433594 .09312439 .21289063 .080093387 .23144531 .06706238 .2529297 .060546876 .27734376 .060546876 .328125 .060546876 .36914063 .08911133 .40039063 .14624024 .43164063 .20336914 .44726563 .26171876 .44726563 .32128907 .44726563 .36523438 .43676759 .39916993 .41577149 .4230957 .3947754 .44702149 .36865235 .45898438 .33740235 .45898438 .3149414 .45898438 .29410807 .4530436 .27490235 .4411621 .25569663 .42929078 .23787435 .41156007 .22143555 .38796998 .20499675 .36437989 .19140625 .3355001 .18066406 .30133058 .16992188 .26716105 .16455078 .23738607 .16455078 .21200562Z"/>
<path id="font_8_79" d="M.026367188 0 .17578125 .7158203H.26416017L.114746097 0H.026367188Z"/>
<path id="font_8_68" d="M.3828125 .064453128C.35221354 .038085939 .3227539 .018798829 .2944336 .006591797 .26611329-.0056152346 .23583985-.01171875 .20361328-.01171875 .15576172-.01171875 .1171875 .0023600262 .087890628 .030517579 .05859375 .05867513 .043945314 .09472656 .043945314 .13867188 .043945314 .16764324 .05053711 .193278 .0637207 .21557617 .0769043 .23787435 .09440104 .25577799 .11621094 .2692871 .13802083 .28279624 .16471355 .29248048 .19628906 .29833985 .21614583 .3022461 .25382487 .30533854 .30932618 .3076172 .36482749 .30989585 .4046224 .31575523 .42871095 .3251953 .43554688 .34928385 .43896485 .36930339 .43896485 .3852539 .43896485 .40576173 .43147788 .421875 .4165039 .43359376 .3959961 .44986979 .3660482 .4580078 .32666017 .4580078 .28955079 .4580078 .25919596 .44978843 .2355957 .4333496 .21199544 .4169108 .19482422 .3935547 .18408203 .36328126L.09472656 .37109376C.11295573 .42252604 .1418457 .46191407 .18139649 .4892578 .22094727 .51660159 .27083335 .53027346 .3310547 .53027346 .39518229 .53027346 .44596354 .51497396 .48339845 .484375 .51204428 .46158854 .5263672 .43196617 .5263672 .3955078 .5263672 .36783854 .52229818 .33577476 .51416018 .2993164L.48535157 .17041016C.47623698 .12939453 .4716797 .09602865 .4716797 .0703125 .4716797 .054036458 .4752604 .030598959 .48242188 0H.3930664C.3881836 .016927084 .38476563 .038411458 .3828125 .064453128M.41552735 .2626953C.40315757 .2578125 .38989259 .254069 .37573243 .25146485 .36157228 .24886067 .33789063 .24609375 .3046875 .24316406 .25325523 .23860677 .21695964 .23282878 .19580078 .22583008 .17464192 .21883138 .1586914 .2076823 .14794922 .19238281 .13720703 .17708333 .13183594 .16015625 .13183594 .14160156 .13183594 .11686198 .14038086 .09651693 .1574707 .080566409 .17456055 .06461588 .19889324 .056640626 .23046875 .056640626 .25976563 .056640626 .2879232 .06437174 .3149414 .079833988 .34195964 .09529623 .36328126 .11686198 .37890626 .14453125 .39453126 .17220052 .40673829 .21158855 .41552735 .2626953Z"/>
<path id="font_8_92" d="M0-.20050049 .0053710939-.11630249C.02360026-.12144979 .041341146-.12402344 .05859375-.12402344 .0764974-.12402344 .09098307-.12000529 .10205078-.111968997 .116373699-.10134888 .1319987-.08140564 .14892578-.052139284L.1772461-.0017089844 .09082031 .5185547H.17773438L.21679688 .25610353C.22460938 .20429485 .23128255 .15248616 .2368164 .10067749L.46875 .5185547H.56103518L.23046875-.06845093C.1985677-.12609864 .17024739-.16425579 .14550781-.18292237 .12076823-.20159912 .092285159-.2109375 .060058595-.2109375 .03955078-.2109375 .01953125-.2074585 0-.20050049Z"/>
<path id="font_9_70" d="M.5239258 .36523438 .38867188 .3408203C.3841146 .36767579 .3737793 .38789878 .35766603 .40148927 .34155274 .41507975 .32063804 .421875 .29492188 .421875 .2607422 .421875 .23347982 .41011048 .21313477 .38658143 .19278972 .36305238 .18261719 .32370506 .18261719 .26853944 .18261719 .2071991 .19295247 .16386922 .21362305 .1385498 .23429363 .11324056 .26204429 .10058594 .296875 .10058594 .32291667 .10058594 .34423829 .10799154 .36083985 .122802738 .3774414 .13761394 .38916017 .16308594 .3959961 .19921875L.5307617 .17578125C.51676437 .11393229 .48990885 .067220058 .4501953 .03564453 .41048179 .0040690104 .35725913-.01171875 .29052735-.01171875 .21468099-.01171875 .1542155 .012207031 .10913086 .060058595 .06404623 .107910159 .041503908 .17415364 .041503908 .25878907 .041503908 .34440104 .0641276 .41105143 .109375 .45874024 .15462239 .506429 .21582031 .53027346 .29296876 .53027346 .35611979 .53027346 .4063314 .5166829 .44360353 .48950196 .48087565 .46232096 .5076497 .42089845 .5239258 .36523438Z"/>
<path id="font_9_75" d="M.2084961 .7158203V.4522705C.25276695 .50427249 .30566407 .53027346 .3671875 .53027346 .39876304 .53027346 .4272461 .52441409 .45263673 .5126953 .47802735 .50097659 .4971517 .4860026 .51000979 .46777345 .52286788 .44954429 .5316569 .42936198 .53637698 .40722657 .541097 .38509117 .54345706 .3507487 .54345706 .30419923V0H.40625V.27360536C.40625 .32790629 .40364585 .36237083 .3984375 .3769989 .39322917 .39163719 .3840332 .40326438 .3708496 .4118805 .35766603 .4204966 .34114585 .4248047 .32128907 .4248047 .2985026 .4248047 .27815757 .4192759 .2602539 .40821839 .24235027 .39716087 .22924805 .38049827 .22094727 .3582306 .21264649 .33596293 .2084961 .30303956 .2084961 .25946046V0H.07128906V.7158203H.2084961Z"/>
<path id="font_9_72" d="M.3720703 .16503906 .50878909 .14160156C.49121095 .09163412 .4634603 .053588869 .4255371 .02746582 .38761393 .0013427734 .34016929-.01171875 .28320313-.01171875 .19303386-.01171875 .12630208 .017740885 .08300781 .076660159 .048828126 .12386068 .03173828 .18343099 .03173828 .2553711 .03173828 .3413086 .05419922 .40861003 .099121097 .4572754 .14404297 .50594076 .20084636 .53027346 .26953126 .53027346 .3466797 .53027346 .4075521 .50480148 .45214845 .45385743 .49674479 .40291343 .5180664 .32486979 .5161133 .21972656H.17236328C.17333985 .17903646 .18440755 .14737956 .2055664 .12475586 .22672527 .102132167 .25309245 .09082031 .28466798 .09082031 .30615235 .09082031 .32421876 .09667969 .3388672 .10839844 .35351563 .12011719 .36458335 .13899739 .3720703 .16503906M.3798828 .30371095C.37890626 .34326173 .36865235 .3733317 .3491211 .3939209 .32958985 .4145101 .3058268 .4248047 .27783204 .4248047 .24788411 .4248047 .22314453 .41394554 .20361328 .39222718 .18408203 .37049867 .17447917 .34099327 .17480469 .30371095H.3798828Z"/>
<path id="font_9_78" d="M.06689453 0V.7158203H.20410156V.3359375L.3647461 .5185547H.5336914L.3564453 .32902528 .5463867 0H.3984375L.2680664 .23297119 .20410156 .16601563V0H.06689453Z"/>
<path id="font_9_66" d="M-.009277344-.19824219V-.10839844H.56103518V-.19824219H-.009277344Z"/>
<path id="font_9_68" d="M.1743164 .35839845 .049804689 .38085938C.063802089 .4316508 .087890628 .46924845 .12207031 .49365235 .15625 .5180664 .20703125 .53027346 .27441407 .53027346 .33561198 .53027346 .3811849 .5230306 .4111328 .5085449 .44108073 .49405924 .4621582 .47566734 .47436524 .45336915 .48657228 .43107096 .49267579 .39013673 .49267579 .3305664L.49121095 .17041016C.49121095 .12483724 .4934082 .09122721 .49780274 .06958008 .50219729 .04793294 .5104167 .024739584 .52246096 0H.38671876C.38313804 .009114583 .3787435 .022623698 .37353517 .040527345 .3712565 .048665365 .3696289 .054036458 .36865235 .056640626 .34521485 .033854169 .32014976 .016764323 .29345704 .0053710939 .2667643-.0060221354 .23828125-.01171875 .20800781-.01171875 .15462239-.01171875 .11254883 .0027058919 .08178711 .031555177 .05102539 .06040446 .03564453 .09687296 .03564453 .1409607 .03564453 .1701355 .04264323 .19614665 .056640626 .21899414 .07063802 .2418518 .09025065 .25935874 .115478519 .2715149 .14070638 .28367106 .17708333 .2942861 .22460938 .30336 .28873698 .3153534 .33317057 .3265381 .35791017 .33691407V.35073854C.35791017 .37740074 .35139976 .39640809 .3383789 .40776063 .32535807 .41912333 .30078126 .4248047 .26464845 .4248047 .24023438 .4248047 .2211914 .41989137 .20751953 .4100647 .19384766 .4002482 .18277996 .38302613 .1743164 .35839845M.35791017 .24707031C.34033204 .24128215 .3125 .23436482 .27441407 .22631836 .23632813 .21828206 .21142578 .21040344 .19970703 .2026825 .18180339 .19013977 .17285156 .17421977 .17285156 .15492249 .17285156 .13594055 .18001302 .119532268 .19433594 .10569763 .20865886 .09187317 .22688802 .08496094 .24902344 .08496094 .27376304 .08496094 .29736329 .09300232 .31982423 .10908508 .33642579 .121302288 .34733073 .13626099 .35253907 .15396118 .35611979 .16553752 .35791017 .18756612 .35791017 .220047V.24707031Z"/>
<path id="font_9_87" d="M.3095703 .5185547V.4091797H.21582031V.200531C.21582031 .15827434 .2167155 .13365174 .21850586 .12666321 .22029622 .11968485 .22436524 .11391703 .23071289 .10935974 .23706055 .10481262 .24479167 .10253906 .25390626 .10253906 .26660157 .10253906 .2849935 .106933597 .30908204 .115722659L.32080079 .008880615C.28889976-.004852295 .25276695-.01171875 .21240235-.01171875 .18766277-.01171875 .16536458-.0075683596 .14550781 .0007324219 .12565105 .009033203 .111083988 .01977539 .10180664 .032958986 .0925293 .046142579 .08610026 .063964847 .08251953 .08642578 .079589847 .102376308 .078125 .13460286 .078125 .18310547V.4091797H.015136719V.5185547H.078125V.6220703L.21582031 .703125V.5185547H.3095703Z"/>
<path id="font_9_76" d="M.071777347 .5888672V.7158203H.20898438V.5888672H.071777347M.071777347 0V.5185547H.20898438V0H.071777347Z"/>
<path id="font_9_89" d="M.21435547 0 .0053710939 .5185547H.14941406L.24707031 .25390626 .27539063 .16552735C.2828776 .18798828 .28759767 .20279949 .28955079 .20996094 .29410807 .22460938 .29899089 .23925781 .30419923 .25390626L.40283204 .5185547H.5439453L.33789063 0H.21435547Z"/>
<path id="font_9_11" d="M.2993164-.2109375H.20507813C.15527344-.13566081 .11735026-.057454427 .091308597 .02368164 .06526693 .10481771 .052246095 .18334961 .052246095 .25927735 .052246095 .3534546 .068359378 .44257609 .10058594 .52664187 .12858074 .5996399 .1640625 .66693118 .20703125 .7285156H.30078126C.2561849 .62978109 .22550456 .5457916 .20874024 .47654725 .1919759 .40730287 .18359375 .33390299 .18359375 .25634767 .18359375 .2029012 .18855794 .14815267 .19848633 .09210205 .20841472 .036061605 .2220052-.017211914 .23925781-.067718509 .25065104-.10096232 .27067057-.14870198 .2993164-.2109375Z"/>
<path id="font_9_12" d="M.033691408-.2109375C.060709638-.15293376 .0797526-.108454387 .09082031-.07749939 .10188802-.04654439 .11214193-.010864258 .12158203 .029541016 .13102214 .06995646 .13802083 .10832723 .14257813 .14465332 .14713542 .18098958 .14941406 .21822103 .14941406 .25634767 .14941406 .33390299 .14111328 .40730287 .12451172 .47654725 .107910159 .5457916 .077311199 .62978109 .032714845 .7285156H.12597656C.1751302 .65845748 .21329753 .5841624 .24047852 .5056305 .26765953 .4270986 .28125 .34742738 .28125 .26661683 .28125 .19851177 .2705078 .1255188 .24902344 .04763794 .22460938-.039693197 .18440755-.12588501 .12841797-.2109375H.033691408Z"/>
<path id="font_9_71" d="M.5473633 0H.41992188V.076171878C.39876304 .04654948 .3737793 .024495444 .3449707 .010009766 .3161621-.0044759118 .28710938-.01171875 .2578125-.01171875 .19824219-.01171875 .1472168 .012288411 .10473633 .060302736 .06225586 .108317058 .041015626 .17529297 .041015626 .26123048 .041015626 .3491211 .0616862 .41593424 .103027347 .46166993 .14436849 .5074056 .19661458 .53027346 .25976563 .53027346 .31770835 .53027346 .36783854 .5061849 .41015626 .4580078V.7158203H.5473633V0M.18115235 .2702484C.18115235 .21499126 .18880208 .17501323 .20410156 .15031433 .22623699 .1145579 .25716148 .09667969 .296875 .09667969 .32845054 .09667969 .355306 .110087078 .3774414 .13690186 .3995768 .16371663 .41064454 .20377605 .41064454 .25708009 .41064454 .316569 .39990235 .35939536 .37841798 .38555909 .3569336 .4117228 .3294271 .4248047 .29589845 .4248047 .26334635 .4248047 .23608399 .4118856 .21411133 .38604737 .19213867 .36020915 .18115235 .3216095 .18115235 .2702484Z"/>
<path id="font_9_82" d="M.040039064 .26660157C.040039064 .31217448 .05126953 .35628257 .07373047 .39892579 .096191409 .441569 .12801107 .4741211 .16918946 .49658204 .21036785 .51904299 .25634767 .53027346 .3071289 .53027346 .38557945 .53027346 .44986979 .50480148 .5 .45385743 .5501302 .40291343 .5751953 .33854167 .5751953 .2607422 .5751953 .18229167 .54988607 .11726888 .49926759 .06567383 .44864909 .014078776 .38492839-.01171875 .30810548-.01171875 .26057945-.01171875 .21525066-.0009765625 .17211914 .020507813 .12898763 .041992189 .096191409 .07348633 .07373047 .114990238 .05126953 .15649414 .040039064 .20703125 .040039064 .26660157M.18066406 .25927735C.18066406 .20800781 .1928711 .16874187 .21728516 .14147949 .24169922 .114217128 .2718099 .10058594 .3076172 .10058594 .34342448 .10058594 .37345378 .114217128 .39770509 .14147949 .4219564 .16874187 .43408204 .20833333 .43408204 .2602539 .43408204 .3108724 .4219564 .34981285 .39770509 .3770752 .37345378 .40433757 .34342448 .41796876 .3076172 .41796876 .2718099 .41796876 .24169922 .40433757 .21728516 .3770752 .1928711 .34981285 .18066406 .31054688 .18066406 .25927735Z"/>
<path id="font_9_86" d="M.0234375 .14746094 .16113281 .16894531C.16699219 .14241536 .1788737 .122273769 .19677735 .10852051 .21468099 .09476725 .2397461 .087890628 .27197267 .087890628 .30745445 .087890628 .33414714 .09439087 .35205079 .10739136 .36409507 .116495769 .3701172 .12868755 .3701172 .14396668 .3701172 .15437317 .36686198 .1629893 .36035157 .16981507 .35351563 .17631531 .33821617 .18232727 .31445313 .18785095 .20377605 .21222432 .1336263 .23449199 .104003909 .25465394 .06298828 .2826284 .04248047 .32149253 .04248047 .37124635 .04248047 .41612754 .060221357 .45385234 .095703128 .48442079 .13118489 .5149892 .18619792 .53027346 .2607422 .53027346 .33170573 .53027346 .3844401 .5187581 .4189453 .49572755 .45345054 .47269694 .47721354 .4386393 .49023438 .3935547L.36083985 .36914063C.355306 .3893229 .34480796 .40478517 .3293457 .41552735 .31388346 .42626954 .29182945 .43164063 .2631836 .43164063 .22705078 .43164063 .20117188 .42660014 .18554688 .41651917 .1751302 .40937806 .16992188 .40011598 .16992188 .3887329 .16992188 .37898765 .17447917 .37070213 .18359375 .36387635 .19596355 .35477195 .23868816 .3419291 .31176759 .3253479 .38484703 .3087667 .4358724 .28842674 .46484376 .264328 .4934896 .2398936 .5078125 .20585633 .5078125 .16221619 .5078125 .11465963 .48795573 .073781337 .4482422 .0395813 .40852867 .005381266 .34977214-.01171875 .27197267-.01171875 .20133464-.01171875 .14542644 .0025583904 .10424805 .03111267 .063069667 .059677125 .036132814 .09845988 .0234375 .14746094Z"/>
<path id="font_9_81" d="M.54345706 0H.40625V.26434327C.40625 .32027183 .4033203 .3564453 .39746095 .37286378 .39160157 .38928224 .38208009 .40204368 .36889649 .41114808 .3557129 .42025248 .33984376 .4248047 .32128907 .4248047 .29752604 .4248047 .27620445 .41829936 .25732423 .4052887 .23844402 .3922882 .22550456 .37505595 .21850586 .35359193 .21150716 .33213807 .20800781 .2924703 .20800781 .23458863V0H.07080078V.5185547H.19824219V.4423828C.24348958 .50097659 .30045573 .53027346 .36914063 .53027346 .39941407 .53027346 .42708335 .524821 .45214845 .513916 .47721354 .50301107 .49617515 .48909507 .5090332 .47216798 .5218913 .45524089 .5308431 .43603517 .5358887 .41455079 .54093429 .3930664 .54345706 .3623047 .54345706 .32226563V0Z"/>
<path id="font_10_55" d="M.25927735 0V.63134768H.0234375V.7158203H.5908203V.63134768H.3540039V0H.25927735Z"/>
<path id="font_10_85" d="M.064941409 0V.5185547H.14404297V.4404297C.16422527 .4770101 .18286133 .50112918 .19995117 .51278689 .21704102 .5244446 .23583985 .53027346 .25634767 .53027346 .28597007 .53027346 .31608073 .520874 .3466797 .5020752L.31640626 .42089845C.29492188 .43359376 .2734375 .4399414 .25195313 .4399414 .23274739 .4399414 .2154948 .43415324 .20019531 .4225769 .18489583 .41101075 .17399089 .3949636 .16748047 .37443543 .15771485 .3431549 .15283203 .3089396 .15283203 .27178956V0H.064941409Z"/>
<path id="font_10_68" d="M.40429688 .06402588C.37174479 .03633626 .34041343 .016789755 .31030274 .0053863527 .28019206-.0060170495 .24788411-.01171875 .2133789-.01171875 .15641277-.01171875 .11263021 .0022074383 .08203125 .030059815 .051432294 .05791219 .036132814 .09350077 .036132814 .13682556 .036132814 .16222637 .04191081 .18542989 .053466798 .20643616 .06502279 .22745259 .08015951 .24431356 .09887695 .25701905 .1175944 .26972453 .13867188 .2793325 .16210938 .2858429 .17936199 .29041038 .20540364 .29480998 .24023438 .29904176 .3111979 .30744425 .363444 .3174642 .39697267 .32910157 .3972982 .34109498 .39746095 .3487142 .39746095 .35195924 .39746095 .38763429 .38916017 .4127655 .3725586 .4273529 .35009767 .44713847 .31673179 .45703126 .27246095 .45703126 .2311198 .45703126 .20060222 .44978843 .1809082 .43530274 .16121419 .42081706 .14664714 .39518229 .13720703 .35839845L.05126953 .3701172C.05908203 .40701295 .0719401 .43680827 .08984375 .45950318 .1077474 .4821981 .1336263 .4996643 .16748047 .51190188 .20133464 .5241496 .24055989 .53027346 .28515626 .53027346 .3294271 .53027346 .36539714 .5250651 .3930664 .51464846 .4207357 .50423178 .44108073 .49112956 .45410157 .4753418 .4671224 .45955406 .47623698 .43961589 .4814453 .41552735 .484375 .40055339 .48583985 .37353517 .48583985 .33447267V.21728516C.48583985 .13557942 .48771159 .08390299 .49145509 .06225586 .49519859 .040608724 .5026042 .019856772 .5136719 0H.421875C.4127604 .018249512 .40690104 .039591474 .40429688 .06402588M.39697267 .2607422C.36507163 .24760945 .31722007 .2364502 .25341798 .2272644 .21728516 .22203572 .19173177 .21615093 .17675781 .20960999 .16178386 .20307923 .15022786 .19351705 .14208985 .18092346 .13395183 .16834004 .12988281 .15436809 .12988281 .13900757 .12988281 .115478519 .13875325 .09586588 .15649414 .08016968 .17423503 .06448364 .20019531 .056640626 .234375 .056640626 .26822917 .056640626 .29833985 .064081829 .32470704 .07896423 .35107423 .09384664 .37044273 .11420695 .3828125 .14004517 .3922526 .16000366 .39697267 .18944295 .39697267 .22836304V.2607422Z"/>
<path id="font_10_81" d="M.06591797 0V.5185547H.14501953V.4453125C.18310547 .5019531 .23811849 .53027346 .3100586 .53027346 .3413086 .53027346 .3700358 .5246582 .39624024 .51342776 .42244468 .50219729 .44205729 .48746745 .45507813 .46923829 .46809898 .45100913 .47721354 .42936198 .48242188 .40429688 .4856771 .38802085 .4873047 .35953776 .4873047 .31884767V0H.39941407V.31576539C.39941407 .35161338 .3959961 .37841798 .38916017 .3961792 .38232423 .41394044 .37019859 .42811585 .3527832 .43870545 .33536784 .44929505 .3149414 .45458985 .2915039 .45458985 .254069 .45458985 .22176107 .44269309 .19458008 .41889955 .1673991 .39511619 .1538086 .34998576 .1538086 .2835083V0H.06591797Z"/>
<path id="font_10_86" d="M.030761719 .15527344 .11767578 .16894531C.122558597 .13426717 .1361491 .107691448 .15844727 .08921814 .18074544 .070755008 .21191406 .061523439 .25195313 .061523439 .29231773 .061523439 .32226563 .06967672 .34179688 .08598328 .36132813 .10230001 .37109376 .12143453 .37109376 .14338684 .37109376 .16309102 .36246745 .17859395 .34521485 .18989563 .33317057 .1976471 .30322267 .20749919 .2553711 .2194519 .19091797 .23573812 .14624024 .24982707 .12133789 .26171876 .09643555 .27361045 .077555339 .29006449 .064697269 .31108094 .05183919 .33209739 .045410158 .35531108 .045410158 .38072206 .045410158 .40385438 .05069987 .4252777 .061279298 .44499208 .07185873 .46470643 .08626302 .4810791 .10449219 .4941101 .11816406 .5042114 .13680013 .5127614 .16040039 .51976016 .18400066 .526769 .20930989 .53027346 .23632813 .53027346 .27701823 .53027346 .31274415 .52437338 .34350587 .51257327 .37426759 .50078329 .39697267 .48480735 .4116211 .4646454 .42626954 .44449363 .4363607 .4175415 .44189454 .38378907L.35595704 .3720703C.35205079 .39876304 .34073893 .41959635 .32202149 .4345703 .30330406 .44954429 .27685548 .45703126 .24267578 .45703126 .2023112 .45703126 .17350261 .45038859 .15625 .43710328 .13899739 .42382813 .1303711 .40827943 .1303711 .39045716 .1303711 .37912498 .13395183 .3689219 .14111328 .35984803 .14827474 .35045878 .1595052 .34268699 .17480469 .3365326 .18359375 .33328758 .20947266 .32583619 .2524414 .31417848 .31461589 .29758708 .35799156 .28400675 .38256837 .2734375 .40714518 .26286827 .42643229 .24749756 .4404297 .22732544 .4544271 .2071635 .46142579 .18212383 .46142579 .15220642 .46142579 .12292989 .45288087 .09536234 .43579103 .069503787 .41870118 .043655397 .39404298 .02365621 .3618164 .009506226 .32958985-.0046437585 .2931315-.01171875 .2524414-.01171875 .1850586-.01171875 .13370769 .002319336 .09838867 .030395508 .063069667 .05847168 .040527345 .100097659 .030761719 .15527344Z"/>
<path id="font_10_76" d="M.06640625 .6142578V.7158203H.15429688V.6142578H.06640625M.06640625 0V.5185547H.15429688V0H.06640625Z"/>
<path id="font_10_70" d="M.40429688 .19042969 .49072267 .17919922C.48128257 .11947632 .45711265 .07272339 .4182129 .03894043 .37931315 .005167643 .33154298-.01171875 .27490235-.01171875 .2039388-.01171875 .14689128 .011474609 .103759769 .057861329 .060628255 .10424805 .0390625 .17073567 .0390625 .25732423 .0390625 .3133138 .048339845 .3623047 .06689453 .40429688 .08544922 .44628907 .11368815 .4777832 .15161133 .4987793 .1895345 .5197754 .23079427 .53027346 .27539063 .53027346 .33170573 .53027346 .37776695 .51598617 .41357423 .4874115 .4493815 .45884706 .47233073 .4182841 .48242188 .36572267L.39697267 .35253907C.38883464 .38720704 .37443034 .4132894 .35375978 .43078614 .3330892 .44828288 .30810548 .45703126 .2788086 .45703126 .23453777 .45703126 .1985677 .4412384 .17089844 .4096527 .14322917 .37807719 .12939453 .32811485 .12939453 .25976563 .12939453 .19043987 .14274089 .1400655 .1694336 .10864258 .1961263 .07722982 .23095703 .061523439 .27392579 .061523439 .308431 .061523439 .3372396 .07206217 .36035157 .09313965 .38346354 .114217128 .39811198 .14664714 .40429688 .19042969Z"/>
<path id="font_10_121" d="M.033203126 .25927735C.033203126 .355306 .059895833 .42643229 .11328125 .47265626 .15787761 .5110677 .21223958 .53027346 .2763672 .53027346 .34765626 .53027346 .40592448 .5069173 .45117188 .46020509 .49641929 .41349284 .51904299 .34895835 .51904299 .26660157 .51904299 .1998698 .5090332 .14737956 .48901368 .10913086 .46899415 .070882167 .43986003 .041178388 .40161134 .020019532 .36336265-.0011393229 .3216146-.01171875 .2763672-.01171875 .20377605-.01171875 .1451009 .011555989 .1003418 .05810547 .055582685 .104654949 .033203126 .17171224 .033203126 .25927735M.123535159 .25952149C.123535159 .19335938 .13802083 .14381917 .16699219 .11090088 .19596355 .07798258 .23242188 .061523439 .2763672 .061523439 .31998698 .061523439 .35628257 .078063968 .3852539 .11114502 .41422526 .14422608 .42871095 .19465637 .42871095 .2624359 .42871095 .32632957 .4141439 .3747355 .38500978 .4076538 .35587565 .4405721 .31966148 .45703126 .2763672 .45703126 .23242188 .45703126 .19596355 .44065348 .16699219 .40789796 .13802083 .37514244 .123535159 .3256836 .123535159 .25952149M.22753906 .5830078 .29248048 .71972659H.40771485L.30029298 .5830078H.22753906Z"/>
<path id="font_10_41" d="M.08203125 0V.7158203H.5649414V.63134768H.17675781V.41015626H.5126953V.3256836H.17675781V0H.08203125Z"/>
<path id="font_10_88" d="M.40576173 0V.076171878C.36539714 .017578125 .31054688-.01171875 .24121094-.01171875 .21061199-.01171875 .18204753-.005859375 .15551758 .005859375 .12898763 .017578125 .10929362 .03230794 .09643555 .050048829 .08357748 .06778971 .07454427 .08951823 .06933594 .115234378 .06575521 .13248699 .063964847 .15983074 .063964847 .19726563V.5185547H.15185547V.23095703C.15185547 .1850586 .15364583 .15413411 .15722656 .1381836 .16276042 .11507162 .17447917 .09692383 .19238281 .083740238 .21028646 .07055664 .23242188 .063964847 .25878907 .063964847 .28515626 .063964847 .30989585 .0707194 .3330078 .084228519 .35611979 .09773763 .3724772 .116129558 .38208009 .1394043 .39168296 .16267903 .39648438 .19645183 .39648438 .24072266V.5185547H.484375V0H.40576173Z"/>
<path id="font_10_3" d="M0 0Z"/>
<path id="font_10_71" d="M.40234376 0V.06542969C.36946617 .0139973959 .3211263-.01171875 .25732423-.01171875 .21598308-.01171875 .17797852-.00032552085 .14331055 .022460938 .10864258 .045247396 .08178711 .077067058 .06274414 .11791992 .043701173 .15877278 .034179689 .20572917 .034179689 .25878907 .034179689 .31054688 .04280599 .35750328 .060058595 .3996582 .077311199 .44181315 .1031901 .4741211 .13769531 .49658204 .17220052 .51904299 .21077474 .53027346 .25341798 .53027346 .28466798 .53027346 .3125 .52368167 .33691407 .51049807 .36132813 .49731446 .3811849 .48014323 .39648438 .45898438V.7158203H.48388673V0H.40234376M.12451172 .2590332C.12451172 .1928711 .13850911 .14341228 .1665039 .11065674 .1944987 .07790121 .22753906 .061523439 .265625 .061523439 .30403648 .061523439 .33666993 .077168788 .3635254 .10845947 .39038087 .13976033 .4038086 .18752034 .4038086 .2517395 .4038086 .32243858 .39013673 .3743286 .36279298 .40740968 .33544923 .44049073 .3017578 .45703126 .26171876 .45703126 .22265625 .45703126 .19002278 .4411367 .16381836 .40934754 .13761394 .37756858 .12451172 .32746379 .12451172 .2590332Z"/>
<path id="font_10_72" d="M.42089845 .16699219 .51171877 .15576172C.49739585 .10270182 .47086589 .061523439 .4321289 .032226564 .39339195 .0029296876 .34391276-.01171875 .2836914-.01171875 .20784505-.01171875 .14770508 .01163737 .103271488 .05834961 .05883789 .10506185 .036621095 .17057292 .036621095 .2548828 .036621095 .3421224 .05908203 .40983073 .104003909 .4580078 .14892578 .5061849 .20719402 .53027346 .2788086 .53027346 .34814454 .53027346 .40478517 .5067088 .44873048 .45957948 .49267579 .41246034 .51464846 .34616599 .51464846 .2606964 .51464846 .25549827 .51448568 .247701 .51416018 .23730469H.1274414C.13069661 .1805013 .14680989 .13700359 .17578125 .10681152 .20475261 .07661947 .24088542 .061523439 .2841797 .061523439 .31640626 .061523439 .34391276 .0699056 .36669923 .08666992 .3894857 .10344442 .4075521 .1302185 .42089845 .16699219M.13232422 .31054688H.421875C.41796876 .3534546 .40690104 .38563539 .38867188 .40708924 .3606771 .4403839 .3243815 .45703126 .27978517 .45703126 .23942058 .45703126 .20548503 .44374085 .17797852 .41716004 .150472 .3905894 .1352539 .35505168 .13232422 .31054688Z"/>
<path id="font_10_87" d="M.2578125 .07763672 .2705078 0C.24576824-.0045572917 .22363281-.0068359377 .20410156-.0068359377 .17220052-.0068359377 .14746094-.0017903646 .12988281 .008300781 .11230469 .018391928 .0999349 .031656904 .09277344 .048095704 .08561198 .06453451 .08203125 .099121097 .08203125 .15185547V.4501953H.017578125V.5185547H.08203125V.6473236L.1694336 .7001953V.5185547H.2578125V.4501953H.1694336V.14697266C.1694336 .121907558 .17097982 .10579427 .17407227 .09863281 .17716472 .09147135 .18221028 .08577474 .18920899 .08154297 .19620769 .077311199 .20621746 .07519531 .21923828 .07519531 .2290039 .07519531 .24186199 .07600912 .2578125 .07763672Z"/>
<path id="font_10_82" d="M.033203126 .25927735C.033203126 .355306 .059895833 .42643229 .11328125 .47265626 .15787761 .5110677 .21223958 .53027346 .2763672 .53027346 .34765626 .53027346 .40592448 .5069173 .45117188 .46020509 .49641929 .41349284 .51904299 .34895835 .51904299 .26660157 .51904299 .1998698 .5090332 .14737956 .48901368 .10913086 .46899415 .070882167 .43986003 .041178388 .40161134 .020019532 .36336265-.0011393229 .3216146-.01171875 .2763672-.01171875 .20377605-.01171875 .1451009 .011555989 .1003418 .05810547 .055582685 .104654949 .033203126 .17171224 .033203126 .25927735M.123535159 .25952149C.123535159 .19335938 .13802083 .14381917 .16699219 .11090088 .19596355 .07798258 .23242188 .061523439 .2763672 .061523439 .31998698 .061523439 .35628257 .078063968 .3852539 .11114502 .41422526 .14422608 .42871095 .19465637 .42871095 .2624359 .42871095 .32632957 .4141439 .3747355 .38500978 .4076538 .35587565 .4405721 .31966148 .45703126 .2763672 .45703126 .23242188 .45703126 .19596355 .44065348 .16699219 .40789796 .13802083 .37514244 .123535159 .3256836 .123535159 .25952149Z"/>
<path id="font_10_80" d="M.06591797 0V.5185547H.14453125V.44628907C.1608073 .47153727 .18245442 .4918467 .20947266 .5072174 .23649089 .5225881 .2672526 .53027346 .3017578 .53027346 .34016929 .53027346 .37166343 .52233889 .39624024 .5064697 .42081706 .49061076 .43815104 .46843467 .4482422 .4399414 .4892578 .5001628 .54264327 .53027346 .60839846 .53027346 .65983077 .53027346 .69938156 .5160319 .7270508 .48754884 .75472006 .45906578 .7685547 .4152018 .7685547 .35595704V0H.68115237V.3270111C.68115237 .36220805 .678304 .38754273 .6726074 .40301515 .6669108 .4184977 .6565755 .43096415 .64160159 .44041444 .6266276 .44986473 .6090495 .45458985 .5888672 .45458985 .5524089 .45458985 .52213546 .44244895 .49804688 .4181671 .47395835 .39389549 .46191407 .3550364 .46191407 .30158998V0H.37402345V.33728028C.37402345 .37638346 .36686198 .40571086 .35253907 .42526246 .33821617 .44481407 .31477867 .45458985 .28222657 .45458985 .25748698 .45458985 .23461914 .44806925 .21362305 .43502809 .19262696 .42199708 .17740886 .40293376 .16796875 .37783814 .15852864 .3527527 .1538086 .31658427 .1538086 .2693329V0H.06591797Z"/>
<path id="font_10_83" d="M.06591797-.19921875V.5185547H.1459961V.45166017C.1648763 .4778646 .18619792 .4975179 .20996094 .5106201 .23372396 .52372238 .26253257 .53027346 .29638673 .53027346 .34065757 .53027346 .37972007 .5188802 .41357423 .49609376 .44742839 .47330729 .47298179 .4411621 .49023438 .3996582 .507487 .3581543 .5161133 .31266276 .5161133 .2631836 .5161133 .2101237 .5065918 .16235352 .48754884 .11987305 .46850587 .07739258 .44083659 .044840497 .40454103 .022216797 .36824546-.00040690104 .33007813-.01171875 .29003907-.01171875 .2607422-.01171875 .23445638-.005452474 .21118164 .007080078 .1879069 .019622803 .16878255 .035461427 .1538086 .054595949V-.19921875H.06591797M.14550781 .25708009C.14550781 .19042969 .15901692 .14117432 .18603516 .109313968 .21305339 .07745361 .24576824 .061523439 .2841797 .061523439 .3232422 .061523439 .35668946 .07802328 .38452149 .11102295 .41235353 .14402263 .42626954 .19514974 .42626954 .2644043 .42626954 .33040367 .41267906 .37982179 .38549806 .4126587 .35831706 .4454956 .32584635 .46191407 .28808595 .46191407 .25065104 .46191407 .2175293 .44443766 .1887207 .40948487 .15991211 .37453208 .14550781 .32373048 .14550781 .25708009Z"/>
<path id="font_10_69" d="M.14697266 0H.06542969V.7158203H.15332031V.45950318C.19042969 .50668337 .23779297 .53027346 .29541017 .53027346 .3273112 .53027346 .35750328 .5238444 .38598634 .5109863 .4144694 .49812828 .4379069 .48006187 .45629884 .4567871 .47469078 .43351237 .48909507 .4054362 .49951173 .3725586 .5099284 .339681 .5151367 .30452476 .5151367 .26708985 .5151367 .17822266 .49316407 .10953776 .44921876 .061035158 .40527345 .012532552 .35253907-.01171875 .29101563-.01171875 .2298177-.01171875 .18180339 .014160156 .14697266 .06591797V0M.1459961 .26316834C.1459961 .20129903 .15445964 .15659587 .17138672 .12905884 .19905599 .08403524 .23649089 .061523439 .2836914 .061523439 .32210288 .061523439 .355306 .078125 .38330079 .111328128 .41129557 .14453125 .42529298 .19401042 .42529298 .25976563 .42529298 .32713828 .41186524 .37685649 .38500978 .4089203 .3581543 .44099427 .3256836 .45703126 .28759767 .45703126 .2491862 .45703126 .21598308 .4404297 .18798828 .40722657 .15999349 .37402345 .1459961 .32600404 .1459961 .26316834Z"/>
<path id="font_10_79" d="M.063964847 0V.7158203H.15185547V0H.063964847Z"/>
<path id="font_10_93" d="M.01953125 0V.07128906L.34960938 .4501953C.31217448 .4482422 .27913413 .44726563 .25048829 .44726563H.0390625V.5185547H.46289063V.46044923L.1821289 .13134766 .12792969 .07128906C.1673177 .07421875 .20426433 .075683597 .23876953 .075683597H.47851563V0H.01953125Z"/>
<path id="font_10_40" d="M.07910156 0V.7158203H.5966797V.63134768H.17382813V.41210938H.5698242V.32910157H.17382813V.084472659H.61328127V0H.07910156Z"/>
<path id="font_10_58" d="M.20214844 0 .012207031 .7158203H.109375L.21826172 .24658203C.22998047 .19742839 .24007161 .14860027 .24853516 .100097659 .2667643 .17659505 .2775065 .22070313 .28076173 .23242188L.4169922 .7158203H.53125L.63378909 .35351563C.6595052 .26367188 .6780599 .17919922 .6894531 .100097659 .6985677 .14534505 .7104492 .19726563 .72509768 .25585938L.83740237 .7158203H.9326172L.7363281 0H.64501956L.49414063 .54541018C.4814453 .5909831 .47395835 .61897787 .4716797 .62939456 .46419273 .5965169 .457194 .56852218 .4506836 .54541018L.29882813 0H.20214844Z"/>
<path id="font_10_36" d="M-.0014648438 0 .2734375 .7158203H.37548829L.66845706 0H.5605469L.47705079 .21582031H.17773438L.099121097 0H-.0014648438M.20507813 .2939453H.4477539L.37304688 .4921875C.3502604 .5524089 .33333335 .601888 .32226563 .640625 .31315104 .59472659 .30029298 .5491536 .2836914 .50390627L.20507813 .2939453Z"/>
<path id="font_10_44" d="M.09326172 0V.7158203H.18798828V0H.09326172Z"/>
<path id="font_10_39" d="M.07714844 0V.7158203H.32373048C.37939454 .7158203 .421875 .71240237 .45117188 .7055664 .4921875 .6961263 .52718099 .67903646 .55615237 .6542969 .5939128 .6223958 .6221517 .5816243 .64086917 .5319824 .6595866 .48234049 .6689453 .4256185 .6689453 .3618164 .6689453 .30745445 .66259768 .25927735 .64990237 .21728516 .63720706 .17529297 .62093099 .14054363 .6010742 .11303711 .58121749 .0855306 .55948898 .06388346 .5358887 .048095704 .5122884 .03230794 .48380534 .020345053 .45043946 .012207031 .41707359 .0040690104 .3787435 0 .33544923 0H.07714844M.171875 .084472659H.32470704C.37190757 .084472659 .40893556 .08886719 .43579103 .09765625 .46264649 .10644531 .48404948 .1188151 .5 .13476563 .52246096 .15722656 .5399577 .18741863 .55249026 .2253418 .56502279 .26326499 .57128909 .30924479 .57128909 .36328126 .57128909 .43815104 .5590007 .49568687 .5344238 .5358887 .509847 .5760905 .47998048 .60302737 .44482423 .6166992 .4194336 .62646487 .37858073 .63134768 .32226563 .63134768H.171875V.084472659Z"/>
<path id="font_10_54" d="M.044921876 .23046875 .13427735 .23828125C.13850911 .20247396 .14835613 .1730957 .16381836 .15014649 .1792806 .12719727 .20328777 .10864258 .23583985 .09448242 .26839195 .080322269 .30501304 .07324219 .34570313 .07324219 .38183595 .07324219 .41373698 .07861328 .44140626 .08935547 .46907554 .100097659 .4896647 .11482748 .5031738 .13354492 .5166829 .15226238 .5234375 .1726888 .5234375 .19482422 .5234375 .21728516 .51692709 .23689778 .50390627 .2536621 .4908854 .27042643 .46940104 .28450523 .43945313 .29589845 .4202474 .3033854 .37776695 .3150228 .31201173 .33081056 .24625652 .3465983 .20019531 .36149089 .17382813 .37548829 .13964844 .39339195 .11417643 .41560874 .09741211 .44213868 .08064779 .4686686 .072265628 .4983724 .072265628 .53125 .072265628 .5673828 .08251953 .6011556 .103027347 .63256838 .123535159 .66398116 .15348308 .6878255 .1928711 .70410159 .23225911 .7203776 .27604167 .7285156 .32421876 .7285156 .37727867 .7285156 .42407228 .7199707 .4645996 .70288088 .50512698 .685791 .5362956 .66064456 .55810549 .6274414 .57991537 .5942383 .5916341 .5566406 .5932617 .51464846L.5024414 .5078125C.4975586 .55322268 .48103843 .5875244 .45288087 .6107178 .4247233 .63391116 .38313804 .6455078 .328125 .6455078 .27083335 .6455078 .22908528 .6349996 .20288086 .61398318 .17667644 .59297689 .16357422 .5676524 .16357422 .53800967 .16357422 .51227316 .17285156 .49109904 .19140625 .4744873 .20963542 .4578654 .25724284 .44084168 .33422853 .42341615 .4112142 .4059906 .46402995 .39076234 .49267579 .37773133 .53434249 .3585154 .5651042 .33416239 .58496096 .30467225 .6048177 .27519227 .6147461 .24123128 .6147461 .2027893 .6147461 .16468303 .6038411 .12876892 .58203127 .095047 .5602214 .061335248 .52888998 .035110475 .4880371 .01637268 .44718424-.0023549398 .40120445-.01171875 .35009767-.01171875 .285319-.01171875 .2310384-.0022786458 .18725586 .016601563 .14347331 .03548177 .10913086 .06388346 .084228519 .10180664 .059326173 .13972982 .046223958 .18261719 .044921876 .23046875Z"/>
<path id="font_10_51" d="M.07714844 0V.7158203H.34716798C.394694 .7158203 .4309896 .71354678 .4560547 .70899966 .49121095 .70314028 .5206706 .69200137 .5444336 .6755829 .5681966 .6591644 .587321 .63615927 .60180667 .6065674 .6162923 .57698568 .62353518 .5444743 .62353518 .5090332 .62353518 .44822184 .6041667 .39676414 .5654297 .35466004 .5266927 .31255595 .45670573 .2915039 .35546876 .2915039H.171875V0H.07714844M.171875 .37597657H.3569336C.4181315 .37597657 .46158854 .38734437 .4873047 .41007997 .5130208 .4328257 .5258789 .4648336 .5258789 .5061035 .5258789 .5359904 .51831057 .5615743 .5031738 .5828552 .4880371 .60413619 .46809898 .6181895 .44335938 .62501528 .42740885 .6292369 .39794923 .63134768 .35498048 .63134768H.171875V.37597657Z"/>
<path id="font_10_47" d="M.07324219 0V.7158203H.16796875V.084472659H.5205078V0H.07324219Z"/>
<path id="font_10_60" d="M.2788086 0V.30371095L.0029296876 .7158203H.11816406L.25927735 .5003052C.285319 .46000163 .3095703 .4196981 .33203126 .37939454 .35351563 .41677857 .37955729 .45887248 .41015626 .50567629L.5488281 .7158203H.6591797L.37353517 .30371095V0H.2788086Z"/>
<path id="font_9_73" d="M.01171875 .5185547H.087890628V.55770877C.087890628 .60143026 .0925293 .63405868 .10180664 .6555939 .111083988 .6771291 .12817383 .69466659 .15307617 .7082062 .17797852 .7217458 .20947266 .7285156 .2475586 .7285156 .2866211 .7285156 .32486979 .72265627 .3623047 .7109375L.34375 .6152344C.3219401 .6204427 .300944 .6230469 .28076173 .6230469 .26090495 .6230469 .2466634 .61838278 .23803711 .60905459 .22941081 .5997365 .22509766 .5818329 .22509766 .5553436V.5185547H.32763673V.41015626H.22509766V0H.087890628V.41015626H.01171875V.5185547Z"/>
<path id="font_9_90" d="M.16845703 0 .0043945314 .5185547H.13769531L.23486328 .17871094 .32421876 .5185547H.45654298L.54296877 .17871094 .64208987 .5185547H.77734377L.61083987 0H.4790039L.38964845 .3334961 .3017578 0H.16845703Z"/>
<path id="font_9_79" d="M.071777347 0V.7158203H.20898438V0H.071777347Z"/>
<path id="font_9_85" d="M.203125 0H.06591797V.5185547H.19335938V.44482423C.21516927 .47965495 .2347819 .5026042 .25219728 .5136719 .26961265 .52473959 .28938804 .53027346 .31152345 .53027346 .34277345 .53027346 .37288413 .52164718 .40185548 .50439456L.359375 .38476563C.33626304 .3997396 .31477867 .40722657 .29492188 .40722657 .27571617 .40722657 .2594401 .40193687 .24609375 .39135743 .23274739 .38077799 .22224935 .36165367 .21459961 .33398438 .20694988 .3063151 .203125 .24837239 .203125 .16015625V0Z"/>
</defs>
<g clip-path="url(#clip_1)">
<path transform="matrix(.75,0,0,.75,0,0)" d="M0 0H403V196H0Z" fill="#ffffff"/>
</g>
<g clip-path="url(#clip_2)">
<path transform="matrix(.62817087,0,0,.62817087,-425.23814,198.3935)" stroke-width="1" stroke-linecap="butt" stroke-miterlimit="10" stroke-linejoin="miter" fill="none" stroke="#000000" d="M798.28-247.28C798.29336-261.76 813.86666-269 845-269 876.13339-269 891.70339-263.88334 891.71-253.65"/>
<path transform="matrix(.62817087,0,0,.62817087,-425.23814,198.3935)" d="M891.71-248.4 888.21-255.4 891.71-253.65 895.21-255.4 891.71-248.4Z"/>
<path transform="matrix(.62817087,0,0,.62817087,-425.23814,198.3935)" stroke-width="1" stroke-linecap="butt" stroke-miterlimit="10" stroke-linejoin="miter" fill="none" stroke="#000000" d="M891.71-248.4 888.21-255.4 891.71-253.65 895.21-255.4 891.71-248.4Z"/>
</g>
<g clip-path="url(#clip_3)">
<g clip-path="url(#clip_4)">
<g clip-path="url(#clip_5)">
<g clip-path="url(#clip_6)">
<path transform="matrix(.62817087,0,0,.62817087,-425.55226,198.07942)" d="M825.7344-109H886.2656V-108H825.7344Z" fill="#5e5e5e"/>
</g>
</g>
</g>
</g>
<g clip-path="url(#clip_7)">
<use data-text="F" xlink:href="#font_8_41" transform="matrix(6.909879,0,0,-6.909879,93.150028,128.98062)" fill="#5e5e5e"/>
<use data-text="S" xlink:href="#font_8_54" transform="matrix(6.909879,0,0,-6.909879,97.37195,128.98062)" fill="#5e5e5e"/>
<use data-text="M" xlink:href="#font_8_48" transform="matrix(6.909879,0,0,-6.909879,101.980838,128.98062)" fill="#5e5e5e"/>
<use data-text=" " xlink:href="#font_8_3" transform="matrix(6.909879,0,0,-6.909879,107.736759,128.98062)" fill="#5e5e5e"/>
<use data-text="d" xlink:href="#font_8_71" transform="matrix(6.909879,0,0,-6.909879,109.657718,128.98062)" fill="#5e5e5e"/>
<use data-text="i" xlink:href="#font_8_76" transform="matrix(6.909879,0,0,-6.909879,113.49963,128.98062)" fill="#5e5e5e"/>
<use data-text="s" xlink:href="#font_8_86" transform="matrix(6.909879,0,0,-6.909879,115.03363,128.98062)" fill="#5e5e5e"/>
<use data-text="p" xlink:href="#font_8_83" transform="matrix(6.909879,0,0,-6.909879,118.48859,128.98062)" fill="#5e5e5e"/>
<use data-text="l" xlink:href="#font_8_79" transform="matrix(6.909879,0,0,-6.909879,122.330509,128.98062)" fill="#5e5e5e"/>
<use data-text="a" xlink:href="#font_8_68" transform="matrix(6.909879,0,0,-6.909879,123.8645,128.98062)" fill="#5e5e5e"/>
<use data-text="y" xlink:href="#font_8_92" transform="matrix(6.909879,0,0,-6.909879,127.70642,128.98062)" fill="#5e5e5e"/>
<use data-text="c" xlink:href="#font_9_70" transform="matrix(5.025367,0,0,-5.025367,87.03516,17.166214)" fill="#007fff"/>
<use data-text="h" xlink:href="#font_9_75" transform="matrix(5.025367,0,0,-5.025367,89.829288,17.166214)" fill="#007fff"/>
<use data-text="e" xlink:href="#font_9_72" transform="matrix(5.025367,0,0,-5.025367,92.89978,17.166214)" fill="#007fff"/>
<use data-text="c" xlink:href="#font_9_70" transform="matrix(5.025367,0,0,-5.025367,95.69385,17.166214)" fill="#007fff"/>
<use data-text="k" xlink:href="#font_9_78" transform="matrix(5.025367,0,0,-5.025367,98.487979,17.166214)" fill="#007fff"/>
<use data-text="_" xlink:href="#font_9_66" transform="matrix(5.025367,0,0,-5.025367,101.282108,17.166214)" fill="#007fff"/>
<use data-text="a" xlink:href="#font_9_68" transform="matrix(5.025367,0,0,-5.025367,104.07617,17.166214)" fill="#007fff"/>
<use data-text="c" xlink:href="#font_9_70" transform="matrix(5.025367,0,0,-5.025367,106.8703,17.166214)" fill="#007fff"/>
<use data-text="t" xlink:href="#font_9_87" transform="matrix(5.025367,0,0,-5.025367,109.66437,17.166214)" fill="#007fff"/>
<use data-text="i" xlink:href="#font_9_76" transform="matrix(5.025367,0,0,-5.025367,111.33783,17.166214)" fill="#007fff"/>
<use data-text="v" xlink:href="#font_9_89" transform="matrix(5.025367,0,0,-5.025367,112.73486,17.166214)" fill="#007fff"/>
<use data-text="e" xlink:href="#font_9_72" transform="matrix(5.025367,0,0,-5.025367,115.52899,17.166214)" fill="#007fff"/>
<use data-text="(" xlink:href="#font_9_11" transform="matrix(5.025367,0,0,-5.025367,118.335758,17.166214)" fill="#007fff"/>
<use data-text=")" xlink:href="#font_9_12" transform="matrix(5.025367,0,0,-5.025367,120.00922,17.166214)" fill="#007fff"/>
<use data-text="d" xlink:href="#font_9_71" transform="matrix(5.025367,0,0,-5.025367,87.03516,23.447922)" fill="#009900"/>
<use data-text="o" xlink:href="#font_9_82" transform="matrix(5.025367,0,0,-5.025367,90.10565,23.447922)" fill="#009900"/>
<use data-text="_" xlink:href="#font_9_66" transform="matrix(5.025367,0,0,-5.025367,93.17615,23.447922)" fill="#009900"/>
<use data-text="s" xlink:href="#font_9_86" transform="matrix(5.025367,0,0,-5.025367,95.970279,23.447922)" fill="#009900"/>
<use data-text="e" xlink:href="#font_9_72" transform="matrix(5.025367,0,0,-5.025367,98.76434,23.447922)" fill="#009900"/>
<use data-text="t" xlink:href="#font_9_87" transform="matrix(5.025367,0,0,-5.025367,101.55847,23.447922)" fill="#009900"/>
<use data-text="_" xlink:href="#font_9_66" transform="matrix(5.025367,0,0,-5.025367,103.23193,23.447922)" fill="#009900"/>
<use data-text="o" xlink:href="#font_9_82" transform="matrix(5.025367,0,0,-5.025367,106.026,23.447922)" fill="#009900"/>
<use data-text="n" xlink:href="#font_9_81" transform="matrix(5.025367,0,0,-5.025367,109.0965,23.447922)" fill="#009900"/>
<use data-text="(" xlink:href="#font_9_11" transform="matrix(5.025367,0,0,-5.025367,112.171817,23.447922)" fill="#009900"/>
<use data-text=")" xlink:href="#font_9_12" transform="matrix(5.025367,0,0,-5.025367,113.845279,23.447922)" fill="#009900"/>
<use data-text="T" xlink:href="#font_10_55" transform="matrix(5.025367,0,0,-5.025367,232.2702,95.68758)"/>
<use data-text="r" xlink:href="#font_10_85" transform="matrix(5.025367,0,0,-5.025367,235.15345,95.68758)"/>
<use data-text="a" xlink:href="#font_10_68" transform="matrix(5.025367,0,0,-5.025367,236.82685,95.68758)"/>
<use data-text="n" xlink:href="#font_10_81" transform="matrix(5.025367,0,0,-5.025367,239.62097,95.68758)"/>
<use data-text="s" xlink:href="#font_10_86" transform="matrix(5.025367,0,0,-5.025367,242.41504,95.68758)"/>
<use data-text="i" xlink:href="#font_10_76" transform="matrix(5.025367,0,0,-5.025367,244.92774,95.68758)"/>
<use data-text="c" xlink:href="#font_10_70" transform="matrix(5.025367,0,0,-5.025367,246.04334,95.68758)"/>
<use data-text="i" xlink:href="#font_10_76" transform="matrix(5.025367,0,0,-5.025367,248.55603,95.68758)"/>
<use data-text="&#x00f3;" xlink:href="#font_10_121" transform="matrix(5.025367,0,0,-5.025367,249.67169,95.68758)"/>
<use data-text="n" xlink:href="#font_10_81" transform="matrix(5.025367,0,0,-5.025367,252.46576,95.68758)"/>
<path transform="matrix(.62817087,0,0,.62817087,-425.23814,198.3935)" d="M961.5-153.5H983.5V-140.5H961.5Z" fill="#007fff"/>
<path transform="matrix(.62817087,0,0,.62817087,-425.23814,198.3935)" stroke-width="1" stroke-linecap="butt" stroke-miterlimit="4" stroke-linejoin="miter" fill="none" stroke="#666666" d="M961.5-153.5H983.5V-140.5H961.5Z"/>
<use data-text="F" xlink:href="#font_10_41" transform="matrix(5.025367,0,0,-5.025367,193.82422,108.25099)" fill="#007fff"/>
<use data-text="u" xlink:href="#font_10_88" transform="matrix(5.025367,0,0,-5.025367,196.89472,108.25099)" fill="#007fff"/>
<use data-text="n" xlink:href="#font_10_81" transform="matrix(5.025367,0,0,-5.025367,199.68878,108.25099)" fill="#007fff"/>
<use data-text="c" xlink:href="#font_10_70" transform="matrix(5.025367,0,0,-5.025367,202.48291,108.25099)" fill="#007fff"/>
<use data-text="i" xlink:href="#font_10_76" transform="matrix(5.025367,0,0,-5.025367,204.9956,108.25099)" fill="#007fff"/>
<use data-text="&#x00f3;" xlink:href="#font_10_121" transform="matrix(5.025367,0,0,-5.025367,206.1112,108.25099)" fill="#007fff"/>
<use data-text="n" xlink:href="#font_10_81" transform="matrix(5.025367,0,0,-5.025367,208.90534,108.25099)" fill="#007fff"/>
<use data-text=" " xlink:href="#font_10_3" transform="matrix(5.025367,0,0,-5.025367,211.69947,108.25099)" fill="#007fff"/>
<use data-text="d" xlink:href="#font_10_71" transform="matrix(5.025367,0,0,-5.025367,213.0965,108.25099)" fill="#007fff"/>
<use data-text="e" xlink:href="#font_10_72" transform="matrix(5.025367,0,0,-5.025367,215.89057,108.25099)" fill="#007fff"/>
<use data-text=" " xlink:href="#font_10_3" transform="matrix(5.025367,0,0,-5.025367,218.68476,108.25099)" fill="#007fff"/>
<use data-text="e" xlink:href="#font_10_72" transform="matrix(5.025367,0,0,-5.025367,220.08179,108.25099)" fill="#007fff"/>
<use data-text="n" xlink:href="#font_10_81" transform="matrix(5.025367,0,0,-5.025367,222.87586,108.25099)" fill="#007fff"/>
<use data-text="t" xlink:href="#font_10_87" transform="matrix(5.025367,0,0,-5.025367,225.66999,108.25099)" fill="#007fff"/>
<use data-text="r" xlink:href="#font_10_85" transform="matrix(5.025367,0,0,-5.025367,227.06702,108.25099)" fill="#007fff"/>
<use data-text="a" xlink:href="#font_10_68" transform="matrix(5.025367,0,0,-5.025367,228.74048,108.25099)" fill="#007fff"/>
<use data-text="d" xlink:href="#font_10_71" transform="matrix(5.025367,0,0,-5.025367,231.53455,108.25099)" fill="#007fff"/>
<use data-text="a" xlink:href="#font_10_68" transform="matrix(5.025367,0,0,-5.025367,234.32868,108.25099)" fill="#007fff"/>
<use data-text=" " xlink:href="#font_10_3" transform="matrix(5.025367,0,0,-5.025367,237.12274,108.25099)" fill="#007fff"/>
<use data-text="o" xlink:href="#font_10_82" transform="matrix(5.025367,0,0,-5.025367,238.51984,108.25099)" fill="#007fff"/>
<use data-text=" " xlink:href="#font_10_3" transform="matrix(5.025367,0,0,-5.025367,241.3139,108.25099)" fill="#007fff"/>
<use data-text="c" xlink:href="#font_10_70" transform="matrix(5.025367,0,0,-5.025367,242.71094,108.25099)" fill="#007fff"/>
<use data-text="o" xlink:href="#font_10_82" transform="matrix(5.025367,0,0,-5.025367,245.22364,108.25099)" fill="#007fff"/>
<use data-text="m" xlink:href="#font_10_80" transform="matrix(5.025367,0,0,-5.025367,248.01776,108.25099)" fill="#007fff"/>
<use data-text="p" xlink:href="#font_10_83" transform="matrix(5.025367,0,0,-5.025367,252.20386,108.25099)" fill="#007fff"/>
<use data-text="r" xlink:href="#font_10_85" transform="matrix(5.025367,0,0,-5.025367,254.99793,108.25099)" fill="#007fff"/>
<use data-text="o" xlink:href="#font_10_82" transform="matrix(5.025367,0,0,-5.025367,256.67134,108.25099)" fill="#007fff"/>
<use data-text="b" xlink:href="#font_10_69" transform="matrix(5.025367,0,0,-5.025367,259.46546,108.25099)" fill="#007fff"/>
<use data-text="a" xlink:href="#font_10_68" transform="matrix(5.025367,0,0,-5.025367,262.25959,108.25099)" fill="#007fff"/>
<use data-text="c" xlink:href="#font_10_70" transform="matrix(5.025367,0,0,-5.025367,265.05366,108.25099)" fill="#007fff"/>
<use data-text="i" xlink:href="#font_10_76" transform="matrix(5.025367,0,0,-5.025367,267.56636,108.25099)" fill="#007fff"/>
<use data-text="&#x00f3;" xlink:href="#font_10_121" transform="matrix(5.025367,0,0,-5.025367,268.682,108.25099)" fill="#007fff"/>
<use data-text="n" xlink:href="#font_10_81" transform="matrix(5.025367,0,0,-5.025367,271.47608,108.25099)" fill="#007fff"/>
<path transform="matrix(.62817087,0,0,.62817087,-425.23814,198.3935)" d="M961-132.5H983V-119.5H961Z" fill="#009900"/>
<path transform="matrix(.62817087,0,0,.62817087,-425.23814,198.3935)" stroke-width="1" stroke-linecap="butt" stroke-miterlimit="4" stroke-linejoin="miter" fill="none" stroke="#666666" d="M961-132.5H983V-119.5H961Z"/>
<use data-text="F" xlink:href="#font_10_41" transform="matrix(5.025367,0,0,-5.025367,193.82422,120.81441)" fill="#009900"/>
<use data-text="u" xlink:href="#font_10_88" transform="matrix(5.025367,0,0,-5.025367,196.89472,120.81441)" fill="#009900"/>
<use data-text="n" xlink:href="#font_10_81" transform="matrix(5.025367,0,0,-5.025367,199.68878,120.81441)" fill="#009900"/>
<use data-text="c" xlink:href="#font_10_70" transform="matrix(5.025367,0,0,-5.025367,202.48291,120.81441)" fill="#009900"/>
<use data-text="i" xlink:href="#font_10_76" transform="matrix(5.025367,0,0,-5.025367,204.9956,120.81441)" fill="#009900"/>
<use data-text="&#x00f3;" xlink:href="#font_10_121" transform="matrix(5.025367,0,0,-5.025367,206.1112,120.81441)" fill="#009900"/>
<use data-text="n" xlink:href="#font_10_81" transform="matrix(5.025367,0,0,-5.025367,208.90534,120.81441)" fill="#009900"/>
<use data-text=" " xlink:href="#font_10_3" transform="matrix(5.025367,0,0,-5.025367,211.69947,120.81441)" fill="#009900"/>
<use data-text="d" xlink:href="#font_10_71" transform="matrix(5.025367,0,0,-5.025367,213.0965,120.81441)" fill="#009900"/>
<use data-text="e" xlink:href="#font_10_72" transform="matrix(5.025367,0,0,-5.025367,215.89057,120.81441)" fill="#009900"/>
<use data-text=" " xlink:href="#font_10_3" transform="matrix(5.025367,0,0,-5.025367,218.68476,120.81441)" fill="#009900"/>
<use data-text="s" xlink:href="#font_10_86" transform="matrix(5.025367,0,0,-5.025367,220.08179,120.81441)" fill="#009900"/>
<use data-text="a" xlink:href="#font_10_68" transform="matrix(5.025367,0,0,-5.025367,222.59449,120.81441)" fill="#009900"/>
<use data-text="l" xlink:href="#font_10_79" transform="matrix(5.025367,0,0,-5.025367,225.38855,120.81441)" fill="#009900"/>
<use data-text="i" xlink:href="#font_10_76" transform="matrix(5.025367,0,0,-5.025367,226.50421,120.81441)" fill="#009900"/>
<use data-text="d" xlink:href="#font_10_71" transform="matrix(5.025367,0,0,-5.025367,227.61981,120.81441)" fill="#009900"/>
<use data-text="a" xlink:href="#font_10_68" transform="matrix(5.025367,0,0,-5.025367,230.41394,120.81441)" fill="#009900"/>
<use data-text=" " xlink:href="#font_10_3" transform="matrix(5.025367,0,0,-5.025367,233.20801,120.81441)" fill="#009900"/>
<use data-text="o" xlink:href="#font_10_82" transform="matrix(5.025367,0,0,-5.025367,234.6051,120.81441)" fill="#009900"/>
<use data-text=" " xlink:href="#font_10_3" transform="matrix(5.025367,0,0,-5.025367,237.39917,120.81441)" fill="#009900"/>
<use data-text="a" xlink:href="#font_10_68" transform="matrix(5.025367,0,0,-5.025367,238.79627,120.81441)" fill="#009900"/>
<use data-text="c" xlink:href="#font_10_70" transform="matrix(5.025367,0,0,-5.025367,241.59033,120.81441)" fill="#009900"/>
<use data-text="t" xlink:href="#font_10_87" transform="matrix(5.025367,0,0,-5.025367,244.10303,120.81441)" fill="#009900"/>
<use data-text="u" xlink:href="#font_10_88" transform="matrix(5.025367,0,0,-5.025367,245.50006,120.81441)" fill="#009900"/>
<use data-text="a" xlink:href="#font_10_68" transform="matrix(5.025367,0,0,-5.025367,248.29419,120.81441)" fill="#009900"/>
<use data-text="l" xlink:href="#font_10_79" transform="matrix(5.025367,0,0,-5.025367,251.08826,120.81441)" fill="#009900"/>
<use data-text="i" xlink:href="#font_10_76" transform="matrix(5.025367,0,0,-5.025367,252.20392,120.81441)" fill="#009900"/>
<use data-text="z" xlink:href="#font_10_93" transform="matrix(5.025367,0,0,-5.025367,253.31958,120.81441)" fill="#009900"/>
<use data-text="a" xlink:href="#font_10_68" transform="matrix(5.025367,0,0,-5.025367,255.83222,120.81441)" fill="#009900"/>
<use data-text="c" xlink:href="#font_10_70" transform="matrix(5.025367,0,0,-5.025367,258.62635,120.81441)" fill="#009900"/>
<use data-text="i" xlink:href="#font_10_76" transform="matrix(5.025367,0,0,-5.025367,261.13905,120.81441)" fill="#009900"/>
<use data-text="&#x00f3;" xlink:href="#font_10_121" transform="matrix(5.025367,0,0,-5.025367,262.25465,120.81441)" fill="#009900"/>
<use data-text="n" xlink:href="#font_10_81" transform="matrix(5.025367,0,0,-5.025367,265.04878,120.81441)" fill="#009900"/>
<path transform="matrix(.62817087,0,0,.62817087,-425.23814,198.3935)" stroke-width="1" stroke-linecap="butt" stroke-miterlimit="10" stroke-linejoin="miter" fill="none" stroke="#000000" d="M1005.89-167.06C1005.89-167.06 1015.8167-167.08333 1035.67-167.13"/>
<path transform="matrix(.62817087,0,0,.62817087,-425.23814,198.3935)" d="M1040.92-167.14 1033.93-163.63 1035.67-167.13 1033.91-170.63 1040.92-167.14Z"/>
<path transform="matrix(.62817087,0,0,.62817087,-425.23814,198.3935)" stroke-width="1" stroke-linecap="butt" stroke-miterlimit="10" stroke-linejoin="miter" fill="none" stroke="#000000" d="M1040.92-167.14 1033.93-163.63 1035.67-167.13 1033.91-170.63 1040.92-167.14Z"/>
<path transform="matrix(.62817087,0,0,.62817087,-425.23814,198.3935)" d="M974-167.5C973.99996-166.70435 973.83499-165.93898 973.5051-165.20389 973.1752-164.4688 972.7055-163.81995 972.09609-163.25736 971.4865-162.69474 970.7836-162.26119 969.9873-161.9567 969.191-161.65224 968.3619-161.5 967.5-161.5 966.638-161.5 965.8088-161.65224 965.01248-161.9567 964.216-162.26119 963.5131-162.69474 962.9037-163.25736 962.2941-163.81995 961.82449-164.4688 961.4946-165.20389 961.1648-165.93898 960.99996-166.70435 961-167.5 960.99996-168.29564 961.1648-169.06099 961.4946-169.79608 961.82449-170.53116 962.2941-171.18001 962.9037-171.74263 963.5131-172.30522 964.216-172.73877 965.0124-173.04326 965.8088-173.34775 966.638-173.49999 967.5-173.5 968.3619-173.49999 969.191-173.34775 969.9873-173.04326 970.7836-172.73877 971.4865-172.30522 972.09609-171.74263 972.7055-171.18001 973.1752-170.53116 973.50509-169.79608 973.83499-169.06099 973.99996-168.29564 974-167.5Z" fill="#f5f5f5"/>
<path transform="matrix(.62817087,0,0,.62817087,-425.23814,198.3935)" stroke-width="1" stroke-linecap="butt" stroke-miterlimit="4" stroke-linejoin="miter" fill="none" stroke="#666666" d="M974-167.5C973.99996-166.70435 973.83499-165.93898 973.5051-165.20389 973.1752-164.4688 972.7055-163.81995 972.09609-163.25736 971.4865-162.69474 970.7836-162.26119 969.9873-161.9567 969.191-161.65224 968.3619-161.5 967.5-161.5 966.638-161.5 965.8088-161.65224 965.01248-161.9567 964.216-162.26119 963.5131-162.69474 962.9037-163.25736 962.2941-163.81995 961.82449-164.4688 961.4946-165.20389 961.1648-165.93898 960.99996-166.70435 961-167.5 960.99996-168.29564 961.1648-169.06099 961.4946-169.79608 961.82449-170.53116 962.2941-171.18001 962.9037-171.74263 963.5131-172.30522 964.216-172.73877 965.0124-173.04326 965.8088-173.34775 966.638-173.49999 967.5-173.5 968.3619-173.49999 969.191-173.34775 969.9873-173.04326 970.7836-172.73877 971.4865-172.30522 972.09609-171.74263 972.7055-171.18001 973.1752-170.53116 973.50509-169.79608 973.83499-169.06099 973.99996-168.29564 974-167.5Z"/>
<use data-text="E" xlink:href="#font_10_40" transform="matrix(5.025367,0,0,-5.025367,188.20014,95.68758)"/>
<use data-text="s" xlink:href="#font_10_86" transform="matrix(5.025367,0,0,-5.025367,191.55207,95.68758)"/>
<use data-text="t" xlink:href="#font_10_87" transform="matrix(5.025367,0,0,-5.025367,194.0647,95.68758)"/>
<use data-text="a" xlink:href="#font_10_68" transform="matrix(5.025367,0,0,-5.025367,195.46179,95.68758)"/>
<use data-text="d" xlink:href="#font_10_71" transform="matrix(5.025367,0,0,-5.025367,198.25586,95.68758)"/>
<use data-text="o" xlink:href="#font_10_82" transform="matrix(5.025367,0,0,-5.025367,201.04999,95.68758)"/>
<path transform="matrix(.62817087,0,0,.62817087,-425.23814,198.3935)" stroke-width="1" stroke-linecap="butt" stroke-miterlimit="4" stroke-linejoin="miter" fill="none" stroke="#000000" d="M953-180.5H1126V-107.5H953Z"/>
<path transform="matrix(.62817087,0,0,.62817087,-425.23814,198.3935)" d="M810-219C810.00009-217.68996 809.93588-216.38307 809.80746-215.07933 809.67898-213.77558 809.4869-212.48126 809.2313-211.19637 808.97579-209.9115 808.65786-208.64225 808.2776-207.3886 807.8973-206.13495 807.4565-204.90297 806.9551-203.69264 806.4538-202.48232 805.89437-201.29947 805.27676-200.14412 804.65927-198.98874 803.9865-197.86643 803.25869-196.77716 802.5309-195.68791 801.75149-194.63694 800.9204-193.62425 800.0893-192.61157 799.2106-191.64206 798.2842-190.71572 797.3579-189.78937 796.3884-188.91066 795.37576-188.07958 794.36306-187.2485 793.312-186.46904 792.2227-185.7412 791.1335-185.01338 790.0112-184.3407 788.8559-183.72315 787.7005-183.10559 786.51766-182.54615 785.30728-182.0448 784.0969-181.54347 782.8649-181.10268 781.6113-180.72238 780.3577-180.34209 779.08847-180.02416 777.8035-179.76859 776.5187-179.51302 775.2244-179.32102 773.92068-179.19261 772.61697-179.06421 771.31008-179.00002 770-179 768.69-179.00002 767.3831-179.06421 766.07937-179.19261 764.7756-179.32102 763.48129-179.51302 762.19638-179.76859 760.9115-180.02416 759.6422-180.34209 758.3886-180.72238 757.13497-181.10268 755.90298-181.54347 754.69259-182.0448 753.4823-182.54615 752.29946-183.10559 751.1441-183.72315 749.9888-184.3407 748.86648-185.01338 747.77719-185.7412 746.6879-186.46904 745.63699-187.2485 744.62429-188.07958 743.6116-188.91066 742.642-189.78937 741.7157-190.71572 740.78939-191.64206 739.91067-192.61157 739.0795-193.62425 738.2484-194.63694 737.469-195.68791 736.74118-196.77716 736.0133-197.86643 735.34066-198.98874 734.7231-200.14412 734.1056-201.29947 733.54617-202.48232 733.04476-203.69264 732.54348-204.90297 732.10269-206.13497 731.7224-207.38861 731.3421-208.64226 731.0242-209.91152 730.76858-211.19638 730.513-212.48126 730.32107-213.77558 730.1926-215.07933 730.0643-216.38307 730.00009-217.68996 730-219 730.00009-220.31006 730.0643-221.61696 730.1926-222.9207 730.32107-224.22443 730.513-225.51874 730.76858-226.8036 731.0242-228.08849 731.34219-229.35774 731.7225-230.61138 732.10269-231.86502 732.54348-233.097 733.0448-234.30731 733.54617-235.51766 734.1056-236.7005 734.72317-237.85587 735.34078-239.01122 736.0134-240.13352 736.7412-241.22277 737.46908-242.31206 738.2485-243.36304 739.0795-244.37572 739.91067-245.3884 740.78939-246.35791 741.7157-247.28426 742.642-248.2106 743.6116-249.08931 744.62429-249.9204 745.63699-250.7515 746.6879-251.53095 747.77719-252.25876 748.86648-252.98659 749.98886-253.65927 751.14419-254.27683 752.2995-254.89438 753.4823-255.45381 754.69259-255.95514 755.90298-256.4565 757.13497-256.8973 758.38858-257.2776 759.6422-257.6579 760.9115-257.97584 762.19638-258.23139 763.48129-258.487 764.7756-258.67903 766.07937-258.8074 767.3831-258.9358 768.69-259 770-259 771.31008-259 772.61697-258.9358 773.92068-258.8074 775.2244-258.67903 776.5187-258.487 777.8035-258.23139 779.08847-257.97584 780.3577-257.6579 781.6114-257.2776 782.865-256.8973 784.0969-256.4565 785.30728-255.95514 786.51766-255.45381 787.7005-254.89438 788.85586-254.27684 790.01119-253.65927 791.1335-252.98659 792.2227-252.25876 793.312-251.53095 794.36306-250.7515 795.37576-249.92041 796.3884-249.08931 797.3579-248.2106 798.2842-247.28426 799.2106-246.35791 800.08938-245.3884 800.9205-244.37572 801.75149-243.36304 802.5309-242.31206 803.25869-241.22278 803.9865-240.13353 804.65927-239.01122 805.27676-237.85587 805.89437-236.7005 806.4538-235.51766 806.9551-234.30731 807.4565-233.097 807.89736-231.865 808.27767-230.61136 808.65786-229.35774 808.97579-228.08849 809.2313-226.8036 809.4869-225.51874 809.6789-224.22443 809.8074-222.9207 809.93588-221.61696 810.00009-220.31006 810-219Z" fill="#f5f5f5"/>
<path transform="matrix(.62817087,0,0,.62817087,-425.23814,198.3935)" stroke-width="1" stroke-linecap="butt" stroke-miterlimit="4" stroke-linejoin="miter" fill="none" stroke="#666666" d="M810-219C810.00009-217.68996 809.93588-216.38307 809.80746-215.07933 809.67898-213.77558 809.4869-212.48126 809.2313-211.19637 808.97579-209.9115 808.65786-208.64225 808.2776-207.3886 807.8973-206.13495 807.4565-204.90297 806.9551-203.69264 806.4538-202.48232 805.89437-201.29947 805.27676-200.14412 804.65927-198.98874 803.9865-197.86643 803.25869-196.77716 802.5309-195.68791 801.75149-194.63694 800.9204-193.62425 800.0893-192.61157 799.2106-191.64206 798.2842-190.71572 797.3579-189.78937 796.3884-188.91066 795.37576-188.07958 794.36306-187.2485 793.312-186.46904 792.2227-185.7412 791.1335-185.01338 790.0112-184.3407 788.8559-183.72315 787.7005-183.10559 786.51766-182.54615 785.30728-182.0448 784.0969-181.54347 782.8649-181.10268 781.6113-180.72238 780.3577-180.34209 779.08847-180.02416 777.8035-179.76859 776.5187-179.51302 775.2244-179.32102 773.92068-179.19261 772.61697-179.06421 771.31008-179.00002 770-179 768.69-179.00002 767.3831-179.06421 766.07937-179.19261 764.7756-179.32102 763.48129-179.51302 762.19638-179.76859 760.9115-180.02416 759.6422-180.34209 758.3886-180.72238 757.13497-181.10268 755.90298-181.54347 754.69259-182.0448 753.4823-182.54615 752.29946-183.10559 751.1441-183.72315 749.9888-184.3407 748.86648-185.01338 747.77719-185.7412 746.6879-186.46904 745.63699-187.2485 744.62429-188.07958 743.6116-188.91066 742.642-189.78937 741.7157-190.71572 740.78939-191.64206 739.91067-192.61157 739.0795-193.62425 738.2484-194.63694 737.469-195.68791 736.74118-196.77716 736.0133-197.86643 735.34066-198.98874 734.7231-200.14412 734.1056-201.29947 733.54617-202.48232 733.04476-203.69264 732.54348-204.90297 732.10269-206.13497 731.7224-207.38861 731.3421-208.64226 731.0242-209.91152 730.76858-211.19638 730.513-212.48126 730.32107-213.77558 730.1926-215.07933 730.0643-216.38307 730.00009-217.68996 730-219 730.00009-220.31006 730.0643-221.61696 730.1926-222.9207 730.32107-224.22443 730.513-225.51874 730.76858-226.8036 731.0242-228.08849 731.34219-229.35774 731.7225-230.61138 732.10269-231.86502 732.54348-233.097 733.0448-234.30731 733.54617-235.51766 734.1056-236.7005 734.72317-237.85587 735.34078-239.01122 736.0134-240.13352 736.7412-241.22277 737.46908-242.31206 738.2485-243.36304 739.0795-244.37572 739.91067-245.3884 740.78939-246.35791 741.7157-247.28426 742.642-248.2106 743.6116-249.08931 744.62429-249.9204 745.63699-250.7515 746.6879-251.53095 747.77719-252.25876 748.86648-252.98659 749.98886-253.65927 751.14419-254.27683 752.2995-254.89438 753.4823-255.45381 754.69259-255.95514 755.90298-256.4565 757.13497-256.8973 758.38858-257.2776 759.6422-257.6579 760.9115-257.97584 762.19638-258.23139 763.48129-258.487 764.7756-258.67903 766.07937-258.8074 767.3831-258.9358 768.69-259 770-259 771.31008-259 772.61697-258.9358 773.92068-258.8074 775.2244-258.67903 776.5187-258.487 777.8035-258.23139 779.08847-257.97584 780.3577-257.6579 781.6114-257.2776 782.865-256.8973 784.0969-256.4565 785.30728-255.95514 786.51766-255.45381 787.7005-254.89438 788.85586-254.27684 790.01119-253.65927 791.1335-252.98659 792.2227-252.25876 793.312-251.53095 794.36306-250.7515 795.37576-249.92041 796.3884-249.08931 797.3579-248.2106 798.2842-247.28426 799.2106-246.35791 800.08938-245.3884 800.9205-244.37572 801.75149-243.36304 802.5309-242.31206 803.25869-241.22278 803.9865-240.13353 804.65927-239.01122 805.27676-237.85587 805.89437-236.7005 806.4538-235.51766 806.9551-234.30731 807.4565-233.097 807.89736-231.865 808.27767-230.61136 808.65786-229.35774 808.97579-228.08849 809.2313-226.8036 809.4869-225.51874 809.6789-224.22443 809.8074-222.9207 809.93588-221.61696 810.00009-220.31006 810-219Z"/>
<use data-text="W" xlink:href="#font_10_58" transform="matrix(7.53805,0,0,-7.53805,48.854158,58.62549)" fill="#333333"/>
<use data-text="A" xlink:href="#font_10_36" transform="matrix(7.53805,0,0,-7.53805,55.68921,58.62549)" fill="#333333"/>
<use data-text="I" xlink:href="#font_10_44" transform="matrix(7.53805,0,0,-7.53805,60.717103,58.62549)" fill="#333333"/>
<use data-text="T" xlink:href="#font_10_55" transform="matrix(7.53805,0,0,-7.53805,62.812685,58.62549)" fill="#333333"/>
<use data-text="D" xlink:href="#font_10_39" transform="matrix(7.53805,0,0,-7.53805,42.493928,68.04805)" fill="#333333"/>
<use data-text="I" xlink:href="#font_10_44" transform="matrix(7.53805,0,0,-7.53805,47.9364,68.04805)" fill="#333333"/>
<use data-text="S" xlink:href="#font_10_54" transform="matrix(7.53805,0,0,-7.53805,50.031984,68.04805)" fill="#333333"/>
<use data-text="P" xlink:href="#font_10_51" transform="matrix(7.53805,0,0,-7.53805,55.059877,68.04805)" fill="#333333"/>
<use data-text="L" xlink:href="#font_10_47" transform="matrix(7.53805,0,0,-7.53805,60.08777,68.04805)" fill="#333333"/>
<use data-text="A" xlink:href="#font_10_36" transform="matrix(7.53805,0,0,-7.53805,64.27893,68.04805)" fill="#333333"/>
<use data-text="Y" xlink:href="#font_10_60" transform="matrix(7.53805,0,0,-7.53805,68.74829,68.04805)" fill="#333333"/>
<path transform="matrix(.62817087,0,0,.62817087,-425.23814,198.3935)" stroke-width="1" stroke-linecap="butt" stroke-miterlimit="10" stroke-linejoin="miter" fill="none" stroke="#000000" d="M920-179C920-171.66667 899.7167-168 859.15-168 818.5833-168 798.29666-173.45 798.29-184.35"/>
<path transform="matrix(.62817087,0,0,.62817087,-425.23814,198.3935)" d="M798.29-189.6 801.79-182.6 798.29-184.35 794.79-182.6 798.29-189.6Z"/>
<path transform="matrix(.62817087,0,0,.62817087,-425.23814,198.3935)" stroke-width="1" stroke-linecap="butt" stroke-miterlimit="10" stroke-linejoin="miter" fill="none" stroke="#000000" d="M798.29-189.6 801.79-182.6 798.29-184.35 794.79-182.6 798.29-189.6Z"/>
<path transform="matrix(.62817087,0,0,.62817087,-425.23814,198.3935)" d="M960-219C960-217.68996 959.9358-216.38307 959.8073-215.07933 959.6789-213.77558 959.4869-212.48126 959.23129-211.19637 958.9757-209.9115 958.6578-208.64225 958.2775-207.3886 957.8972-206.13495 957.4564-204.90297 956.9551-203.69264 956.4538-202.48232 955.89437-201.29947 955.2768-200.14412 954.6592-198.98874 953.98648-197.86643 953.2586-196.77716 952.5309-195.68791 951.75149-194.63694 950.9204-193.62425 950.08938-192.61157 949.21066-191.64206 948.28427-190.71572 947.3579-189.78937 946.3884-188.91066 945.3758-188.07958 944.3631-187.2485 943.3121-186.46904 942.2228-185.7412 941.13357-185.01338 940.0112-184.3407 938.85586-183.72315 937.7005-183.10559 936.51766-182.54615 935.30728-182.0448 934.097-181.54347 932.865-181.10268 931.6114-180.72238 930.3578-180.34209 929.0885-180.02416 927.8035-179.76859 926.5187-179.51302 925.2244-179.32102 923.9207-179.19261 922.61697-179.06421 921.31-179.00002 920-179 918.68997-179.00002 917.38308-179.06421 916.0793-179.19261 914.7756-179.32102 913.48129-179.51302 912.19638-179.76859 910.9115-180.02416 909.6422-180.34209 908.3886-180.72238 907.135-181.10268 905.90298-181.54347 904.69259-182.0448 903.48226-182.54615 902.29946-183.10559 901.1441-183.72315 899.9887-184.3407 898.86636-185.01338 897.77706-185.7412 896.68789-186.46904 895.6369-187.2485 894.6242-188.07958 893.6115-188.91066 892.64199-189.78937 891.71566-190.71572 890.7893-191.64206 889.9106-192.61157 889.07949-193.62425 888.24838-194.63694 887.46896-195.68791 886.7411-196.77716 886.0133-197.86643 885.34066-198.98874 884.7231-200.14412 884.1055-201.29947 883.5461-202.48232 883.04476-203.69264 882.5434-204.90297 882.1026-206.13497 881.72238-207.38861 881.34207-208.64226 881.0241-209.91152 880.7685-211.19638 880.51296-212.48126 880.321-213.77558 880.1926-215.07933 880.0642-216.38307 880-217.68996 880-219 880-220.31006 880.0642-221.61696 880.1926-222.9207 880.321-224.22443 880.51296-225.51874 880.7685-226.8036 881.02407-228.08849 881.342-229.35774 881.7223-230.61138 882.1026-231.86502 882.5434-233.097 883.0447-234.30731 883.5461-235.51766 884.1055-236.7005 884.723-237.85587 885.3406-239.01122 886.01327-240.13352 886.7411-241.22277 887.46896-242.31206 888.24838-243.36304 889.07949-244.37572 889.9106-245.3884 890.7893-246.35791 891.71566-247.28426 892.64199-248.2106 893.6115-249.08931 894.6242-249.9204 895.6369-250.7515 896.68789-251.53095 897.7771-252.25876 898.8664-252.98659 899.9888-253.65927 901.1441-254.27683 902.29946-254.89438 903.48226-255.45381 904.69259-255.95514 905.90298-256.4565 907.135-256.8973 908.3886-257.2776 909.6422-257.6579 910.9115-257.97584 912.19638-258.23139 913.48129-258.487 914.7756-258.67903 916.07937-258.8074 917.38308-258.9358 918.68997-259 920-259 921.31-259 922.6169-258.9358 923.92068-258.8074 925.22439-258.67903 926.5186-258.487 927.80349-258.23139 929.08847-257.97584 930.3577-257.6579 931.6113-257.2776 932.865-256.8973 934.097-256.4565 935.30728-255.95514 936.51766-255.45381 937.7005-254.89438 938.85586-254.27684 940.01119-253.65927 941.1335-252.98659 942.2227-252.25876 943.312-251.53095 944.36306-250.7515 945.37576-249.92041 946.3884-249.08931 947.3579-248.2106 948.28427-247.28426 949.21066-246.35791 950.08938-245.3884 950.9204-244.37572 951.7515-243.36304 952.53097-242.31206 953.25869-241.22278 953.9865-240.13353 954.6592-239.01122 955.2768-237.85587 955.89437-236.7005 956.4538-235.51766 956.9551-234.30731 957.4564-233.097 957.8972-231.865 958.2775-230.61136 958.6578-229.35774 958.9757-228.08849 959.23129-226.8036 959.4869-225.51874 959.6789-224.22443 959.8073-222.9207 959.9358-221.61696 960-220.31006 960-219Z" fill="#f5f5f5"/>
<path transform="matrix(.62817087,0,0,.62817087,-425.23814,198.3935)" stroke-width="1" stroke-linecap="butt" stroke-miterlimit="4" stroke-linejoin="miter" fill="none" stroke="#666666" d="M960-219C960-217.68996 959.9358-216.38307 959.8073-215.07933 959.6789-213.77558 959.4869-212.48126 959.23129-211.19637 958.9757-209.9115 958.6578-208.64225 958.2775-207.3886 957.8972-206.13495 957.4564-204.90297 956.9551-203.69264 956.4538-202.48232 955.89437-201.29947 955.2768-200.14412 954.6592-198.98874 953.98648-197.86643 953.2586-196.77716 952.5309-195.68791 951.75149-194.63694 950.9204-193.62425 950.08938-192.61157 949.21066-191.64206 948.28427-190.71572 947.3579-189.78937 946.3884-188.91066 945.3758-188.07958 944.3631-187.2485 943.3121-186.46904 942.2228-185.7412 941.13357-185.01338 940.0112-184.3407 938.85586-183.72315 937.7005-183.10559 936.51766-182.54615 935.30728-182.0448 934.097-181.54347 932.865-181.10268 931.6114-180.72238 930.3578-180.34209 929.0885-180.02416 927.8035-179.76859 926.5187-179.51302 925.2244-179.32102 923.9207-179.19261 922.61697-179.06421 921.31-179.00002 920-179 918.68997-179.00002 917.38308-179.06421 916.0793-179.19261 914.7756-179.32102 913.48129-179.51302 912.19638-179.76859 910.9115-180.02416 909.6422-180.34209 908.3886-180.72238 907.135-181.10268 905.90298-181.54347 904.69259-182.0448 903.48226-182.54615 902.29946-183.10559 901.1441-183.72315 899.9887-184.3407 898.86636-185.01338 897.77706-185.7412 896.68789-186.46904 895.6369-187.2485 894.6242-188.07958 893.6115-188.91066 892.64199-189.78937 891.71566-190.71572 890.7893-191.64206 889.9106-192.61157 889.07949-193.62425 888.24838-194.63694 887.46896-195.68791 886.7411-196.77716 886.0133-197.86643 885.34066-198.98874 884.7231-200.14412 884.1055-201.29947 883.5461-202.48232 883.04476-203.69264 882.5434-204.90297 882.1026-206.13497 881.72238-207.38861 881.34207-208.64226 881.0241-209.91152 880.7685-211.19638 880.51296-212.48126 880.321-213.77558 880.1926-215.07933 880.0642-216.38307 880-217.68996 880-219 880-220.31006 880.0642-221.61696 880.1926-222.9207 880.321-224.22443 880.51296-225.51874 880.7685-226.8036 881.02407-228.08849 881.342-229.35774 881.7223-230.61138 882.1026-231.86502 882.5434-233.097 883.0447-234.30731 883.5461-235.51766 884.1055-236.7005 884.723-237.85587 885.3406-239.01122 886.01327-240.13352 886.7411-241.22277 887.46896-242.31206 888.24838-243.36304 889.07949-244.37572 889.9106-245.3884 890.7893-246.35791 891.71566-247.28426 892.64199-248.2106 893.6115-249.08931 894.6242-249.9204 895.6369-250.7515 896.68789-251.53095 897.7771-252.25876 898.8664-252.98659 899.9888-253.65927 901.1441-254.27683 902.29946-254.89438 903.48226-255.45381 904.69259-255.95514 905.90298-256.4565 907.135-256.8973 908.3886-257.2776 909.6422-257.6579 910.9115-257.97584 912.19638-258.23139 913.48129-258.487 914.7756-258.67903 916.07937-258.8074 917.38308-258.9358 918.68997-259 920-259 921.31-259 922.6169-258.9358 923.92068-258.8074 925.22439-258.67903 926.5186-258.487 927.80349-258.23139 929.08847-257.97584 930.3577-257.6579 931.6113-257.2776 932.865-256.8973 934.097-256.4565 935.30728-255.95514 936.51766-255.45381 937.7005-254.89438 938.85586-254.27684 940.01119-253.65927 941.1335-252.98659 942.2227-252.25876 943.312-251.53095 944.36306-250.7515 945.37576-249.92041 946.3884-249.08931 947.3579-248.2106 948.28427-247.28426 949.21066-246.35791 950.08938-245.3884 950.9204-244.37572 951.7515-243.36304 952.53097-242.31206 953.25869-241.22278 953.9865-240.13353 954.6592-239.01122 955.2768-237.85587 955.89437-236.7005 956.4538-235.51766 956.9551-234.30731 957.4564-233.097 957.8972-231.865 958.2775-230.61136 958.6578-229.35774 958.9757-228.08849 959.23129-226.8036 959.4869-225.51874 959.6789-224.22443 959.8073-222.9207 959.9358-221.61696 960-220.31006 960-219Z"/>
<use data-text="S" xlink:href="#font_10_54" transform="matrix(7.53805,0,0,-7.53805,145.03302,58.62549)" fill="#333333"/>
<use data-text="E" xlink:href="#font_10_40" transform="matrix(7.53805,0,0,-7.53805,150.06092,58.62549)" fill="#333333"/>
<use data-text="T" xlink:href="#font_10_55" transform="matrix(7.53805,0,0,-7.53805,155.0888,58.62549)" fill="#333333"/>
<use data-text="D" xlink:href="#font_10_39" transform="matrix(7.53805,0,0,-7.53805,136.71955,68.04805)" fill="#333333"/>
<use data-text="I" xlink:href="#font_10_44" transform="matrix(7.53805,0,0,-7.53805,142.16205,68.04805)" fill="#333333"/>
<use data-text="S" xlink:href="#font_10_54" transform="matrix(7.53805,0,0,-7.53805,144.25763,68.04805)" fill="#333333"/>
<use data-text="P" xlink:href="#font_10_51" transform="matrix(7.53805,0,0,-7.53805,149.28553,68.04805)" fill="#333333"/>
<use data-text="L" xlink:href="#font_10_47" transform="matrix(7.53805,0,0,-7.53805,154.31342,68.04805)" fill="#333333"/>
<use data-text="A" xlink:href="#font_10_36" transform="matrix(7.53805,0,0,-7.53805,158.50458,68.04805)" fill="#333333"/>
<use data-text="Y" xlink:href="#font_10_60" transform="matrix(7.53805,0,0,-7.53805,162.97388,68.04805)" fill="#333333"/>
<use data-text="c" xlink:href="#font_9_70" transform="matrix(5.025367,0,0,-5.025367,99.59857,103.8538)" fill="#007fff"/>
<use data-text="h" xlink:href="#font_9_75" transform="matrix(5.025367,0,0,-5.025367,102.3927,103.8538)" fill="#007fff"/>
<use data-text="e" xlink:href="#font_9_72" transform="matrix(5.025367,0,0,-5.025367,105.463199,103.8538)" fill="#007fff"/>
<use data-text="c" xlink:href="#font_9_70" transform="matrix(5.025367,0,0,-5.025367,108.25726,103.8538)" fill="#007fff"/>
<use data-text="k" xlink:href="#font_9_78" transform="matrix(5.025367,0,0,-5.025367,111.05139,103.8538)" fill="#007fff"/>
<use data-text="_" xlink:href="#font_9_66" transform="matrix(5.025367,0,0,-5.025367,113.84552,103.8538)" fill="#007fff"/>
<use data-text="o" xlink:href="#font_9_82" transform="matrix(5.025367,0,0,-5.025367,116.63959,103.8538)" fill="#007fff"/>
<use data-text="f" xlink:href="#font_9_73" transform="matrix(5.025367,0,0,-5.025367,119.71008,103.8538)" fill="#007fff"/>
<use data-text="f" xlink:href="#font_9_73" transform="matrix(5.025367,0,0,-5.025367,121.383548,103.8538)" fill="#007fff"/>
<use data-text="(" xlink:href="#font_9_11" transform="matrix(5.025367,0,0,-5.025367,123.06665,103.8538)" fill="#007fff"/>
<use data-text=")" xlink:href="#font_9_12" transform="matrix(5.025367,0,0,-5.025367,124.74011,103.8538)" fill="#007fff"/>
<use data-text="d" xlink:href="#font_9_71" transform="matrix(5.025367,0,0,-5.025367,99.59857,110.135509)" fill="#009900"/>
<use data-text="o" xlink:href="#font_9_82" transform="matrix(5.025367,0,0,-5.025367,102.66907,110.135509)" fill="#009900"/>
<use data-text="_" xlink:href="#font_9_66" transform="matrix(5.025367,0,0,-5.025367,105.73956,110.135509)" fill="#009900"/>
<use data-text="s" xlink:href="#font_9_86" transform="matrix(5.025367,0,0,-5.025367,108.53369,110.135509)" fill="#009900"/>
<use data-text="e" xlink:href="#font_9_72" transform="matrix(5.025367,0,0,-5.025367,111.32776,110.135509)" fill="#009900"/>
<use data-text="t" xlink:href="#font_9_87" transform="matrix(5.025367,0,0,-5.025367,114.12189,110.135509)" fill="#009900"/>
<use data-text="_" xlink:href="#font_9_66" transform="matrix(5.025367,0,0,-5.025367,115.79535,110.135509)" fill="#009900"/>
<use data-text="o" xlink:href="#font_9_82" transform="matrix(5.025367,0,0,-5.025367,118.58942,110.135509)" fill="#009900"/>
<use data-text="f" xlink:href="#font_9_73" transform="matrix(5.025367,0,0,-5.025367,121.65991,110.135509)" fill="#009900"/>
<use data-text="f" xlink:href="#font_9_73" transform="matrix(5.025367,0,0,-5.025367,123.333377,110.135509)" fill="#009900"/>
<use data-text="(" xlink:href="#font_9_11" transform="matrix(5.025367,0,0,-5.025367,125.01007,110.135509)" fill="#009900"/>
<use data-text=")" xlink:href="#font_9_12" transform="matrix(5.025367,0,0,-5.025367,126.68353,110.135509)" fill="#009900"/>
<path transform="matrix(.62817087,0,0,.62817087,-425.23814,198.3935)" stroke-width="1" stroke-linecap="butt" stroke-miterlimit="10" stroke-linejoin="miter" fill="none" stroke="#000000" d="M709-271C731-273 741.9267-267.21669 741.78-253.65"/>
<path transform="matrix(.62817087,0,0,.62817087,-425.23814,198.3935)" d="M741.73-248.4 738.3-255.44 741.78-253.65 745.3-255.36 741.73-248.4Z"/>
<path transform="matrix(.62817087,0,0,.62817087,-425.23814,198.3935)" stroke-width="1" stroke-linecap="butt" stroke-miterlimit="10" stroke-linejoin="miter" fill="none" stroke="#000000" d="M741.73-248.4 738.3-255.44 741.78-253.65 745.3-255.36 741.73-248.4Z"/>
<use data-text="c" xlink:href="#font_9_70" transform="matrix(5.025367,0,0,-5.025367,143.57056,17.166214)" fill="#007fff"/>
<use data-text="h" xlink:href="#font_9_75" transform="matrix(5.025367,0,0,-5.025367,146.36463,17.166214)" fill="#007fff"/>
<use data-text="e" xlink:href="#font_9_72" transform="matrix(5.025367,0,0,-5.025367,149.43512,17.166214)" fill="#007fff"/>
<use data-text="c" xlink:href="#font_9_70" transform="matrix(5.025367,0,0,-5.025367,152.22925,17.166214)" fill="#007fff"/>
<use data-text="k" xlink:href="#font_9_78" transform="matrix(5.025367,0,0,-5.025367,155.02338,17.166214)" fill="#007fff"/>
<use data-text="_" xlink:href="#font_9_66" transform="matrix(5.025367,0,0,-5.025367,157.81745,17.166214)" fill="#007fff"/>
<use data-text="s" xlink:href="#font_9_86" transform="matrix(5.025367,0,0,-5.025367,160.61157,17.166214)" fill="#007fff"/>
<use data-text="e" xlink:href="#font_9_72" transform="matrix(5.025367,0,0,-5.025367,163.40564,17.166214)" fill="#007fff"/>
<use data-text="t" xlink:href="#font_9_87" transform="matrix(5.025367,0,0,-5.025367,166.19977,17.166214)" fill="#007fff"/>
<use data-text="_" xlink:href="#font_9_66" transform="matrix(5.025367,0,0,-5.025367,167.87323,17.166214)" fill="#007fff"/>
<use data-text="n" xlink:href="#font_9_81" transform="matrix(5.025367,0,0,-5.025367,170.6673,17.166214)" fill="#007fff"/>
<use data-text="e" xlink:href="#font_9_72" transform="matrix(5.025367,0,0,-5.025367,173.7378,17.166214)" fill="#007fff"/>
<use data-text="w" xlink:href="#font_9_90" transform="matrix(5.025367,0,0,-5.025367,176.53192,17.166214)" fill="#007fff"/>
<use data-text="_" xlink:href="#font_9_66" transform="matrix(5.025367,0,0,-5.025367,180.44165,17.166214)" fill="#007fff"/>
<use data-text="c" xlink:href="#font_9_70" transform="matrix(5.025367,0,0,-5.025367,183.23578,17.166214)" fill="#007fff"/>
<use data-text="o" xlink:href="#font_9_82" transform="matrix(5.025367,0,0,-5.025367,186.02985,17.166214)" fill="#007fff"/>
<use data-text="l" xlink:href="#font_9_79" transform="matrix(5.025367,0,0,-5.025367,189.10034,17.166214)" fill="#007fff"/>
<use data-text="o" xlink:href="#font_9_82" transform="matrix(5.025367,0,0,-5.025367,190.49738,17.166214)" fill="#007fff"/>
<use data-text="r" xlink:href="#font_9_85" transform="matrix(5.025367,0,0,-5.025367,193.56793,17.166214)" fill="#007fff"/>
<use data-text="(" xlink:href="#font_9_11" transform="matrix(5.025367,0,0,-5.025367,195.53205,17.166214)" fill="#007fff"/>
<use data-text=")" xlink:href="#font_9_12" transform="matrix(5.025367,0,0,-5.025367,197.2055,17.166214)" fill="#007fff"/>
<use data-text="d" xlink:href="#font_9_71" transform="matrix(5.025367,0,0,-5.025367,143.57056,23.447922)" fill="#009900"/>
<use data-text="o" xlink:href="#font_9_82" transform="matrix(5.025367,0,0,-5.025367,146.64105,23.447922)" fill="#009900"/>
<use data-text="_" xlink:href="#font_9_66" transform="matrix(5.025367,0,0,-5.025367,149.71155,23.447922)" fill="#009900"/>
<use data-text="s" xlink:href="#font_9_86" transform="matrix(5.025367,0,0,-5.025367,152.50562,23.447922)" fill="#009900"/>
<use data-text="e" xlink:href="#font_9_72" transform="matrix(5.025367,0,0,-5.025367,155.29975,23.447922)" fill="#009900"/>
<use data-text="t" xlink:href="#font_9_87" transform="matrix(5.025367,0,0,-5.025367,158.09387,23.447922)" fill="#009900"/>
<use data-text="_" xlink:href="#font_9_66" transform="matrix(5.025367,0,0,-5.025367,159.76728,23.447922)" fill="#009900"/>
<use data-text="c" xlink:href="#font_9_70" transform="matrix(5.025367,0,0,-5.025367,162.5614,23.447922)" fill="#009900"/>
<use data-text="o" xlink:href="#font_9_82" transform="matrix(5.025367,0,0,-5.025367,165.35553,23.447922)" fill="#009900"/>
<use data-text="l" xlink:href="#font_9_79" transform="matrix(5.025367,0,0,-5.025367,168.42603,23.447922)" fill="#009900"/>
<use data-text="o" xlink:href="#font_9_82" transform="matrix(5.025367,0,0,-5.025367,169.82306,23.447922)" fill="#009900"/>
<use data-text="r" xlink:href="#font_9_85" transform="matrix(5.025367,0,0,-5.025367,172.89356,23.447922)" fill="#009900"/>
<use data-text="(" xlink:href="#font_9_11" transform="matrix(5.025367,0,0,-5.025367,174.8515,23.447922)" fill="#009900"/>
<use data-text=")" xlink:href="#font_9_12" transform="matrix(5.025367,0,0,-5.025367,176.52497,23.447922)" fill="#009900"/>
<path transform="matrix(.62817087,0,0,.62817087,-425.23814,198.3935)" stroke-width="1" stroke-linecap="butt" stroke-miterlimit="10" stroke-linejoin="miter" fill="none" stroke="#000000" d="M960-219C966.6667-219 970-228.16667 970-246.5 970-264.83335 961.6667-274 945-274 928.3333-274 920-271.12333 920-265.37"/>
<path transform="matrix(.62817087,0,0,.62817087,-425.23814,198.3935)" d="M920-260.12 916.5-267.12 920-265.37 923.5-267.12 920-260.12Z"/>
<path transform="matrix(.62817087,0,0,.62817087,-425.23814,198.3935)" stroke-width="1" stroke-linecap="butt" stroke-miterlimit="10" stroke-linejoin="miter" fill="none" stroke="#000000" d="M920-260.12 916.5-267.12 920-265.37 923.5-267.12 920-260.12Z"/>
</g>
</svg>
